<?xml version="1.0" encoding="utf-8"?>
<!-- Generator: Adobe Illustrator 27.3.1, SVG Export Plug-In . SVG Version: 6.00 Build 0)  -->
<svg version="1.1" id="Layer_1" xmlns="http://www.w3.org/2000/svg" xmlns:xlink="http://www.w3.org/1999/xlink" x="0px" y="0px"
	 viewBox="0 0 291 275" style="enable-background:new 0 0 291 275;" xml:space="preserve">
<style type="text/css">
	.st0{fill:url(#SVGID_1_);}
	.st1{fill:url(#SVGID_00000084518144136658186160000002966884373037523623_);}
	.st2{fill:url(#SVGID_00000023971708504095752030000003217702525560445104_);}
	.st3{fill:url(#SVGID_00000072970030126265069000000009202620790103381413_);}
	.st4{fill:url(#SVGID_00000104687665341531810010000000382413748688072079_);}
</style>
<g>
	<g>
		<g>
			<linearGradient id="SVGID_1_" gradientUnits="userSpaceOnUse" x1="149.3884" y1="137.51" x2="210.7458" y2="137.51">
				<stop  offset="0" style="stop-color:#44B6E8"/>
				<stop  offset="1" style="stop-color:#28388D;stop-opacity:0"/>
			</linearGradient>
			<path class="st0" d="M154.99,205.76c-1.2,0-2.4-0.03-3.59-0.09l1.04-19.97c1.37,0.07,2.78,0.08,4.16,0.04l0.64,19.99
				C156.49,205.75,155.74,205.76,154.99,205.76z M163.07,205.28l-2.35-19.86c1.36-0.16,2.74-0.38,4.09-0.66l4.04,19.59
				C166.94,204.74,165,205.06,163.07,205.28z M145.58,205.11c-1.92-0.27-3.86-0.62-5.76-1.05l4.42-19.5
				c1.34,0.3,2.71,0.55,4.07,0.74L145.58,205.11z M174.53,202.92l-5.72-19.17c1.32-0.39,2.63-0.85,3.9-1.35l7.37,18.59
				C178.27,201.71,176.41,202.36,174.53,202.92z M134.15,202.52c-1.85-0.59-3.7-1.28-5.49-2.02l7.71-18.45
				c1.26,0.53,2.57,1.01,3.88,1.43L134.15,202.52z M185.43,198.61l-8.93-17.9c1.23-0.61,2.45-1.29,3.61-2l10.45,17.05
				C188.9,196.78,187.17,197.74,185.43,198.61z M123.36,198c-1.72-0.9-3.43-1.89-5.06-2.93l10.76-16.86
				c1.16,0.74,2.36,1.44,3.58,2.08L123.36,198z M195.41,192.5l-11.86-16.1c1.11-0.82,2.2-1.69,3.23-2.6l13.18,15.04
				C198.51,190.12,196.98,191.35,195.41,192.5z M113.51,191.71c-1.54-1.18-3.05-2.44-4.49-3.76l13.48-14.78
				c1.02,0.93,2.09,1.82,3.17,2.65L113.51,191.71z M204.2,184.79l-14.42-13.86c0.96-0.99,1.88-2.04,2.74-3.11l15.55,12.58
				C206.85,181.91,205.55,183.39,204.2,184.79z M104.87,183.83c-1.32-1.43-2.59-2.93-3.79-4.46l15.79-12.28
				c0.85,1.09,1.75,2.15,2.68,3.16L104.87,183.83z M211.55,175.7l-16.56-11.21c0.77-1.14,1.5-2.32,2.17-3.52l17.47,9.74
				C213.68,172.41,212.64,174.09,211.55,175.7z M97.69,174.6c-1.06-1.63-2.06-3.33-2.97-5.05l17.65-9.4
				c0.65,1.21,1.35,2.41,2.1,3.56L97.69,174.6z M217.25,165.49l-18.24-8.21c0.56-1.25,1.08-2.54,1.53-3.84l18.88,6.6
				C218.78,161.88,218.05,163.71,217.25,165.49z M92.18,164.27c-0.76-1.79-1.46-3.64-2.07-5.49l19-6.23
				c0.43,1.31,0.92,2.61,1.46,3.87L92.18,164.27z M221.12,154.43l-19.38-4.95c0.34-1.33,0.62-2.69,0.85-4.05l19.73,3.26
				C222,150.62,221.6,152.55,221.12,154.43z M88.54,153.14c-0.44-1.89-0.81-3.83-1.09-5.76l19.79-2.87c0.2,1.36,0.46,2.73,0.77,4.06
				L88.54,153.14z M223.02,142.89l-19.94-1.56c0.1-1.26,0.15-2.55,0.15-3.82l0-0.32l20-0.15l0,0.47
				C223.23,139.3,223.16,141.11,223.02,142.89z M86.85,141.56c-0.08-1.34-0.12-2.7-0.12-4.04c0-0.59,0.01-1.19,0.02-1.79l19.99,0.52
				c-0.01,0.42-0.02,0.84-0.02,1.27c0,0.96,0.03,1.93,0.08,2.89L86.85,141.56z M203.03,133.04c-0.13-1.37-0.31-2.75-0.55-4.1
				l19.69-3.53c0.34,1.91,0.61,3.86,0.78,5.8L203.03,133.04z M107.04,132.1l-19.88-2.21c0.21-1.93,0.52-3.88,0.9-5.79l19.61,3.91
				C107.4,129.36,107.19,130.73,107.04,132.1z M201.57,124.9c-0.36-1.33-0.78-2.65-1.25-3.94l18.79-6.86
				c0.67,1.83,1.26,3.71,1.77,5.59L201.57,124.9z M108.65,124l-19.2-5.59c0.54-1.87,1.18-3.74,1.88-5.55l18.65,7.23
				C109.48,121.36,109.04,122.68,108.65,124z M198.74,117.14c-0.58-1.24-1.22-2.48-1.91-3.67l17.33-9.99
				c0.97,1.69,1.88,3.44,2.71,5.2L198.74,117.14z M111.64,116.3l-17.96-8.81c0.86-1.75,1.8-3.48,2.8-5.14l17.13,10.32
				C112.91,113.84,112.24,115.06,111.64,116.3z M194.61,109.98c-0.79-1.13-1.63-2.24-2.51-3.3l15.38-12.79
				c1.24,1.5,2.44,3.06,3.55,4.65L194.61,109.98z M115.9,109.21L99.71,97.47c1.14-1.57,2.36-3.11,3.64-4.59l15.13,13.08
				C117.57,107.01,116.71,108.1,115.9,109.21z M189.32,103.61c-0.97-0.98-1.99-1.93-3.04-2.82l12.98-15.21
				c1.48,1.26,2.92,2.6,4.28,3.98L189.32,103.61z M121.32,102.95l-13.96-14.33c1.39-1.36,2.86-2.67,4.36-3.9l12.69,15.46
				C123.34,101.06,122.3,101.99,121.32,102.95z M183.02,98.23c-1.12-0.8-2.29-1.56-3.47-2.26l10.2-17.2c1.67,0.99,3.32,2.07,4.9,3.2
				L183.02,98.23z M127.72,97.7L116.4,81.21c1.6-1.1,3.28-2.15,4.97-3.11l9.86,17.4C130.03,96.18,128.85,96.92,127.72,97.7z
				 M175.9,94.02c-1.24-0.6-2.51-1.15-3.8-1.63l7.1-18.7c1.82,0.69,3.63,1.47,5.38,2.31L175.9,94.02z M134.91,93.62l-8.33-18.18
				c1.77-0.81,3.6-1.56,5.43-2.21l6.73,18.83C137.45,92.52,136.17,93.05,134.91,93.62z M168.19,91.09c-1.32-0.37-2.67-0.7-4.02-0.96
				l3.79-19.64c1.92,0.37,3.83,0.82,5.7,1.35L168.19,91.09z M142.7,90.84l-5.08-19.34c1.88-0.49,3.81-0.91,5.73-1.24l3.39,19.71
				C145.38,90.2,144.02,90.49,142.7,90.84z M160.07,89.53c-1.37-0.14-2.76-0.23-4.14-0.25l0.38-20c1.94,0.04,3.91,0.16,5.84,0.36
				L160.07,89.53z M150.84,89.44l-1.69-19.93c1.93-0.16,3.89-0.25,5.84-0.25v20C153.6,89.26,152.21,89.32,150.84,89.44z"/>
		</g>
	</g>
	
		<linearGradient id="SVGID_00000089564171784554279480000008821538008913214345_" gradientUnits="userSpaceOnUse" x1="148.9261" y1="137.5102" x2="273.4142" y2="137.5102">
		<stop  offset="0" style="stop-color:#28388D"/>
		<stop  offset="0.112" style="stop-color:#273380"/>
		<stop  offset="0.3985" style="stop-color:#202864"/>
		<stop  offset="0.6524" style="stop-color:#181E50"/>
		<stop  offset="0.8616" style="stop-color:#121744"/>
		<stop  offset="1" style="stop-color:#101440"/>
	</linearGradient>
	<path style="fill:url(#SVGID_00000089564171784554279480000008821538008913214345_);" d="M154.99,22.03
		C91.2,22.03,39.5,73.73,39.5,137.51c0,63.78,51.7,115.48,115.48,115.48s115.48-51.7,115.48-115.48
		C270.47,73.73,218.77,22.03,154.99,22.03z M154.99,245.82c-59.82,0-108.31-48.49-108.31-108.31S95.17,29.2,154.99,29.2
		s108.31,48.49,108.31,108.31S214.8,245.82,154.99,245.82z"/>
	<g>
		<g>
			
				<linearGradient id="SVGID_00000040544634717487750640000016729805857594049424_" gradientUnits="userSpaceOnUse" x1="267.9926" y1="137.5102" x2="205.2296" y2="137.5102">
				<stop  offset="0" style="stop-color:#00B5E3"/>
				<stop  offset="1" style="stop-color:#28388D;stop-opacity:0"/>
			</linearGradient>
			<path style="fill:url(#SVGID_00000040544634717487750640000016729805857594049424_);" d="M154.99,49.17
				c-48.79,0-88.34,39.55-88.34,88.34c0,48.79,39.55,88.34,88.34,88.34s88.34-39.55,88.34-88.34
				C243.33,88.72,203.77,49.17,154.99,49.17z M154.99,220.36c-45.76,0-82.85-37.09-82.85-82.85c0-45.76,37.09-82.85,82.85-82.85
				s82.85,37.09,82.85,82.85C237.84,183.27,200.74,220.36,154.99,220.36z"/>
		</g>
	</g>
	<g>
		
			<linearGradient id="SVGID_00000096744821373825096380000017515613950120082062_" gradientUnits="userSpaceOnUse" x1="228.5924" y1="137.5102" x2="142.7715" y2="137.5102">
			<stop  offset="0" style="stop-color:#00B5E3"/>
			<stop  offset="1" style="stop-color:#28388D;stop-opacity:0"/>
		</linearGradient>
		<path style="fill:url(#SVGID_00000096744821373825096380000017515613950120082062_);" d="M208.26,190.77
			c-13.63,13.64-32.47,22.07-53.28,22.07c-41.61,0-75.34-33.73-75.34-75.34c0-41.61,33.73-75.34,75.34-75.34
			c20.83,0,39.68,8.45,53.32,22.11l14.08-14.06c-17.24-17.27-41.07-27.95-67.4-27.95c-52.6,0-95.24,42.64-95.24,95.24
			c0,52.6,42.64,95.24,95.24,95.24c26.3,0,50.12-10.66,67.35-27.91L208.26,190.77z"/>
	</g>
	<g>
		<g>
			
				<linearGradient id="SVGID_00000140719328520995105290000006044199020321742208_" gradientUnits="userSpaceOnUse" x1="283.3854" y1="137.5" x2="160.2448" y2="137.5">
				<stop  offset="0" style="stop-color:#00B5E3"/>
				<stop  offset="1" style="stop-color:#28388D;stop-opacity:0"/>
			</linearGradient>
			<path style="fill:url(#SVGID_00000140719328520995105290000006044199020321742208_);" d="M155.68,267.27
				c-0.01-0.83,0.65-1.51,1.48-1.53l0,0c0.83-0.01,1.51,0.65,1.52,1.48l0,0c0.02,0.82-0.64,1.51-1.47,1.52l0,0
				c-0.01,0-0.02,0-0.02,0l0,0C156.37,268.74,155.7,268.09,155.68,267.27z M147.1,268.53c-0.83-0.05-1.46-0.76-1.41-1.59l0,0
				c0.05-0.83,0.76-1.46,1.59-1.41l0,0c0.82,0.05,1.45,0.76,1.41,1.59l0,0c-0.05,0.79-0.71,1.41-1.5,1.41l0,0
				C147.16,268.53,147.13,268.53,147.1,268.53z M165.68,266.84c-0.08-0.83,0.53-1.56,1.35-1.64l0,0l0,0l0,0
				c0.83-0.07,1.56,0.53,1.63,1.36l0,0c0.08,0.82-0.53,1.55-1.35,1.63l0,0c-0.05,0.01-0.09,0.01-0.14,0.01l0,0
				C166.4,268.2,165.74,267.61,165.68,266.84z M137.05,267.54c-0.82-0.11-1.39-0.87-1.28-1.69l0,0c0.11-0.82,0.87-1.39,1.69-1.28
				l0,0c0.82,0.11,1.39,0.87,1.28,1.69l0,0c-0.1,0.75-0.75,1.3-1.48,1.3l0,0C137.18,267.56,137.12,267.55,137.05,267.54z
				 M175.6,265.64c-0.14-0.82,0.41-1.59,1.22-1.73l0,0c0.82-0.14,1.6,0.41,1.74,1.22l0,0c0.14,0.82-0.41,1.6-1.23,1.74l0,0
				c-0.08,0.01-0.17,0.02-0.25,0.02l0,0C176.35,266.89,175.72,266.37,175.6,265.64z M127.08,265.79c-0.81-0.18-1.32-0.98-1.14-1.78
				l0,0c0.17-0.81,0.97-1.33,1.78-1.15l0,0c0.81,0.17,1.32,0.97,1.15,1.78l0,0c-0.15,0.7-0.78,1.18-1.47,1.18l0,0
				C127.3,265.82,127.2,265.81,127.08,265.79z M185.39,263.69c-0.2-0.81,0.28-1.62,1.09-1.83l0,0c0.8-0.2,1.62,0.29,1.82,1.09l0,0
				c0.2,0.8-0.28,1.62-1.09,1.82l0,0c-0.12,0.03-0.24,0.05-0.36,0.05l0,0C186.18,264.82,185.56,264.36,185.39,263.69z M117.3,263.27
				c-0.79-0.24-1.24-1.07-1-1.87l0,0c0.23-0.79,1.07-1.24,1.86-1.01l0,0c0.8,0.24,1.25,1.08,1.01,1.87l0,0
				c-0.2,0.65-0.79,1.07-1.44,1.07l0,0C117.58,263.33,117.45,263.31,117.3,263.27z M195.01,260.98c-0.26-0.79,0.16-1.64,0.94-1.9
				l0,0c0,0,0,0,0-0.01l0,0c0.79-0.26,1.64,0.16,1.9,0.95l0,0c0.27,0.78-0.15,1.63-0.94,1.9l0,0c-0.16,0.05-0.32,0.08-0.47,0.08l0,0
				C195.81,262,195.22,261.6,195.01,260.98z M107.74,260c-0.78-0.3-1.16-1.17-0.86-1.94l0,0c0.3-0.78,1.16-1.16,1.94-0.86l0,0
				c0.77,0.3,1.15,1.16,0.86,1.94l0,0c-0.23,0.59-0.8,0.96-1.4,0.96l0,0C108.1,260.1,107.9,260.07,107.74,260z M204.4,257.53
				c-0.32-0.77,0.03-1.65,0.79-1.97l0,0c0.77-0.33,1.65,0.03,1.97,0.79l0,0c0.33,0.76-0.03,1.64-0.79,1.97l0,0
				c-0.19,0.08-0.39,0.12-0.59,0.12l0,0C205.2,258.44,204.65,258.1,204.4,257.53z M98.45,256L98.45,256c-0.75-0.36-1.06-1.26-0.7-2
				l0,0c0.35-0.75,1.25-1.07,1.99-0.71l0,0l0,0l0,0c0.75,0.36,1.07,1.25,0.71,2l0,0c-0.26,0.54-0.79,0.85-1.36,0.85l0,0
				C98.89,256.14,98.66,256.1,98.45,256z M213.49,253.36c-0.38-0.74-0.09-1.64,0.64-2.03l0,0c0,0,0,0,0,0.01l0,0
				c0.74-0.39,1.64-0.1,2.03,0.63l0,0c0.38,0.74,0.09,1.64-0.64,2.02V254c-0.22,0.11-0.46,0.16-0.69,0.16l0,0
				C214.3,254.16,213.76,253.87,213.49,253.36z M89.51,251.29L89.51,251.29c-0.72-0.41-0.97-1.33-0.55-2.05l0,0
				c0.41-0.72,1.33-0.96,2.05-0.55l0,0c0.71,0.42,0.96,1.33,0.55,2.05l0,0c-0.28,0.48-0.78,0.75-1.3,0.75l0,0
				C90.01,251.49,89.74,251.43,89.51,251.29z M222.24,248.5c-0.44-0.7-0.23-1.63,0.48-2.07l0,0l0,0l0,0
				c0.7-0.44,1.63-0.22,2.07,0.48l0,0c0.43,0.71,0.22,1.63-0.48,2.07l0,0c-0.25,0.15-0.53,0.23-0.8,0.23l0,0
				C223.01,249.21,222.53,248.95,222.24,248.5z M80.95,245.91L80.95,245.91c-0.68-0.47-0.86-1.4-0.39-2.09l0,0
				c0.47-0.68,1.4-0.86,2.09-0.39l0,0c0.68,0.47,0.86,1.4,0.39,2.09l0,0c-0.29,0.42-0.76,0.65-1.24,0.65l0,0
				C81.51,246.17,81.22,246.09,80.95,245.91z M230.58,242.98c-0.49-0.66-0.35-1.6,0.32-2.09l0,0l0,0l0,0
				c0.66-0.49,1.6-0.35,2.1,0.32l0,0c0.49,0.66,0.34,1.6-0.32,2.09v0.01c-0.27,0.19-0.58,0.29-0.89,0.29l0,0
				C231.33,243.6,230.87,243.38,230.58,242.98z M72.85,239.88c-0.65-0.52-0.75-1.46-0.23-2.1l0,0c0.52-0.65,1.46-0.75,2.11-0.23l0,0
				c0,0,0,0,0-0.01l0,0c0.64,0.52,0.74,1.47,0.23,2.12l0,0c-0.3,0.36-0.74,0.56-1.17,0.56l0,0
				C73.45,240.22,73.12,240.11,72.85,239.88z M238.47,236.85c-0.54-0.63-0.47-1.58,0.16-2.12l0,0c0.63-0.54,1.57-0.47,2.11,0.16l0,0
				c0.55,0.63,0.47,1.57-0.15,2.11l0,0c-0.29,0.25-0.63,0.37-0.98,0.37l0,0C239.2,237.37,238.78,237.19,238.47,236.85z
				 M65.22,233.25L65.22,233.25c-0.61-0.56-0.64-1.51-0.07-2.11l0,0c0.56-0.61,1.51-0.64,2.12-0.07l0,0
				c0.6,0.56,0.63,1.51,0.07,2.12l0,0c-0.3,0.31-0.7,0.47-1.1,0.47l0,0C65.87,233.66,65.49,233.53,65.22,233.25z M245.87,230.12
				c-0.59-0.58-0.59-1.53-0.01-2.12l0,0c0.59-0.59,1.54-0.59,2.13-0.01l0,0c0.58,0.59,0.58,1.54,0,2.13l0,0
				c-0.29,0.29-0.68,0.44-1.06,0.44l0,0C246.55,230.56,246.16,230.41,245.87,230.12z M58.1,226.06L58.1,226.06
				c-0.56-0.61-0.52-1.56,0.1-2.12l0,0c0.61-0.56,1.56-0.51,2.11,0.1l0,0l0,0l0,0c0.56,0.61,0.52,1.56-0.09,2.12l0,0
				c-0.29,0.26-0.65,0.39-1.01,0.39l0,0C58.8,226.55,58.41,226.39,58.1,226.06z M252.74,222.85c-0.63-0.54-0.71-1.48-0.17-2.11l0,0
				l0,0l0,0c0.54-0.63,1.49-0.71,2.12-0.17l0,0c0.63,0.54,0.7,1.48,0.16,2.11v0.01c-0.29,0.34-0.71,0.52-1.14,0.52l0,0
				C253.36,223.21,253.01,223.09,252.74,222.85z M51.57,218.34c-0.52-0.65-0.4-1.59,0.25-2.1l0,0c0.66-0.51,1.6-0.4,2.11,0.25l0,0
				c0.51,0.66,0.39,1.6-0.26,2.11l0,0c-0.27,0.22-0.6,0.32-0.92,0.32l0,0C52.3,218.92,51.87,218.72,51.57,218.34z M259.01,215.08
				c-0.67-0.49-0.82-1.43-0.33-2.1l0,0c0.49-0.67,1.43-0.81,2.1-0.32l0,0c0.67,0.48,0.82,1.42,0.33,2.09l0,0
				c-0.3,0.4-0.75,0.62-1.22,0.62l0,0C259.6,215.37,259.28,215.27,259.01,215.08z M45.64,210.15c-0.46-0.69-0.27-1.63,0.42-2.08l0,0
				c0.69-0.46,1.62-0.28,2.08,0.41l0,0c0.46,0.69,0.27,1.62-0.42,2.08l0,0c-0.25,0.17-0.54,0.25-0.83,0.25l0,0
				C46.41,210.81,45.93,210.58,45.64,210.15z M264.68,206.85c-0.71-0.44-0.93-1.36-0.49-2.07l0,0c0.44-0.7,1.36-0.92,2.06-0.48l0,0
				c0.71,0.43,0.93,1.36,0.49,2.06l0,0c-0.28,0.46-0.77,0.71-1.28,0.71l0,0C265.2,207.07,264.92,207,264.68,206.85z M40.37,201.52
				c-0.41-0.73-0.15-1.64,0.57-2.05l0,0c0.73-0.4,1.64-0.14,2.04,0.58l0,0c0.41,0.72,0.15,1.64-0.57,2.04l0,0
				c-0.23,0.13-0.48,0.19-0.73,0.19l0,0C41.16,202.28,40.64,202.01,40.37,201.52z M269.7,198.21c-0.74-0.38-1.03-1.28-0.65-2.02l0,0
				l0,0l0,0c0.38-0.74,1.28-1.03,2.02-0.65l0,0c0.74,0.38,1.03,1.29,0.65,2.02v0.01c-0.27,0.51-0.8,0.81-1.34,0.81l0,0
				C270.15,198.38,269.92,198.32,269.7,198.21z M35.78,192.5L35.78,192.5c-0.35-0.75-0.02-1.64,0.73-1.99l0,0
				c0.76-0.35,1.65-0.02,1.99,0.73l0,0l0,0l0,0c0.35,0.75,0.02,1.65-0.73,2l0,0c-0.2,0.09-0.42,0.13-0.63,0.13l0,0
				C36.57,193.37,36.03,193.05,35.78,192.5z M274.03,189.21c-0.76-0.32-1.12-1.2-0.8-1.96l0,0c0.32-0.77,1.2-1.12,1.97-0.8l0,0
				c0.76,0.32,1.12,1.2,0.8,1.96l0,0c-0.25,0.57-0.8,0.92-1.39,0.92l0,0C274.42,189.33,274.22,189.29,274.03,189.21z M31.89,183.16
				c-0.29-0.78,0.1-1.64,0.88-1.93l0,0c0.78-0.29,1.64,0.11,1.93,0.88l0,0c0.29,0.78-0.11,1.64-0.89,1.93l0,0
				c-0.17,0.07-0.34,0.1-0.52,0.1l0,0C32.68,184.14,32.12,183.76,31.89,183.16z M277.65,179.91c-0.78-0.26-1.21-1.11-0.94-1.9l0,0
				c0.26-0.79,1.11-1.21,1.89-0.95l0,0c0.79,0.26,1.21,1.11,0.95,1.9l0,0c-0.21,0.63-0.79,1.03-1.42,1.02l0,0
				C277.97,179.98,277.81,179.96,277.65,179.91z M28.74,173.55c-0.23-0.8,0.23-1.63,1.03-1.85l0,0c0.8-0.23,1.63,0.23,1.85,1.03l0,0
				c0.23,0.79-0.23,1.62-1.03,1.85l0,0c-0.13,0.04-0.27,0.06-0.41,0.06l0,0C29.53,174.64,28.93,174.21,28.74,173.55z M280.55,170.34
				c-0.8-0.2-1.29-1.01-1.09-1.81l0,0c0.2-0.81,1.01-1.3,1.81-1.1l0,0c0.81,0.2,1.3,1.01,1.1,1.82l0,0
				c-0.17,0.68-0.79,1.14-1.46,1.14l0,0C280.8,170.39,280.67,170.37,280.55,170.34z M26.35,163.73c-0.17-0.82,0.36-1.61,1.17-1.77
				l0,0c0.81-0.17,1.6,0.36,1.77,1.17l0,0c0.16,0.81-0.36,1.6-1.17,1.77l0,0c-0.11,0.02-0.21,0.03-0.31,0.03l0,0
				C27.12,164.93,26.49,164.44,26.35,163.73z M282.7,160.58c-0.82-0.14-1.37-0.91-1.24-1.73l0,0l0,0l0,0
				c0.14-0.81,0.91-1.37,1.73-1.23l0,0c0.82,0.14,1.37,0.91,1.23,1.73l0,0c-0.12,0.73-0.76,1.25-1.48,1.25l0,0
				C282.86,160.6,282.78,160.59,282.7,160.58z M24.72,153.75c-0.1-0.82,0.49-1.57,1.31-1.68l0,0c0.82-0.1,1.57,0.49,1.67,1.31l0,0
				c0.1,0.82-0.48,1.57-1.3,1.67l0,0c-0.07,0.01-0.13,0.01-0.19,0.01l0,0C25.47,155.06,24.82,154.51,24.72,153.75z M284.08,150.68
				c-0.82-0.07-1.43-0.8-1.36-1.63l0,0c0.07-0.82,0.8-1.43,1.63-1.35l0,0c0.82,0.07,1.43,0.8,1.36,1.62l0,0
				c-0.07,0.78-0.73,1.37-1.49,1.37l0,0C284.17,150.69,284.14,150.69,284.08,150.68z M23.87,143.68c-0.04-0.83,0.6-1.53,1.43-1.57
				l0,0c0.83-0.04,1.53,0.6,1.57,1.43l0,0l0,0l0,0c0.04,0.82-0.6,1.53-1.43,1.57l0,0c-0.02,0-0.05,0-0.07,0l0,0
				C24.57,145.11,23.91,144.48,23.87,143.68z M284.7,140.71c-0.83-0.01-1.49-0.69-1.48-1.52l0,0c0.01-0.83,0.69-1.49,1.52-1.48l0,0
				c0.83,0.01,1.49,0.69,1.48,1.52l0,0c-0.01,0.82-0.68,1.48-1.5,1.48l0,0C284.72,140.71,284.72,140.71,284.7,140.71z M25.24,135.11
				c-0.83-0.02-1.48-0.71-1.45-1.54l0,0c0.02-0.83,0.71-1.48,1.54-1.46l0,0c0.83,0.03,1.48,0.72,1.46,1.55l0,0l0,0l0,0
				c-0.03,0.81-0.7,1.45-1.5,1.45l0,0C25.28,135.11,25.26,135.11,25.24,135.11z M282.97,129.31c-0.05-0.83,0.58-1.54,1.41-1.59l0,0
				c0.82-0.05,1.54,0.58,1.59,1.4l0,0c0.05,0.83-0.58,1.54-1.4,1.6l0,0c-0.04,0-0.07,0-0.1,0l0,0
				C283.68,130.72,283.03,130.11,282.97,129.31z M25.8,125.13c-0.82-0.08-1.42-0.82-1.33-1.65l0,0c0.09-0.82,0.83-1.42,1.65-1.33
				l0,0c0.82,0.09,1.42,0.83,1.33,1.65l0,0c-0.08,0.77-0.73,1.34-1.49,1.34l0,0C25.91,125.14,25.85,125.14,25.8,125.13z
				 M281.99,119.48c-0.12-0.82,0.45-1.57,1.27-1.69l0,0c0.82-0.12,1.58,0.46,1.7,1.28l0,0c0.11,0.82-0.46,1.58-1.28,1.69l0,0
				c-0.07,0.01-0.14,0.02-0.21,0.02l0,0C282.72,120.78,282.08,120.23,281.99,119.48z M27.14,115.23c-0.82-0.15-1.36-0.94-1.21-1.75
				l0,0c0.16-0.81,0.94-1.35,1.75-1.2l0,0c0.82,0.15,1.35,0.93,1.2,1.75l0,0l0,0l0,0c-0.13,0.72-0.76,1.22-1.47,1.22l0,0
				C27.31,115.25,27.22,115.24,27.14,115.23z M280.22,109.76c-0.18-0.8,0.34-1.61,1.14-1.78l0,0c0.81-0.18,1.61,0.33,1.79,1.14l0,0
				c0.18,0.81-0.33,1.61-1.14,1.79l0,0c-0.11,0.02-0.22,0.03-0.32,0.03l0,0C281.01,110.94,280.39,110.46,280.22,109.76z
				 M29.22,105.45c-0.8-0.21-1.28-1.03-1.06-1.83l0,0c0.21-0.8,1.03-1.28,1.83-1.07l0,0c0.8,0.22,1.28,1.04,1.07,1.84l0,0
				c-0.18,0.67-0.79,1.11-1.45,1.11l0,0C29.47,105.5,29.35,105.49,29.22,105.45z M277.72,100.21c-0.24-0.79,0.21-1.63,1-1.87l0,0
				c0.8-0.25,1.63,0.2,1.87,1l0,0c0.24,0.79-0.2,1.63-1,1.87l0,0c-0.14,0.04-0.29,0.06-0.43,0.06l0,0
				C278.51,101.27,277.92,100.86,277.72,100.21z M32.05,95.87c-0.78-0.28-1.19-1.13-0.91-1.91l0,0c0.27-0.79,1.13-1.2,1.91-0.92l0,0
				c0.78,0.27,1.19,1.13,0.92,1.91l0,0c-0.22,0.62-0.8,1-1.42,1l0,0C32.39,95.95,32.22,95.93,32.05,95.87z M274.49,90.86
				c-0.31-0.77,0.08-1.64,0.85-1.94l0,0c0.77-0.3,1.64,0.08,1.94,0.85l0,0c0.3,0.77-0.08,1.64-0.85,1.95l0,0
				c-0.18,0.07-0.37,0.1-0.55,0.1l0,0C275.28,91.82,274.72,91.46,274.49,90.86z M35.62,86.54c-0.76-0.33-1.1-1.22-0.76-1.97l0,0
				c0.33-0.76,1.21-1.11,1.97-0.77l0,0c0.76,0.33,1.1,1.22,0.77,1.98l0,0c-0.25,0.56-0.8,0.89-1.37,0.89l0,0
				C36.01,86.67,35.81,86.63,35.62,86.54z M270.53,81.8c-0.36-0.74-0.04-1.64,0.7-2l0,0c0.75-0.36,1.65-0.05,2,0.7l0,0
				c0.37,0.74,0.05,1.64-0.69,2l0,0c-0.21,0.1-0.44,0.15-0.66,0.15l0,0C271.33,82.65,270.8,82.34,270.53,81.8z M39.89,77.52
				c-0.73-0.39-1-1.3-0.61-2.03l0,0c0.39-0.73,1.3-1.01,2.03-0.62l0,0c0.73,0.4,1,1.31,0.61,2.04l0,0c-0.27,0.5-0.79,0.79-1.32,0.79
				l0,0C40.37,77.7,40.12,77.64,39.89,77.52z M265.89,73.07c-0.41-0.71-0.17-1.63,0.54-2.05l0,0c0.72-0.42,1.64-0.17,2.06,0.54l0,0
				c0.41,0.72,0.17,1.64-0.55,2.05l0,0c-0.23,0.14-0.49,0.21-0.75,0.21l0,0C266.67,73.82,266.17,73.55,265.89,73.07z M44.85,68.85
				c-0.69-0.45-0.9-1.38-0.45-2.08l0,0c0.45-0.69,1.38-0.9,2.07-0.45l0,0c0.7,0.45,0.91,1.38,0.46,2.07l0,0
				c-0.29,0.45-0.77,0.69-1.27,0.69l0,0C45.39,69.08,45.1,69.01,44.85,68.85z M260.6,64.73c-0.47-0.68-0.3-1.62,0.39-2.09l0,0
				c0.68-0.47,1.61-0.3,2.08,0.39l0,0c0.47,0.68,0.3,1.61-0.38,2.08l0,0c-0.26,0.18-0.56,0.27-0.85,0.27l0,0
				C261.35,65.38,260.89,65.15,260.6,64.73z M50.47,60.58c-0.66-0.5-0.79-1.44-0.29-2.1l0,0c0.5-0.66,1.44-0.79,2.1-0.29l0,0
				c0.66,0.5,0.79,1.44,0.29,2.1l0,0c-0.29,0.39-0.74,0.59-1.2,0.59l0,0C51.06,60.88,50.74,60.79,50.47,60.58z M254.68,56.82
				c-0.52-0.65-0.42-1.59,0.22-2.11l0,0c0.65-0.52,1.59-0.43,2.11,0.22l0,0c0.52,0.64,0.42,1.59-0.22,2.11l0,0
				c-0.28,0.22-0.61,0.33-0.94,0.33l0,0C255.4,57.37,254.97,57.18,254.68,56.82z M56.72,52.77c-0.62-0.55-0.68-1.5-0.13-2.12l0,0
				c0.54-0.62,1.49-0.68,2.11-0.13l0,0c0.62,0.55,0.68,1.5,0.13,2.12l0,0c-0.29,0.34-0.71,0.51-1.12,0.51l0,0
				C57.35,53.15,56.99,53.02,56.72,52.77z M248.16,49.38c-0.57-0.6-0.54-1.55,0.06-2.12l0,0c0.6-0.57,1.55-0.54,2.12,0.06l0,0
				c0.57,0.6,0.54,1.55-0.06,2.12l0,0c-0.29,0.28-0.66,0.41-1.03,0.41l0,0C248.85,49.85,248.45,49.7,248.16,49.38z M63.53,45.46
				c-0.57-0.6-0.56-1.55,0.04-2.12l0,0c0.59-0.58,1.54-0.57,2.12,0.03l0,0c0.57,0.59,0.56,1.54-0.04,2.12l0,0
				c-0.29,0.28-0.66,0.42-1.04,0.42l0,0C64.22,45.91,63.82,45.76,63.53,45.46z M241.1,42.47c-0.61-0.55-0.66-1.5-0.1-2.12l0,0
				c0.55-0.61,1.5-0.66,2.12-0.1l0,0c0.61,0.56,0.65,1.51,0.1,2.12l0,0c-0.3,0.33-0.7,0.49-1.11,0.49l0,0
				C241.76,42.86,241.39,42.73,241.1,42.47z M70.89,38.69c-0.53-0.64-0.44-1.58,0.19-2.11l0,0c0.64-0.53,1.59-0.45,2.12,0.19l0,0
				c0.52,0.64,0.44,1.58-0.2,2.11l0,0c-0.28,0.24-0.62,0.35-0.96,0.35l0,0C71.6,39.23,71.18,39.05,70.89,38.69z M233.53,36.12
				c-0.65-0.51-0.77-1.45-0.26-2.1l0,0c0.5-0.66,1.45-0.78,2.1-0.27l0,0c0.65,0.51,0.77,1.45,0.27,2.11l0,0
				c-0.3,0.38-0.74,0.58-1.19,0.58l0,0C234.13,36.44,233.81,36.33,233.53,36.12z M78.74,32.5c-0.48-0.67-0.32-1.61,0.36-2.09l0,0
				c0.68-0.48,1.61-0.32,2.09,0.35l0,0c0.48,0.68,0.32,1.62-0.35,2.1l0,0c-0.27,0.18-0.57,0.27-0.87,0.27l0,0
				C79.49,33.13,79.03,32.91,78.74,32.5z M225.51,30.37L225.51,30.37L225.51,30.37c-0.69-0.46-0.88-1.38-0.42-2.08l0,0
				c0.45-0.69,1.38-0.88,2.07-0.42l0,0c0.7,0.45,0.89,1.38,0.43,2.07l0,0c-0.29,0.44-0.77,0.68-1.25,0.68l0,0
				C226.05,30.62,225.76,30.54,225.51,30.37z M87.05,26.93c-0.42-0.71-0.19-1.63,0.52-2.05l0,0c0.71-0.43,1.63-0.2,2.05,0.51l0,0
				c0.43,0.71,0.2,1.63-0.51,2.06l0,0c-0.24,0.14-0.51,0.21-0.77,0.21l0,0C87.82,27.66,87.32,27.4,87.05,26.93z M217.06,25.26
				c-0.73-0.41-0.99-1.32-0.59-2.04l0,0c0.4-0.73,1.31-0.99,2.04-0.59l0,0c0.72,0.4,0.99,1.32,0.58,2.04l0,0
				c-0.27,0.49-0.78,0.77-1.31,0.77l0,0C217.53,25.44,217.3,25.38,217.06,25.26z M95.76,22.02c-0.37-0.74-0.07-1.64,0.68-2.01l0,0
				c0.74-0.37,1.64-0.07,2.01,0.67l0,0c0.37,0.74,0.07,1.65-0.67,2.02l0,0c-0.22,0.1-0.45,0.15-0.67,0.15l0,0
				C96.55,22.85,96.03,22.55,95.76,22.02z M208.24,20.81c-0.75-0.35-1.08-1.24-0.74-1.99l0,0c0.34-0.75,1.23-1.09,1.99-0.74l0,0
				c0.75,0.34,1.08,1.23,0.74,1.99l0,0c-0.25,0.55-0.8,0.87-1.37,0.87l0,0C208.66,20.94,208.45,20.9,208.24,20.81z M104.82,17.8
				c-0.31-0.77,0.06-1.64,0.83-1.95l0,0c0.77-0.32,1.64,0.05,1.95,0.82l0,0c0.31,0.77-0.06,1.64-0.83,1.96l0,0
				c-0.18,0.07-0.37,0.11-0.56,0.11l0,0C105.62,18.74,105.06,18.38,104.82,17.8z M199.12,17.05L199.12,17.05L199.12,17.05
				c-0.77-0.28-1.17-1.14-0.89-1.92l0,0c0.29-0.78,1.15-1.18,1.93-0.89l0,0c0.77,0.28,1.17,1.14,0.89,1.92l0,0
				c-0.23,0.61-0.8,0.99-1.41,0.99l0,0C199.47,17.15,199.28,17.12,199.12,17.05z M114.2,14.29c-0.25-0.79,0.19-1.63,0.98-1.88h-0.01
				c0.79-0.25,1.64,0.18,1.89,0.97l0,0c0.25,0.79-0.19,1.63-0.97,1.88l0,0c-0.16,0.05-0.31,0.08-0.46,0.08l0,0
				C114.99,15.34,114.39,14.93,114.2,14.29z M189.72,14.02C189.72,14.02,189.72,14.02,189.72,14.02L189.72,14.02
				c-0.79-0.23-1.26-1.05-1.03-1.85l0,0c0.22-0.8,1.05-1.27,1.85-1.04l0,0c0.79,0.22,1.26,1.05,1.03,1.85l0,0
				c-0.18,0.66-0.78,1.09-1.44,1.09l0,0C189.99,14.07,189.85,14.05,189.72,14.02z M123.8,11.52c-0.19-0.81,0.32-1.61,1.12-1.8l0,0
				c0.81-0.19,1.62,0.31,1.8,1.12l0,0c0.19,0.8-0.31,1.61-1.11,1.8l0,0c-0.12,0.03-0.23,0.04-0.35,0.04l0,0
				C124.57,12.68,123.97,12.21,123.8,11.52z M180.12,11.72c-0.81-0.16-1.34-0.95-1.18-1.76l0,0c0.16-0.82,0.95-1.35,1.76-1.18l0,0
				c0.82,0.16,1.34,0.95,1.18,1.76l0,0c-0.14,0.71-0.77,1.21-1.47,1.21l0,0C180.3,11.75,180.22,11.74,180.12,11.72z M133.58,9.5
				c-0.12-0.81,0.44-1.58,1.26-1.71l0,0c0.82-0.12,1.58,0.44,1.71,1.26l0,0c0.13,0.82-0.44,1.58-1.26,1.71l0,0
				c-0.07,0.01-0.15,0.02-0.22,0.02l0,0C134.35,10.78,133.7,10.25,133.58,9.5z M170.35,10.17c-0.82-0.1-1.41-0.85-1.31-1.67l0,0
				c0.1-0.82,0.85-1.41,1.67-1.31l0,0c0.82,0.1,1.41,0.84,1.31,1.67l0,0c-0.09,0.76-0.74,1.32-1.49,1.32l0,0
				C170.47,10.18,170.41,10.18,170.35,10.17z M143.51,8.25c-0.06-0.83,0.55-1.55,1.38-1.61l0,0c0.83-0.06,1.55,0.56,1.61,1.38l0,0
				c0.06,0.83-0.56,1.55-1.38,1.61l0,0c-0.04,0.01-0.08,0.01-0.12,0.01l0,0C144.22,9.64,143.56,9.04,143.51,8.25z M160.51,9.38
				c-0.83-0.04-1.47-0.74-1.44-1.57l0,0c0.03-0.82,0.73-1.47,1.56-1.43l0,0c0.83,0.03,1.47,0.73,1.44,1.56l0,0
				c-0.04,0.81-0.7,1.44-1.5,1.44l0,0C160.55,9.38,160.53,9.38,160.51,9.38z M153.49,7.76c0-0.83,0.67-1.5,1.5-1.5l0,0
				c0.83,0,1.5,0.67,1.5,1.5l0,0c0,0.83-0.67,1.5-1.5,1.5l0,0C154.15,9.26,153.49,8.59,153.49,7.76z"/>
		</g>
	</g>
</g>
</svg>
