<?xml version="1.0" encoding="utf-8"?>
<!-- Generator: Adobe Illustrator 27.3.1, SVG Export Plug-In . SVG Version: 6.00 Build 0)  -->
<svg version="1.1" id="Layer_1" xmlns="http://www.w3.org/2000/svg" xmlns:xlink="http://www.w3.org/1999/xlink" x="0px" y="0px"
	 viewBox="0 0 478.28 483" style="enable-background:new 0 0 478.28 483;" xml:space="preserve">
<style type="text/css">
	.st0{fill:url(#SVGID_1_);}
	.st1{fill:url(#SVGID_00000045616083806523104920000008556324576452937887_);}
	.st2{fill:url(#SVGID_00000005955202155088483780000015941739382174239417_);}
	.st3{fill:url(#SVGID_00000123436655686725394970000001092237574411122585_);}
	.st4{fill:url(#SVGID_00000146475728608927899690000017580073540580698039_);}
	.st5{fill:url(#SVGID_00000180346573746805911800000001411847529490402965_);}
	.st6{fill:url(#SVGID_00000159436969358415140320000003954310091663352765_);}
	.st7{fill:url(#SVGID_00000168797445199039679420000018038155917418358421_);}
</style>
<g>
	<g>
		<linearGradient id="SVGID_1_" gradientUnits="userSpaceOnUse" x1="470.7402" y1="152.6162" x2="251.4253" y2="152.6162">
			<stop  offset="0" style="stop-color:#44B6E8"/>
			<stop  offset="1" style="stop-color:#28388D;stop-opacity:0"/>
		</linearGradient>
		<path class="st0" d="M459.65,224.38h10.12c-3.8-55.45-27.05-105.54-62.98-143.52L399.65,88
			C433.76,124.14,455.88,171.72,459.65,224.38z"/>
	</g>
	<g>
		
			<linearGradient id="SVGID_00000043431452226920357550000011188242918645104789_" gradientUnits="userSpaceOnUse" x1="470.7401" y1="40.9352" x2="251.4249" y2="40.9352">
			<stop  offset="0" style="stop-color:#44B6E8"/>
			<stop  offset="1" style="stop-color:#28388D;stop-opacity:0"/>
		</linearGradient>
		<path style="fill:url(#SVGID_00000043431452226920357550000011188242918645104789_);" d="M384.58,73.46l7.15-7.15
			c-38.53-34.03-88.42-55.47-143.26-57.9v10.11C300.52,20.93,347.9,41.25,384.58,73.46z"/>
	</g>
	<g>
		
			<linearGradient id="SVGID_00000157995473874955854520000014750648989751645829_" gradientUnits="userSpaceOnUse" x1="470.7401" y1="152.6162" x2="251.4256" y2="152.6162">
			<stop  offset="0" style="stop-color:#44B6E8"/>
			<stop  offset="1" style="stop-color:#28388D;stop-opacity:0"/>
		</linearGradient>
		<path style="fill:url(#SVGID_00000157995473874955854520000014750648989751645829_);" d="M76.35,88l-7.15-7.15
			c-35.93,37.98-59.18,88.08-62.98,143.52h10.12C20.12,171.72,42.24,124.14,76.35,88z"/>
	</g>
	<g>
		
			<linearGradient id="SVGID_00000178195946808902929480000009254488357342580130_" gradientUnits="userSpaceOnUse" x1="470.7398" y1="40.9352" x2="251.4246" y2="40.9352">
			<stop  offset="0" style="stop-color:#44B6E8"/>
			<stop  offset="1" style="stop-color:#28388D;stop-opacity:0"/>
		</linearGradient>
		<path style="fill:url(#SVGID_00000178195946808902929480000009254488357342580130_);" d="M227.53,18.51V8.41
			c-54.84,2.43-104.74,23.88-143.26,57.9l7.15,7.15C128.1,41.25,175.48,20.93,227.53,18.51z"/>
	</g>
	<g>
		
			<linearGradient id="SVGID_00000124878789187230528920000004289439724645147827_" gradientUnits="userSpaceOnUse" x1="470.7402" y1="437.3706" x2="251.4255" y2="437.3706">
			<stop  offset="0" style="stop-color:#44B6E8"/>
			<stop  offset="1" style="stop-color:#28388D;stop-opacity:0"/>
		</linearGradient>
		<path style="fill:url(#SVGID_00000124878789187230528920000004289439724645147827_);" d="M248.47,462.49v10.11
			c57.69-2.56,109.91-26.15,149.18-63.3l-7.15-7.15C353.07,437.48,303.37,459.94,248.47,462.49z"/>
	</g>
	<g>
		
			<linearGradient id="SVGID_00000140699730560914503520000004427077444436616639_" gradientUnits="userSpaceOnUse" x1="470.74" y1="319.7719" x2="251.4254" y2="319.7719">
			<stop  offset="0" style="stop-color:#44B6E8"/>
			<stop  offset="1" style="stop-color:#28388D;stop-opacity:0"/>
		</linearGradient>
		<path style="fill:url(#SVGID_00000140699730560914503520000004427077444436616639_);" d="M15.82,245.31H5.72
			c1.16,57.07,22.89,109.07,58.09,148.92l7.15-7.15C37.59,349.07,16.97,299.59,15.82,245.31z"/>
	</g>
	<g>
		
			<linearGradient id="SVGID_00000150809684207541330930000010466741835001232305_" gradientUnits="userSpaceOnUse" x1="470.7409" y1="437.3706" x2="251.4262" y2="437.3706">
			<stop  offset="0" style="stop-color:#44B6E8"/>
			<stop  offset="1" style="stop-color:#28388D;stop-opacity:0"/>
		</linearGradient>
		<path style="fill:url(#SVGID_00000150809684207541330930000010466741835001232305_);" d="M85.5,402.15l-7.15,7.15
			c39.27,37.15,91.49,60.74,149.18,63.3v-10.11C172.63,459.94,122.93,437.48,85.5,402.15z"/>
	</g>
	<g>
		
			<linearGradient id="SVGID_00000116949567406389471570000004146857184729809838_" gradientUnits="userSpaceOnUse" x1="470.7401" y1="319.7718" x2="251.4255" y2="319.7718">
			<stop  offset="0" style="stop-color:#44B6E8"/>
			<stop  offset="1" style="stop-color:#28388D;stop-opacity:0"/>
		</linearGradient>
		<path style="fill:url(#SVGID_00000116949567406389471570000004146857184729809838_);" d="M460.18,245.31
			c-1.15,54.28-21.77,103.76-55.14,141.77l7.15,7.15c35.19-39.85,56.93-91.85,58.09-148.92H460.18z"/>
	</g>
</g>
</svg>
