<?xml version="1.0" encoding="utf-8"?>
<!-- Generator: Adobe Illustrator 24.3.0, SVG Export Plug-In . SVG Version: 6.00 Build 0)  -->
<svg version="1.1" id="Layer_1" xmlns="http://www.w3.org/2000/svg" xmlns:xlink="http://www.w3.org/1999/xlink" x="0px" y="0px"
	 viewBox="0 0 205.4 214.4" style="enable-background:new 0 0 205.4 214.4;" xml:space="preserve">
<style type="text/css">
	.st0{clip-path:url(#SVGID_2_);}
	.st1{fill:url(#SVGID_3_);}
	.st2{fill:url(#SVGID_4_);}
	.st3{fill:url(#SVGID_5_);}
	.st4{fill:url(#SVGID_6_);}
	.st5{fill:url(#SVGID_7_);}
	.st6{fill:url(#SVGID_8_);}
	.st7{fill:url(#SVGID_9_);}
	.st8{fill:url(#SVGID_10_);}
	.st9{fill:url(#SVGID_11_);}
	.st10{fill:url(#SVGID_12_);}
	.st11{fill:url(#SVGID_13_);}
	.st12{fill:url(#SVGID_14_);}
	.st13{fill:url(#SVGID_15_);}
	.st14{fill:url(#SVGID_16_);}
	.st15{fill:url(#SVGID_17_);}
	.st16{fill:url(#SVGID_18_);}
	.st17{fill:url(#SVGID_19_);}
	.st18{fill:url(#SVGID_20_);}
	.st19{fill:url(#SVGID_21_);}
	.st20{fill:url(#SVGID_22_);}
	.st21{fill:url(#SVGID_23_);}
	.st22{fill:url(#SVGID_24_);}
	.st23{fill:url(#SVGID_25_);}
	.st24{fill:url(#SVGID_26_);}
	.st25{fill:url(#SVGID_27_);}
	.st26{fill:url(#SVGID_28_);}
	.st27{fill:url(#SVGID_29_);}
	.st28{fill:url(#SVGID_30_);}
	.st29{fill:url(#SVGID_31_);}
	.st30{fill:url(#SVGID_32_);}
	.st31{fill:url(#SVGID_33_);}
	.st32{fill:url(#SVGID_34_);}
	.st33{fill:url(#SVGID_35_);}
	.st34{fill:url(#SVGID_36_);}
	.st35{fill:url(#SVGID_37_);}
	.st36{fill:url(#SVGID_38_);}
	.st37{fill:url(#SVGID_39_);}
	.st38{fill:url(#SVGID_40_);}
	.st39{fill:url(#SVGID_41_);}
	.st40{fill:url(#SVGID_42_);}
	.st41{fill:url(#SVGID_43_);}
	.st42{fill:url(#SVGID_44_);}
	.st43{fill:url(#SVGID_45_);}
	.st44{fill:url(#SVGID_46_);}
	.st45{fill:url(#SVGID_47_);}
	.st46{fill:url(#SVGID_48_);}
	.st47{fill:url(#SVGID_49_);}
	.st48{fill:url(#SVGID_50_);}
	.st49{fill:url(#SVGID_51_);}
	.st50{fill:url(#SVGID_52_);}
	.st51{fill:url(#SVGID_53_);}
	.st52{fill:url(#SVGID_54_);}
	.st53{fill:url(#SVGID_55_);}
	.st54{fill:url(#SVGID_56_);}
	.st55{fill:url(#SVGID_57_);}
	.st56{fill:#07B9FD;}
	.st57{fill:#020A41;}
</style>
<g>
	<defs>
		<rect id="SVGID_1_" width="208.6" height="214.4"/>
	</defs>
	<clipPath id="SVGID_2_">
		<use xlink:href="#SVGID_1_"  style="overflow:visible;"/>
	</clipPath>
	<g class="st0">
		<g>
			<linearGradient id="SVGID_3_" gradientUnits="userSpaceOnUse" x1="82.9238" y1="113.3801" x2="1.5269" y2="113.3801">
				<stop  offset="0" style="stop-color:#07B9FD"/>
				<stop  offset="1" style="stop-color:#002898;stop-opacity:0"/>
			</linearGradient>
			<path class="st1" d="M2.5,46.1c-45.3,0-82,30.1-82,67.3s36.7,67.3,82,67.3s82-30.1,82-67.3S47.8,46.1,2.5,46.1z M2.5,172.1
				c-39.5,0-71.6-26.3-71.6-58.7c0-32.4,32-58.7,71.6-58.7s71.6,26.3,71.6,58.7C74.1,145.8,42,172.1,2.5,172.1z"/>
		</g>
		<linearGradient id="SVGID_4_" gradientUnits="userSpaceOnUse" x1="177.6176" y1="97.2703" x2="91.4592" y2="97.2703">
			<stop  offset="0" style="stop-color:#07B9FD"/>
			<stop  offset="1" style="stop-color:#002898;stop-opacity:0"/>
		</linearGradient>
		<path class="st2" d="M178,101.9c-0.4,0-0.7,0.2-0.8,0.5H142l12.7-10.4h20.1c0.1,0.3,0.4,0.5,0.8,0.5c0.5,0,0.8-0.3,0.8-0.7
			c0-0.4-0.4-0.7-0.8-0.7c-0.4,0-0.7,0.2-0.8,0.5h-20.3l-13.1,10.7h-19.3l-13.5-11.1H74.8v0.3h33.6l13.5,11.1h55.3
			c0.1,0.3,0.4,0.5,0.8,0.5c0.5,0,0.8-0.3,0.8-0.7C178.8,102.2,178.4,101.9,178,101.9z"/>
		<linearGradient id="SVGID_5_" gradientUnits="userSpaceOnUse" x1="177.0447" y1="128.3821" x2="90.2586" y2="128.3821">
			<stop  offset="0" style="stop-color:#07B9FD"/>
			<stop  offset="1" style="stop-color:#002898;stop-opacity:0"/>
		</linearGradient>
		<path class="st3" d="M178,122.3c-0.4,0-0.7,0.2-0.8,0.5h-55.3L108.4,134H74.8v0.3h33.7l13.5-11.1h19.3l13.1,10.7h15.9
			c0.1,0.3,0.4,0.5,0.8,0.5c0.5,0,0.8-0.3,0.8-0.7c0-0.4-0.4-0.7-0.8-0.7c-0.4,0-0.7,0.2-0.8,0.5h-15.7L142,123.2h35.2
			c0.1,0.3,0.4,0.5,0.8,0.5c0.5,0,0.8-0.3,0.8-0.7C178.8,122.6,178.4,122.3,178,122.3z"/>
		<g>
			<g>
				<linearGradient id="SVGID_6_" gradientUnits="userSpaceOnUse" x1="10.5448" y1="18.8913" x2="124.5886" y2="18.8913">
					<stop  offset="0" style="stop-color:#00CDFD"/>
					<stop  offset="1" style="stop-color:#002898;stop-opacity:0"/>
				</linearGradient>
				<path class="st4" d="M1.7,6.9L1.6,30.7c-0.5,0-1,0-1.5,0c-2.3,0-4.6,0.1-6.8,0.2L-9.8,7.5C-6,7.2-2.1,7,1.7,6.9 M2.9,5.9
					c-4.7,0.1-9.4,0.3-14,0.8l3.3,25.2c2.6-0.2,5.3-0.3,7.9-0.3c0.9,0,1.8,0,2.7,0L2.9,5.9L2.9,5.9z"/>
			</g>
			<g>
				<linearGradient id="SVGID_7_" gradientUnits="userSpaceOnUse" x1="-37.6727" y1="21.9037" x2="-18.0842" y2="21.9037">
					<stop  offset="0" style="stop-color:#00CDFD"/>
					<stop  offset="1" style="stop-color:#002898;stop-opacity:0"/>
				</linearGradient>
				<path class="st5" d="M-25.5,9.9l6,22.4c-2.7,0.4-5.3,1-7.9,1.6l-8.8-21.4C-32.7,11.5-29.1,10.6-25.5,9.9 M-24.6,8.7
					c-4.4,0.9-8.8,2-13.1,3.2l9.5,23.2c3.3-0.8,6.7-1.5,10.1-2L-24.6,8.7L-24.6,8.7z"/>
			</g>
			<g>
				<linearGradient id="SVGID_8_" gradientUnits="userSpaceOnUse" x1="-62.0591" y1="29.0538" x2="-37.9331" y2="29.0538">
					<stop  offset="0" style="stop-color:#00CDFD"/>
					<stop  offset="1" style="stop-color:#002898;stop-opacity:0"/>
				</linearGradient>
				<path class="st6" d="M-50.8,17.6l11.2,19.9c-2.5,0.9-4.9,1.9-7.3,3l-13.5-18.4C-57.3,20.5-54.1,19-50.8,17.6 M-50.2,16.3
					c-4.1,1.6-8,3.5-11.8,5.5l14.7,20.1c3-1.4,6.2-2.7,9.4-3.8L-50.2,16.3L-50.2,16.3z"/>
			</g>
			<g>
				<linearGradient id="SVGID_9_" gradientUnits="userSpaceOnUse" x1="-83.15" y1="40.0168" x2="-56.1759" y2="40.0168">
					<stop  offset="0" style="stop-color:#00CDFD"/>
					<stop  offset="1" style="stop-color:#002898;stop-opacity:0"/>
				</linearGradient>
				<path class="st7" d="M-73.3,29.6l15.4,16.6c-2.2,1.3-4.4,2.7-6.5,4.2l-17.1-14.8C-78.9,33.5-76.1,31.5-73.3,29.6 M-73.1,28.2
					c-3.5,2.3-6.9,4.8-10.1,7.4l18.7,16.2c2.6-1.9,5.4-3.7,8.2-5.4L-73.1,28.2L-73.1,28.2z"/>
			</g>
			<g>
				<linearGradient id="SVGID_10_" gradientUnits="userSpaceOnUse" x1="-100.0155" y1="54.2289" x2="-71.9336" y2="54.2289">
					<stop  offset="0" style="stop-color:#00CDFD"/>
					<stop  offset="1" style="stop-color:#002898;stop-opacity:0"/>
				</linearGradient>
				<path class="st8" d="M-92,45.2L-73.7,58c-1.8,1.7-3.6,3.5-5.3,5.3l-19.4-10.8C-96.4,50-94.2,47.5-92,45.2 M-92.2,43.8
					c-2.8,2.9-5.4,5.9-7.9,8.9l21.4,11.9c2.1-2.3,4.3-4.6,6.7-6.7L-92.2,43.8L-92.2,43.8z"/>
			</g>
			<g>
				<linearGradient id="SVGID_11_" gradientUnits="userSpaceOnUse" x1="-111.928" y1="71.0469" x2="-84.4473" y2="71.0469">
					<stop  offset="0" style="stop-color:#00CDFD"/>
					<stop  offset="1" style="stop-color:#002898;stop-opacity:0"/>
				</linearGradient>
				<path class="st9" d="M-106.1,63.6l20,8.7c-1.4,2-2.6,4.1-3.8,6.2l-20.5-6.7C-109.1,69-107.7,66.3-106.1,63.6 M-106.6,62.3
					c-2,3.3-3.8,6.6-5.3,10.1l22.7,7.4c1.4-2.7,3-5.3,4.8-7.8L-106.6,62.3L-106.6,62.3z"/>
			</g>
			<g>
				<linearGradient id="SVGID_12_" gradientUnits="userSpaceOnUse" x1="-118.3576" y1="89.6947" x2="-93.0211" y2="89.6947">
					<stop  offset="0" style="stop-color:#00CDFD"/>
					<stop  offset="1" style="stop-color:#002898;stop-opacity:0"/>
				</linearGradient>
				<path class="st10" d="M-115,84l20.4,4.7c-0.8,2.2-1.5,4.5-2.1,6.7l-20.4-2.7C-116.5,89.8-115.8,86.9-115,84 M-115.9,82.8
					c-1.1,3.5-1.9,7.1-2.5,10.7l22.7,3c0.7-2.9,1.6-5.7,2.7-8.5L-115.9,82.8L-115.9,82.8z"/>
			</g>
			<g>
				<linearGradient id="SVGID_13_" gradientUnits="userSpaceOnUse" x1="-119.4426" y1="109.7644" x2="-97.1894" y2="109.7644">
					<stop  offset="0" style="stop-color:#00CDFD"/>
					<stop  offset="1" style="stop-color:#002898;stop-opacity:0"/>
				</linearGradient>
				<path class="st11" d="M-118.2,105.4l19.8,0.9l-0.2,3.5l0,0l0,0l0,3.5l-19.2,0.8c-0.1-1.4-0.2-2.9-0.3-4.4L-118.2,105.4
					 M-119.4,104.4l0,5.4c0.1,1.8,0.2,3.6,0.3,5.4l21.6-0.9l0-4.5l0.3-4.4L-119.4,104.4L-119.4,104.4z"/>
			</g>
			<g>
				<linearGradient id="SVGID_14_" gradientUnits="userSpaceOnUse" x1="-117.3964" y1="129.7512" x2="-94.6588" y2="129.7512">
					<stop  offset="0" style="stop-color:#00CDFD"/>
					<stop  offset="1" style="stop-color:#002898;stop-opacity:0"/>
				</linearGradient>
				<path class="st12" d="M-97.7,124.3c0.4,2.3,1,4.7,1.6,7l-17.4,3.9c-1-2.8-1.8-5.6-2.5-8.5L-97.7,124.3 M-96.7,123.1l-20.7,2.8
					c0.8,3.5,1.8,7,3.1,10.5l19.6-4.5C-95.5,129-96.2,126.1-96.7,123.1L-96.7,123.1z"/>
			</g>
			<g>
				<linearGradient id="SVGID_15_" gradientUnits="userSpaceOnUse" x1="-109.8708" y1="148.3141" x2="-87.0761" y2="148.3141">
					<stop  offset="0" style="stop-color:#00CDFD"/>
					<stop  offset="1" style="stop-color:#002898;stop-opacity:0"/>
				</linearGradient>
				<path class="st13" d="M-92.1,141.8c1.1,2.3,2.2,4.5,3.5,6.5l-15,6.5c-1.7-2.6-3.3-5.2-4.6-7.8L-92.1,141.8 M-91.4,140.5l-18.4,6
					c1.7,3.3,3.6,6.5,5.7,9.7l17.1-7.4C-88.7,146-90.2,143.3-91.4,140.5L-91.4,140.5z"/>
			</g>
			<g>
				<linearGradient id="SVGID_16_" gradientUnits="userSpaceOnUse" x1="-97.2358" y1="165.0874" x2="-75.1031" y2="165.0874">
					<stop  offset="0" style="stop-color:#00CDFD"/>
					<stop  offset="1" style="stop-color:#002898;stop-opacity:0"/>
				</linearGradient>
				<path class="st14" d="M-81.9,157.9c1.6,2,3.3,3.9,5.2,5.8l-12.3,8.6c-2.3-2.2-4.4-4.4-6.5-6.8L-81.9,157.9 M-81.6,156.5
					l-15.6,8.7c2.5,2.9,5.2,5.7,8,8.4l14.1-9.8C-77.4,161.5-79.6,159.1-81.6,156.5L-81.6,156.5z"/>
			</g>
			<g>
				<linearGradient id="SVGID_17_" gradientUnits="userSpaceOnUse" x1="-80.1446" y1="179.307" x2="-59.3334" y2="179.307">
					<stop  offset="0" style="stop-color:#00CDFD"/>
					<stop  offset="1" style="stop-color:#002898;stop-opacity:0"/>
				</linearGradient>
				<path class="st15" d="M-67.6,171.9c2,1.6,4.3,3.2,6.6,4.7l-9.4,10.1c-2.7-1.7-5.4-3.5-8-5.5L-67.6,171.9 M-67.7,170.5
					l-12.5,10.8c3.2,2.4,6.5,4.7,10,6.8l10.8-11.7C-62.2,174.6-65,172.6-67.7,170.5L-67.7,170.5z"/>
			</g>
			<g>
				<linearGradient id="SVGID_18_" gradientUnits="userSpaceOnUse" x1="-59.3822" y1="190.3104" x2="-40.5386" y2="190.3104">
					<stop  offset="0" style="stop-color:#00CDFD"/>
					<stop  offset="1" style="stop-color:#002898;stop-opacity:0"/>
				</linearGradient>
				<path class="st16" d="M-49.9,183c2.5,1.2,5.1,2.4,7.7,3.4l-6.4,11.2c-3.1-1.2-6.2-2.5-9.2-4L-49.9,183 M-50.3,181.7l-9.1,12.4
					c3.7,1.8,7.5,3.5,11.5,4.9l7.4-13C-43.9,184.7-47.1,183.2-50.3,181.7L-50.3,181.7z"/>
			</g>
			<g>
				<linearGradient id="SVGID_19_" gradientUnits="userSpaceOnUse" x1="-35.8425" y1="197.5517" x2="-19.6331" y2="197.5517">
					<stop  offset="0" style="stop-color:#00CDFD"/>
					<stop  offset="1" style="stop-color:#002898;stop-opacity:0"/>
				</linearGradient>
				<path class="st17" d="M-29.5,190.6c2.8,0.7,5.6,1.4,8.5,2l-3.2,11.9c-3.4-0.6-6.8-1.4-10-2.3L-29.5,190.6 M-30.3,189.4
					l-5.6,13.5c4.1,1.1,8.3,2.1,12.5,2.8l3.7-13.8C-23.2,191.2-26.8,190.4-30.3,189.4L-30.3,189.4z"/>
			</g>
			<g>
				<linearGradient id="SVGID_20_" gradientUnits="userSpaceOnUse" x1="10.5448" y1="200.677" x2="124.5891" y2="200.677">
					<stop  offset="0" style="stop-color:#00CDFD"/>
					<stop  offset="1" style="stop-color:#002898;stop-opacity:0"/>
				</linearGradient>
				<path class="st18" d="M-7.6,194.4c2.9,0.2,5.9,0.4,8.8,0.4l0,12.2c-3.5,0-7-0.2-10.4-0.5L-7.6,194.4 M-8.7,193.4l-1.9,14.1
					c4.3,0.4,8.6,0.6,12.9,0.6l0-14.2c0,0,0,0-0.1,0C-1.4,193.8-5.1,193.7-8.7,193.4L-8.7,193.4z"/>
			</g>
			<g>
				<linearGradient id="SVGID_21_" gradientUnits="userSpaceOnUse" x1="10.5448" y1="199.6555" x2="124.589" y2="199.6555">
					<stop  offset="0" style="stop-color:#00CDFD"/>
					<stop  offset="1" style="stop-color:#002898;stop-opacity:0"/>
				</linearGradient>
				<path class="st19" d="M23.4,193l3.2,12.1c-1.7,0.3-3.4,0.5-5.1,0.7c-1.6,0.2-3.3,0.4-5.2,0.6l-1.6-12.2c1.4-0.1,2.8-0.3,4.4-0.5
					C20.6,193.5,22,193.3,23.4,193 M24.4,191.8c-1.8,0.3-3.6,0.6-5.4,0.9c-1.8,0.2-3.6,0.5-5.5,0.6l1.8,14.1
					c2.1-0.2,4.3-0.4,6.4-0.7c2.1-0.3,4.3-0.6,6.4-1L24.4,191.8L24.4,191.8z"/>
			</g>
			<g>
				<linearGradient id="SVGID_22_" gradientUnits="userSpaceOnUse" x1="10.5448" y1="194.5034" x2="124.5887" y2="194.5034">
					<stop  offset="0" style="stop-color:#00CDFD"/>
					<stop  offset="1" style="stop-color:#002898;stop-opacity:0"/>
				</linearGradient>
				<path class="st20" d="M44.6,187.3l6.5,11.5c-1.6,0.6-3.2,1.1-4.8,1.6c-1.5,0.5-3.1,1-4.9,1.5L36.5,190c1.3-0.4,2.6-0.8,4.1-1.3
					C42,188.2,43.3,187.8,44.6,187.3 M45.2,185.9c-1.7,0.6-3.3,1.3-5.1,1.8c-1.7,0.6-3.4,1.1-5.2,1.6l5.6,13.7
					c2.1-0.6,4.1-1.1,6.1-1.8c2-0.6,4-1.3,6-2.1L45.2,185.9L45.2,185.9z"/>
			</g>
			<g>
				<linearGradient id="SVGID_23_" gradientUnits="userSpaceOnUse" x1="10.5449" y1="185.3805" x2="124.5887" y2="185.3805">
					<stop  offset="0" style="stop-color:#00CDFD"/>
					<stop  offset="1" style="stop-color:#002898;stop-opacity:0"/>
				</linearGradient>
				<path class="st21" d="M63.7,177.8l9.7,10.4c-2.8,1.7-5.8,3.3-8.7,4.7l-8.1-11C59,180.7,61.4,179.3,63.7,177.8 M64,176.4
					c-2.9,1.9-5.9,3.6-9,5.2l9.3,12.7c3.7-1.8,7.4-3.7,10.9-5.9L64,176.4L64,176.4z"/>
			</g>
			<g>
				<linearGradient id="SVGID_24_" gradientUnits="userSpaceOnUse" x1="10.5448" y1="172.7484" x2="124.5891" y2="172.7484">
					<stop  offset="0" style="stop-color:#00CDFD"/>
					<stop  offset="1" style="stop-color:#002898;stop-opacity:0"/>
				</linearGradient>
				<path class="st22" d="M79.8,165.2l12.7,8.9c-2.3,2.1-4.8,4.2-7.4,6.1l-11.3-9.8C76,168.8,78,167,79.8,165.2 M79.7,163.8
					c-2.3,2.3-4.8,4.5-7.4,6.7l12.9,11.2c3.2-2.4,6.3-5,9.1-7.6L79.7,163.8L79.7,163.8z"/>
			</g>
			<g>
				<linearGradient id="SVGID_25_" gradientUnits="userSpaceOnUse" x1="10.5446" y1="157.2098" x2="124.5889" y2="157.2098">
					<stop  offset="0" style="stop-color:#00CDFD"/>
					<stop  offset="1" style="stop-color:#002898;stop-opacity:0"/>
				</linearGradient>
				<path class="st23" d="M92.1,150.1l15.6,6.8c-1.7,2.5-3.6,5-5.6,7.3l-14.3-8C89.3,154.3,90.8,152.2,92.1,150.1 M91.6,148.8
					c-1.6,2.7-3.5,5.3-5.4,7.8l16.2,9.1c2.5-2.9,4.9-5.9,7-9.1L91.6,148.8L91.6,148.8z"/>
			</g>
			<g>
				<linearGradient id="SVGID_26_" gradientUnits="userSpaceOnUse" x1="10.5447" y1="139.4731" x2="124.5889" y2="139.4731">
					<stop  offset="0" style="stop-color:#00CDFD"/>
					<stop  offset="1" style="stop-color:#002898;stop-opacity:0"/>
				</linearGradient>
				<path class="st24" d="M100,133.3l18.2,4.2c-1.1,2.8-2.3,5.5-3.6,8.2L97.5,140C98.4,137.8,99.3,135.5,100,133.3 M99.2,132
					c-0.9,2.9-2,5.7-3.2,8.5l19.3,6.3c1.7-3.3,3.2-6.7,4.5-10.1L99.2,132L99.2,132z"/>
			</g>
			<g>
				<linearGradient id="SVGID_27_" gradientUnits="userSpaceOnUse" x1="10.5446" y1="120.3504" x2="124.5888" y2="120.3504">
					<stop  offset="0" style="stop-color:#00CDFD"/>
					<stop  offset="1" style="stop-color:#002898;stop-opacity:0"/>
				</linearGradient>
				<path class="st25" d="M103.2,115.5l20.1,0.9c-0.3,2.9-0.8,5.8-1.4,8.7l-19.4-2.6C102.9,120.2,103.1,117.8,103.2,115.5
					 M102,114.5c-0.1,3-0.4,5.9-0.9,8.8l21.7,2.9c0.8-3.6,1.4-7.1,1.8-10.7L102,114.5L102,114.5z"/>
			</g>
			<g>
				<linearGradient id="SVGID_28_" gradientUnits="userSpaceOnUse" x1="10.5447" y1="99.679" x2="124.5889" y2="99.679">
					<stop  offset="0" style="stop-color:#00CDFD"/>
					<stop  offset="1" style="stop-color:#002898;stop-opacity:0"/>
				</linearGradient>
				<path class="st26" d="M122.9,94.9c0.4,2.9,0.7,5.9,0.8,8.8l-21,0.9c-0.3-2.3-0.7-4.6-1.2-6.9L122.9,94.9 M124,93.8l-23.7,3.1
					c0.7,2.9,1.2,5.8,1.5,8.7l23.3-1C124.9,101,124.6,97.4,124,93.8L124,93.8z"/>
			</g>
			<g>
				<linearGradient id="SVGID_29_" gradientUnits="userSpaceOnUse" x1="10.5448" y1="80.4256" x2="124.5888" y2="80.4256">
					<stop  offset="0" style="stop-color:#00CDFD"/>
					<stop  offset="1" style="stop-color:#002898;stop-opacity:0"/>
				</linearGradient>
				<path class="st27" d="M116.8,73.8c1.2,2.8,2.3,5.6,3.2,8.5l-21.6,4.9c-0.9-2.2-1.8-4.3-2.9-6.5L116.8,73.8 M117.6,72.5
					l-23.6,7.7c1.4,2.7,2.7,5.4,3.7,8.2l23.8-5.4C120.4,79.4,119.1,75.9,117.6,72.5L117.6,72.5z"/>
			</g>
			<g>
				<linearGradient id="SVGID_30_" gradientUnits="userSpaceOnUse" x1="10.5447" y1="62.5696" x2="124.5886" y2="62.5696">
					<stop  offset="0" style="stop-color:#00CDFD"/>
					<stop  offset="1" style="stop-color:#002898;stop-opacity:0"/>
				</linearGradient>
				<path class="st28" d="M105.3,54.2c1.9,2.5,3.7,5.1,5.4,7.8l-21,9.1c-1.4-2-2.9-3.9-4.5-5.7L105.3,54.2 M105.6,52.8L83.5,65.1
					c2.1,2.3,4,4.8,5.7,7.3l23.1-10C110.3,59.1,108.1,55.9,105.6,52.8L105.6,52.8z"/>
			</g>
			<g>
				<linearGradient id="SVGID_31_" gradientUnits="userSpaceOnUse" x1="10.5449" y1="46.9394" x2="124.5889" y2="46.9394">
					<stop  offset="0" style="stop-color:#00CDFD"/>
					<stop  offset="1" style="stop-color:#002898;stop-opacity:0"/>
				</linearGradient>
				<path class="st29" d="M88.8,37c2.6,2.1,5,4.4,7.3,6.7L76.9,57c-1.9-1.7-3.8-3.3-5.8-4.8L88.8,37 M88.7,35.5L69.4,52.2
					c2.6,1.9,5.1,4,7.4,6.1l20.9-14.5C94.9,40.9,91.9,38.2,88.7,35.5L88.7,35.5z"/>
			</g>
			<g>
				<linearGradient id="SVGID_32_" gradientUnits="userSpaceOnUse" x1="10.5449" y1="34.234" x2="124.589" y2="34.234">
					<stop  offset="0" style="stop-color:#00CDFD"/>
					<stop  offset="1" style="stop-color:#002898;stop-opacity:0"/>
				</linearGradient>
				<path class="st30" d="M68,23c3.1,1.6,6.1,3.4,9,5.3l-16,17.2c-2.2-1.3-4.5-2.5-6.9-3.6L68,23 M67.6,21.6L52.4,42.2
					c3,1.4,6,2.9,8.8,4.6l17.5-18.7C75.1,25.8,71.4,23.6,67.6,21.6L67.6,21.6z"/>
			</g>
			<g>
				<linearGradient id="SVGID_33_" gradientUnits="userSpaceOnUse" x1="10.5448" y1="25.0792" x2="124.5886" y2="25.0792">
					<stop  offset="0" style="stop-color:#00CDFD"/>
					<stop  offset="1" style="stop-color:#002898;stop-opacity:0"/>
				</linearGradient>
				<path class="st31" d="M43.9,13c3.4,1.1,6.9,2.3,10.2,3.6L42.5,37.1c-2.5-0.8-5-1.6-7.6-2.3L43.9,13 M43.2,11.8l-9.8,23.7
					c3.3,0.8,6.5,1.8,9.7,3l12.6-22.2C51.6,14.5,47.5,13,43.2,11.8L43.2,11.8z"/>
			</g>
			<g>
				<linearGradient id="SVGID_34_" gradientUnits="userSpaceOnUse" x1="10.5448" y1="19.9189" x2="124.5889" y2="19.9189">
					<stop  offset="0" style="stop-color:#00CDFD"/>
					<stop  offset="1" style="stop-color:#002898;stop-opacity:0"/>
				</linearGradient>
				<path class="st32" d="M17.6,7.6c3.7,0.4,7.4,1,11,1.7l-6.2,22.9c-2.6-0.4-5.3-0.7-8-0.9L17.6,7.6 M16.6,6.5l-3.5,25.7
					c3.4,0.2,6.8,0.6,10.2,1.2L30,8.5C25.6,7.7,21.1,7,16.6,6.5L16.6,6.5z"/>
			</g>
		</g>
		<g>
			<g>
				<linearGradient id="SVGID_35_" gradientUnits="userSpaceOnUse" x1="-14.5162" y1="113.3772" x2="67.4209" y2="113.3772">
					<stop  offset="0" style="stop-color:#07B9FD"/>
					<stop  offset="1" style="stop-color:#002898;stop-opacity:0"/>
				</linearGradient>
				<path class="st33" d="M1.5,167.6c-0.7,0-1.4,0-2.1-0.1l0.4-6.6c0.6,0,1.2,0,1.9,0L1.5,167.6z M3.7,167.6l-0.1-6.6
					c0.6,0,1.3,0,1.9-0.1l0.4,6.6C5.1,167.6,4.4,167.6,3.7,167.6z M-2.7,167.5c-0.7,0-1.4-0.1-2.1-0.2l0.9-6.5
					c0.6,0.1,1.2,0.1,1.9,0.1L-2.7,167.5z M7.9,167.5l-0.6-6.6c0.6,0,1.2-0.1,1.9-0.1l0.9,6.5C9.3,167.4,8.6,167.4,7.9,167.5z
					 M-7,167.1c-0.7-0.1-1.4-0.2-2.1-0.3l1.4-6.5c0.6,0.1,1.2,0.2,1.8,0.2L-7,167.1z M12.2,167.1l-1.2-6.5c0.6-0.1,1.2-0.2,1.8-0.2
					l1.4,6.5C13.6,166.9,12.9,167,12.2,167.1z M-11.1,166.5c-0.7-0.1-1.4-0.3-2.1-0.4l1.9-6.4c0.6,0.1,1.2,0.2,1.8,0.3L-11.1,166.5z
					 M16.4,166.4l-1.7-6.4c0.6-0.1,1.2-0.2,1.8-0.3l1.9,6.4C17.7,166.2,17,166.3,16.4,166.4z M-15.3,165.6c-0.7-0.2-1.4-0.3-2-0.5
					l2.4-6.3c0.6,0.2,1.2,0.3,1.8,0.4L-15.3,165.6z M20.5,165.6l-2.2-6.3c0.6-0.1,1.2-0.3,1.8-0.4l2.4,6.3
					C21.9,165.3,21.2,165.4,20.5,165.6z M-19.4,164.6c-0.7-0.2-1.3-0.4-2-0.6l2.9-6.1c0.6,0.2,1.2,0.4,1.8,0.5L-19.4,164.6z
					 M24.6,164.5l-2.7-6.2c0.6-0.2,1.2-0.4,1.8-0.5l2.9,6.1C25.9,164.1,25.2,164.4,24.6,164.5z M-23.3,163.3
					c-0.7-0.2-1.3-0.5-1.9-0.7l3.4-6c0.6,0.2,1.1,0.4,1.7,0.6L-23.3,163.3z M28.6,163.3l-3.2-6c0.6-0.2,1.2-0.4,1.7-0.6l3.4,6
					C29.9,162.8,29.2,163,28.6,163.3z M-27.2,161.9c-0.6-0.3-1.3-0.5-1.9-0.8l3.8-5.8c0.5,0.2,1.1,0.5,1.7,0.7L-27.2,161.9z
					 M32.4,161.8l-3.6-5.9c0.6-0.2,1.1-0.5,1.7-0.7l3.9,5.8C33.7,161.2,33.1,161.5,32.4,161.8z M-30.9,160.2
					c-0.6-0.3-1.2-0.6-1.8-0.9l4.3-5.6c0.5,0.3,1.1,0.5,1.6,0.8L-30.9,160.2z M36.2,160.1l-4.1-5.7c0.5-0.3,1.1-0.5,1.6-0.8l4.3,5.5
					C37.4,159.5,36.8,159.8,36.2,160.1z M-34.5,158.3c-0.6-0.3-1.2-0.7-1.7-1l4.7-5.3c0.5,0.3,1,0.6,1.5,0.9L-34.5,158.3z
					 M39.8,158.2l-4.5-5.4c0.5-0.3,1-0.6,1.5-0.9l4.7,5.3C40.9,157.6,40.4,157.9,39.8,158.2z M-38,156.3c-0.6-0.4-1.1-0.7-1.7-1.1
					l5.1-5.1c0.5,0.3,1,0.6,1.5,1L-38,156.3z M43.2,156.2l-4.9-5.2c0.5-0.3,1-0.6,1.5-1l5.1,5C44.3,155.4,43.8,155.8,43.2,156.2z
					 M-41.2,154.1c-0.5-0.4-1.1-0.8-1.6-1.2l5.5-4.8c0.5,0.4,0.9,0.7,1.4,1L-41.2,154.1z M46.5,153.9l-5.3-4.9
					c0.5-0.3,0.9-0.7,1.4-1l5.5,4.8C47.5,153.1,47,153.5,46.5,153.9z M-44.3,151.7c-0.5-0.4-1-0.8-1.5-1.3l5.9-4.5
					c0.4,0.4,0.9,0.7,1.3,1.1L-44.3,151.7z M49.6,151.5l-5.7-4.6c0.4-0.4,0.9-0.7,1.3-1.1l5.9,4.5C50.6,150.7,50.1,151.1,49.6,151.5
					z M-47.3,149.1c-0.5-0.4-0.9-0.9-1.4-1.3l6.2-4.2c0.4,0.4,0.8,0.8,1.2,1.2L-47.3,149.1z M52.5,148.9l-6-4.3
					c0.4-0.4,0.8-0.8,1.2-1.2l6.2,4.1C53.4,148,52.9,148.5,52.5,148.9z M-50,146.4c-0.4-0.5-0.9-0.9-1.3-1.4l6.5-3.8
					c0.4,0.4,0.7,0.8,1.1,1.2L-50,146.4z M55.2,146.2l-6.4-4c0.4-0.4,0.8-0.8,1.1-1.2l6.5,3.8C56,145.3,55.6,145.8,55.2,146.2z
					 M-52.4,143.6c-0.4-0.5-0.8-1-1.2-1.5l6.8-3.5c0.3,0.4,0.7,0.9,1,1.3L-52.4,143.6z M57.6,143.4l-6.7-3.6c0.3-0.4,0.7-0.9,1-1.3
					l6.8,3.5C58.4,142.4,58,142.9,57.6,143.4z M-54.7,140.6c-0.4-0.5-0.7-1-1-1.5l7.1-3.1c0.3,0.5,0.6,0.9,0.9,1.3L-54.7,140.6z
					 M59.9,140.4l-6.9-3.3c0.3-0.4,0.6-0.9,0.9-1.3l7.1,3.1C60.6,139.4,60.2,139.9,59.9,140.4z M-56.7,137.5
					c-0.3-0.5-0.6-1.1-0.9-1.6l7.3-2.7c0.3,0.5,0.5,0.9,0.8,1.4L-56.7,137.5z M61.9,137.3l-7.2-2.9c0.3-0.5,0.5-0.9,0.8-1.4l7.3,2.7
					C62.5,136.3,62.2,136.8,61.9,137.3z M-58.5,134.3c-0.3-0.5-0.5-1.1-0.8-1.6l7.5-2.3c0.2,0.5,0.5,1,0.7,1.4L-58.5,134.3z
					 M63.6,134.2l-7.4-2.5c0.2-0.5,0.5-0.9,0.7-1.4l7.5,2.3C64.2,133.1,63.9,133.6,63.6,134.2z M-60,131c-0.2-0.5-0.5-1.1-0.7-1.7
					l7.7-1.9c0.2,0.5,0.4,1,0.6,1.5L-60,131z M65.1,130.9l-7.6-2.1c0.2-0.5,0.4-1,0.6-1.5l7.7,1.9C65.6,129.8,65.4,130.3,65.1,130.9
					z M-61.3,127.7c-0.2-0.6-0.4-1.1-0.5-1.7l7.8-1.5c0.1,0.5,0.3,1,0.5,1.5L-61.3,127.7z M66.4,127.5l-7.7-1.7
					c0.2-0.5,0.3-1,0.5-1.5l7.8,1.5C66.7,126.4,66.6,127,66.4,127.5z M-62.3,124.3c-0.1-0.6-0.3-1.1-0.4-1.7l7.9-1.1
					c0.1,0.5,0.2,1,0.3,1.5L-62.3,124.3z M67.3,124.1l-7.9-1.3c0.1-0.5,0.2-1,0.3-1.5l7.9,1.1C67.6,123,67.5,123.6,67.3,124.1z
					 M-63,120.8c-0.1-0.6-0.2-1.2-0.3-1.7l8-0.7c0.1,0.5,0.1,1,0.2,1.5L-63,120.8z M68.1,120.7l-7.9-0.9c0.1-0.5,0.2-1,0.2-1.5
					l8,0.7C68.2,119.5,68.1,120.1,68.1,120.7z M-63.4,117.3c-0.1-0.6-0.1-1.2-0.1-1.7l8-0.3c0,0.5,0.1,1,0.1,1.5L-63.4,117.3z
					 M68.5,117.2l-8-0.5c0-0.5,0.1-1,0.1-1.5l8,0.2C68.6,116,68.5,116.6,68.5,117.2z M-63.6,113.9c0-0.2,0-0.3,0-0.5
					c0-0.4,0-0.9,0-1.3l8,0.2c0,0.4,0,0.7,0,1.1c0,0.1,0,0.3,0,0.4L-63.6,113.9z M68.6,113.7l-8,0l0-0.3c0-0.4,0-0.8,0-1.2l8-0.2
					c0,0.5,0,0.9,0,1.4L68.6,113.7z M-55.5,110.7l-8-0.4c0-0.6,0.1-1.2,0.2-1.7l8,0.6C-55.4,109.7-55.5,110.2-55.5,110.7z
					 M60.5,110.6c0-0.5-0.1-1-0.1-1.5l8-0.6c0.1,0.6,0.1,1.2,0.2,1.7L60.5,110.6z M-55.2,107.7l-8-0.8c0.1-0.6,0.2-1.2,0.3-1.7
					l7.9,1C-55,106.6-55.1,107.1-55.2,107.7z M60.2,107.5c-0.1-0.5-0.2-1-0.3-1.5l7.9-1c0.1,0.6,0.2,1.2,0.3,1.7L60.2,107.5z
					 M-54.6,104.6l-7.9-1.2c0.1-0.6,0.3-1.1,0.4-1.7l7.8,1.4C-54.4,103.6-54.5,104.1-54.6,104.6z M59.6,104.5
					c-0.1-0.5-0.2-1-0.4-1.5l7.8-1.4c0.2,0.6,0.3,1.1,0.4,1.7L59.6,104.5z M-53.8,101.6l-7.8-1.6c0.2-0.6,0.4-1.1,0.6-1.7l7.7,1.8
					C-53.5,100.6-53.7,101.1-53.8,101.6z M58.8,101.5c-0.2-0.5-0.3-1-0.5-1.5l7.7-1.8c0.2,0.6,0.4,1.1,0.6,1.7L58.8,101.5z
					 M-52.8,98.7l-7.6-2c0.2-0.6,0.5-1.1,0.7-1.7l7.5,2.2C-52.4,97.7-52.6,98.2-52.8,98.7z M57.8,98.5c-0.2-0.5-0.4-1-0.6-1.5
					l7.5-2.2c0.2,0.5,0.5,1.1,0.7,1.7L57.8,98.5z M-51.5,95.8l-7.4-2.4c0.3-0.5,0.5-1.1,0.8-1.6l7.3,2.6
					C-51,94.8-51.3,95.3-51.5,95.8z M56.5,95.7c-0.2-0.5-0.5-1-0.7-1.4l7.3-2.6c0.3,0.5,0.6,1.1,0.8,1.6L56.5,95.7z M-50,93
					l-7.2-2.8c0.3-0.5,0.6-1.1,0.9-1.6l7.1,3C-49.5,92-49.7,92.5-50,93z M55,92.8c-0.3-0.5-0.5-0.9-0.8-1.4l7.1-3
					c0.3,0.5,0.6,1,1,1.6L55,92.8z M-48.3,90.2l-7-3.2c0.3-0.5,0.7-1,1.1-1.5l6.9,3.4C-47.7,89.3-48,89.8-48.3,90.2z M53.2,90.1
					c-0.3-0.4-0.6-0.9-0.9-1.3l6.9-3.4c0.4,0.5,0.7,1,1.1,1.5L53.2,90.1z M-46.4,87.6l-6.7-3.6c0.4-0.5,0.8-1,1.2-1.5l6.6,3.7
					C-45.7,86.7-46,87.2-46.4,87.6z M51.3,87.5c-0.3-0.4-0.7-0.9-1-1.3l6.6-3.8c0.4,0.5,0.8,1,1.2,1.5L51.3,87.5z M-44.3,85.1
					l-6.4-3.9c0.4-0.5,0.9-0.9,1.3-1.4l6.3,4.1C-43.5,84.3-43.9,84.7-44.3,85.1z M49.2,84.9c-0.4-0.4-0.8-0.8-1.1-1.2l6.3-4.1
					c0.4,0.5,0.9,0.9,1.3,1.4L49.2,84.9z M-41.9,82.7l-6.1-4.2c0.5-0.4,0.9-0.9,1.4-1.3l6,4.4C-41.1,81.9-41.5,82.3-41.9,82.7z
					 M46.8,82.5c-0.4-0.4-0.8-0.8-1.2-1.2l5.9-4.4c0.5,0.4,0.9,0.9,1.4,1.3L46.8,82.5z M-39.4,80.4l-5.8-4.6c0.5-0.4,1-0.8,1.5-1.2
					l5.6,4.7C-38.6,79.6-39,80-39.4,80.4z M44.3,80.3c-0.4-0.4-0.9-0.7-1.3-1.1l5.6-4.7c0.5,0.4,1,0.8,1.5,1.2L44.3,80.3z
					 M-36.8,78.2l-5.4-4.8c0.5-0.4,1.1-0.8,1.6-1.2l5.2,5C-35.8,77.5-36.3,77.9-36.8,78.2z M41.6,78.1c-0.5-0.3-0.9-0.7-1.4-1l5.2-5
					c0.5,0.4,1.1,0.8,1.6,1.2L41.6,78.1z M-33.9,76.2l-5-5.1c0.6-0.4,1.1-0.7,1.7-1.1l4.8,5.2C-32.9,75.6-33.4,75.9-33.9,76.2z
					 M38.8,76.1c-0.5-0.3-1-0.6-1.5-0.9l4.8-5.3c0.6,0.3,1.1,0.7,1.7,1.1L38.8,76.1z M-30.9,74.4l-4.6-5.4c0.6-0.3,1.2-0.7,1.8-1
					l4.4,5.5C-29.9,73.8-30.4,74.1-30.9,74.4z M35.8,74.3c-0.5-0.3-1-0.6-1.6-0.9l4.4-5.5c0.6,0.3,1.2,0.6,1.8,1L35.8,74.3z
					 M-27.8,72.7l-4.2-5.6c0.6-0.3,1.2-0.6,1.8-0.9l4,5.7C-26.7,72.2-27.2,72.4-27.8,72.7z M32.6,72.6c-0.5-0.3-1.1-0.5-1.6-0.8
					l3.9-5.7c0.6,0.3,1.2,0.6,1.8,0.9L32.6,72.6z M-24.5,71.2l-3.7-5.8c0.6-0.3,1.3-0.5,1.9-0.8l3.5,5.9
					C-23.4,70.7-24,70.9-24.5,71.2z M29.4,71.1c-0.5-0.2-1.1-0.5-1.7-0.7l3.5-5.9c0.6,0.3,1.3,0.5,1.9,0.8L29.4,71.1z M-21.1,69.8
					l-3.3-6c0.7-0.2,1.3-0.5,2-0.7l3,6.1C-20,69.4-20.6,69.6-21.1,69.8z M26,69.8c-0.6-0.2-1.1-0.4-1.7-0.6l3-6.1
					c0.7,0.2,1.3,0.4,2,0.7L26,69.8z M-17.7,68.7l-2.8-6.2c0.7-0.2,1.3-0.4,2-0.6l2.5,6.2C-16.5,68.3-17.1,68.5-17.7,68.7z
					 M22.6,68.6c-0.6-0.2-1.2-0.3-1.8-0.5l2.5-6.2c0.7,0.2,1.3,0.4,2,0.6L22.6,68.6z M-14.1,67.7l-2.3-6.3c0.7-0.2,1.4-0.3,2.1-0.5
					l2,6.4C-12.9,67.4-13.5,67.5-14.1,67.7z M19,67.6c-0.6-0.1-1.2-0.3-1.8-0.4l2-6.4c0.7,0.1,1.4,0.3,2.1,0.5L19,67.6z M-10.5,66.9
					l-1.8-6.4c0.7-0.1,1.4-0.3,2.1-0.4l1.5,6.5C-9.3,66.7-9.9,66.8-10.5,66.9z M15.4,66.9c-0.6-0.1-1.2-0.2-1.8-0.3l1.5-6.5
					c0.7,0.1,1.4,0.2,2.1,0.4L15.4,66.9z M-6.8,66.3l-1.3-6.5c0.7-0.1,1.4-0.2,2.1-0.3l1,6.5C-5.6,66.2-6.2,66.2-6.8,66.3z
					 M11.7,66.3c-0.6-0.1-1.2-0.2-1.9-0.2l1-6.5c0.7,0.1,1.4,0.2,2.1,0.2L11.7,66.3z M-3.1,65.9l-0.8-6.5c0.7-0.1,1.4-0.1,2.1-0.1
					l0.5,6.6C-1.9,65.8-2.5,65.9-3.1,65.9z M8,65.9c-0.6,0-1.3-0.1-1.9-0.1l0.5-6.6c0.7,0,1.4,0.1,2.1,0.1L8,65.9z M0.6,65.7
					l-0.3-6.6c0.7,0,1.4,0,2.2,0c0.6,0,1.3,0,1.9,0l-0.2,6.6c-0.6,0-1.2,0-1.7,0C1.9,65.7,1.3,65.7,0.6,65.7z"/>
			</g>
		</g>
		<g>
			<g>
				<linearGradient id="SVGID_36_" gradientUnits="userSpaceOnUse" x1="21.962" y1="113.3768" x2="97.6855" y2="113.3768">
					<stop  offset="0" style="stop-color:#00CDFD"/>
					<stop  offset="1" style="stop-color:#002898;stop-opacity:0"/>
				</linearGradient>
				<path class="st34" d="M1.5,184.2L1.5,184.2c-0.3,0-0.6-0.2-0.6-0.5l0,0c0-0.3,0.3-0.5,0.6-0.5l0,0c0.3,0,0.6,0.2,0.6,0.5l0,0
					C2.1,184,1.8,184.2,1.5,184.2L1.5,184.2L1.5,184.2z M4.9,183.7c0-0.3,0.2-0.5,0.6-0.5l0,0c0.3,0,0.6,0.2,0.6,0.5l0,0
					c0,0.3-0.2,0.5-0.6,0.5l0,0c0,0,0,0,0,0l0,0C5.2,184.2,4.9,184,4.9,183.7z M-2.6,184.1c-0.3,0-0.6-0.2-0.6-0.5l0,0
					c0-0.3,0.3-0.5,0.6-0.5l0,0l0,0l0,0c0.3,0,0.6,0.3,0.6,0.5l0,0C-1.9,183.9-2.2,184.1-2.6,184.1L-2.6,184.1
					C-2.5,184.1-2.5,184.1-2.6,184.1z M8.9,183.5c0-0.3,0.2-0.5,0.6-0.5l0,0c0,0,0,0,0,0l0,0c0.3,0,0.6,0.2,0.6,0.5l0,0
					c0,0.3-0.2,0.5-0.5,0.5l0,0c0,0,0,0-0.1,0l0,0C9.2,184,8.9,183.8,8.9,183.5z M-6.6,183.8c-0.3,0-0.6-0.3-0.5-0.5l0,0
					c0-0.3,0.3-0.5,0.7-0.4l0,0c0.3,0,0.6,0.3,0.5,0.5l0,0C-5.9,183.6-6.2,183.8-6.6,183.8L-6.6,183.8
					C-6.5,183.8-6.6,183.8-6.6,183.8z M12.9,183.2c0-0.3,0.2-0.5,0.5-0.6l0,0l0,0l0,0c0.3,0,0.6,0.2,0.7,0.4l0,0
					c0,0.3-0.2,0.5-0.5,0.5v0c0,0-0.1,0-0.1,0l0,0C13.2,183.7,12.9,183.5,12.9,183.2z M-10.6,183.4c-0.3,0-0.6-0.3-0.5-0.6l0,0
					c0.1-0.3,0.4-0.5,0.7-0.4l0,0c0.3,0,0.6,0.3,0.5,0.6l0,0C-9.9,183.2-10.2,183.4-10.6,183.4L-10.6,183.4
					C-10.5,183.4-10.5,183.4-10.6,183.4z M16.8,182.8c-0.1-0.3,0.2-0.5,0.5-0.6l0,0c0.3,0,0.6,0.1,0.7,0.4l0,0
					c0.1,0.3-0.2,0.5-0.5,0.6l0,0c0,0-0.1,0-0.1,0l0,0C17.1,183.2,16.9,183,16.8,182.8z M-14.5,182.8c-0.3-0.1-0.5-0.3-0.5-0.6l0,0
					c0.1-0.3,0.4-0.4,0.7-0.4l0,0c0.3,0.1,0.5,0.3,0.5,0.6l0,0c-0.1,0.2-0.3,0.4-0.6,0.4l0,0C-14.5,182.8-14.5,182.8-14.5,182.8z
					 M20.8,182.1c-0.1-0.3,0.1-0.5,0.5-0.6l0,0c0.3-0.1,0.6,0.1,0.7,0.4l0,0c0.1,0.3-0.1,0.5-0.5,0.6l0,0c0,0-0.1,0-0.1,0l0,0
					C21.1,182.5,20.8,182.4,20.8,182.1z M-18.5,182.1c-0.3-0.1-0.5-0.3-0.4-0.6l0,0c0.1-0.3,0.4-0.4,0.7-0.4l0,0l0,0l0,0
					c0.3,0.1,0.5,0.3,0.4,0.6l0,0c-0.1,0.2-0.3,0.4-0.6,0.4l0,0C-18.4,182.1-18.4,182.1-18.5,182.1z M24.7,181.4
					c-0.1-0.3,0.1-0.5,0.4-0.6l0,0c0.3-0.1,0.6,0.1,0.7,0.3l0,0c0.1,0.3-0.1,0.5-0.4,0.6l0,0c-0.1,0-0.1,0-0.2,0l0,0
					C25,181.7,24.7,181.6,24.7,181.4z M-22.4,181.2c-0.3-0.1-0.5-0.4-0.4-0.6l0,0c0.1-0.3,0.4-0.4,0.7-0.3l0,0
					c0.3,0.1,0.5,0.4,0.4,0.6l0,0c-0.1,0.2-0.3,0.4-0.6,0.4l0,0C-22.3,181.3-22.3,181.2-22.4,181.2z M28.5,180.4
					c-0.1-0.3,0.1-0.5,0.4-0.6l0,0c0.3-0.1,0.7,0.1,0.8,0.3l0,0c0.1,0.3-0.1,0.5-0.4,0.6l0,0c-0.1,0-0.1,0-0.2,0l0,0
					C28.8,180.8,28.6,180.7,28.5,180.4z M-26.2,180.2L-26.2,180.2c-0.3-0.1-0.5-0.4-0.4-0.6l0,0c0.1-0.3,0.5-0.4,0.8-0.3l0,0
					c0.3,0.1,0.5,0.4,0.4,0.6l0,0c-0.1,0.2-0.3,0.3-0.6,0.3l0,0C-26.1,180.2-26.1,180.2-26.2,180.2z M32.3,179.4
					c-0.1-0.3,0-0.5,0.3-0.6l0,0c0.3-0.1,0.7,0,0.8,0.3l0,0c0.1,0.3,0,0.5-0.3,0.6l0,0c-0.1,0-0.1,0-0.2,0l0,0
					C32.6,179.7,32.4,179.6,32.3,179.4z M-30,179c-0.3-0.1-0.5-0.4-0.3-0.6l0,0c0.1-0.2,0.5-0.4,0.8-0.3l0,0l0,0l0,0
					c0.3,0.1,0.5,0.4,0.3,0.6l0,0c-0.1,0.2-0.3,0.3-0.6,0.3l0,0C-29.8,179.1-29.9,179.1-30,179z M36,178.2c-0.1-0.2,0-0.5,0.3-0.6
					l0,0c0,0,0,0,0,0l0,0c0.3-0.1,0.7,0,0.8,0.3l0,0c0.1,0.2,0,0.5-0.3,0.6h0c-0.1,0-0.2,0-0.2,0l0,0
					C36.3,178.5,36.1,178.3,36,178.2z M-33.7,177.7c-0.3-0.1-0.4-0.4-0.3-0.7l0,0c0.1-0.2,0.5-0.4,0.8-0.2l0,0
					c0.3,0.1,0.4,0.4,0.3,0.7l0,0c-0.1,0.2-0.3,0.3-0.5,0.3l0,0C-33.5,177.8-33.6,177.7-33.7,177.7z M39.7,176.8
					c-0.1-0.2,0-0.5,0.3-0.7l0,0l0,0l0,0c0.3-0.1,0.7,0,0.8,0.2l0,0c0.1,0.2,0,0.5-0.3,0.7l0,0c-0.1,0-0.2,0.1-0.3,0.1l0,0
					C40,177.1,39.8,177,39.7,176.8z M-37.3,176.3c-0.3-0.1-0.4-0.4-0.3-0.7l0,0c0.2-0.2,0.5-0.3,0.8-0.2l0,0l0,0l0,0
					c0.3,0.1,0.4,0.4,0.3,0.7l0,0c-0.1,0.2-0.3,0.3-0.5,0.3l0,0C-37.1,176.3-37.2,176.3-37.3,176.3z M43.3,175.3
					c-0.2-0.2-0.1-0.5,0.2-0.7l0,0c0.3-0.1,0.7,0,0.8,0.2l0,0c0.2,0.2,0.1,0.5-0.2,0.7l0,0c-0.1,0-0.2,0.1-0.3,0.1l0,0
					C43.6,175.6,43.4,175.5,43.3,175.3z M-40.8,174.7c-0.3-0.1-0.4-0.4-0.2-0.7l0,0c0.2-0.2,0.5-0.3,0.8-0.2l0,0
					c0.3,0.1,0.4,0.4,0.2,0.7l0,0c-0.1,0.2-0.3,0.2-0.5,0.2l0,0C-40.6,174.7-40.7,174.7-40.8,174.7z M46.7,173.7
					c-0.2-0.2-0.1-0.5,0.2-0.7l0,0c0.3-0.1,0.7-0.1,0.8,0.2l0,0c0.2,0.2,0.1,0.5-0.2,0.7l0,0c-0.1,0-0.2,0.1-0.3,0.1l0,0
					C47,173.9,46.8,173.8,46.7,173.7z M-44.2,172.9c-0.3-0.1-0.4-0.5-0.2-0.7l0,0c0.2-0.2,0.6-0.3,0.8-0.1l0,0l0,0l0,0
					c0.3,0.1,0.4,0.5,0.2,0.7l0,0c-0.1,0.1-0.3,0.2-0.5,0.2l0,0C-44,173-44.1,173-44.2,172.9z M50.1,171.9c-0.2-0.2-0.1-0.5,0.2-0.7
					l0,0c0.3-0.2,0.6-0.1,0.8,0.1l0,0c0.2,0.2,0.1,0.5-0.2,0.7l0,0c-0.1,0.1-0.2,0.1-0.3,0.1l0,0C50.4,172.1,50.2,172,50.1,171.9z
					 M-47.6,171.1c-0.3-0.2-0.3-0.5-0.1-0.7l0,0c0.2-0.2,0.6-0.3,0.8-0.1l0,0c0.3,0.2,0.3,0.5,0.1,0.7l0,0c-0.1,0.1-0.3,0.2-0.5,0.2
					l0,0C-47.4,171.2-47.5,171.1-47.6,171.1z M53.4,170c-0.2-0.2-0.1-0.5,0.1-0.7l0,0c0,0,0,0,0,0l0,0c0.3-0.2,0.6-0.1,0.8,0.1l0,0
					c0.2,0.2,0.1,0.5-0.1,0.7v0c-0.1,0.1-0.2,0.1-0.4,0.1l0,0C53.7,170.2,53.5,170.1,53.4,170z M-50.8,169.1L-50.8,169.1
					c-0.3-0.2-0.3-0.5-0.1-0.7l0,0c0.2-0.2,0.6-0.3,0.8-0.1l0,0l0,0l0,0c0.3,0.2,0.3,0.5,0.1,0.7l0,0c-0.1,0.1-0.3,0.2-0.5,0.2l0,0
					C-50.6,169.2-50.7,169.2-50.8,169.1z M56.6,168c-0.2-0.2-0.2-0.5,0.1-0.7l0,0c0.3-0.2,0.6-0.1,0.8,0.1l0,0
					c0.2,0.2,0.2,0.5-0.1,0.7l0,0c-0.1,0.1-0.2,0.1-0.4,0.1l0,0C56.9,168.2,56.7,168.1,56.6,168z M-53.9,167
					c-0.2-0.2-0.3-0.5-0.1-0.7l0,0c0.2-0.2,0.6-0.2,0.8,0l0,0c0.2,0.2,0.3,0.5,0.1,0.7l0,0c-0.1,0.1-0.3,0.2-0.5,0.2l0,0
					C-53.7,167.1-53.8,167.1-53.9,167z M59.6,165.9c-0.2-0.2-0.2-0.5,0-0.7l0,0c0.2-0.2,0.6-0.2,0.8,0l0,0c0.2,0.2,0.2,0.5,0,0.7
					l0,0c-0.1,0.1-0.3,0.1-0.4,0.1l0,0C59.9,166,59.7,166,59.6,165.9z M-56.9,164.8c-0.2-0.2-0.2-0.5,0-0.7l0,0
					c0.2-0.2,0.6-0.2,0.8,0l0,0c0.2,0.2,0.2,0.5,0,0.7l0,0c-0.1,0.1-0.3,0.2-0.4,0.2l0,0C-56.6,164.9-56.8,164.9-56.9,164.8z
					 M62.5,163.6c-0.2-0.2-0.2-0.5,0-0.7l0,0c0.2-0.2,0.6-0.2,0.8,0l0,0c0.2,0.2,0.2,0.5,0,0.7l0,0c-0.1,0.1-0.3,0.1-0.4,0.1l0,0
					C62.8,163.8,62.7,163.7,62.5,163.6z M-59.8,162.4c-0.2-0.2-0.2-0.5,0-0.7l0,0c0.2-0.2,0.6-0.2,0.8,0l0,0c0.2,0.2,0.2,0.5,0,0.7
					l0,0c-0.1,0.1-0.3,0.1-0.4,0.1l0,0C-59.5,162.6-59.6,162.5-59.8,162.4z M65.3,161.3c-0.2-0.2-0.3-0.5,0-0.7l0,0l0,0l0,0
					c0.2-0.2,0.6-0.2,0.8,0l0,0c0.2,0.2,0.3,0.5,0,0.7l0,0c-0.1,0.1-0.3,0.2-0.4,0.2l0,0C65.6,161.4,65.4,161.4,65.3,161.3z
					 M-62.5,160c-0.2-0.2-0.2-0.5,0.1-0.7l0,0c0.3-0.2,0.6-0.2,0.8,0l0,0c0.2,0.2,0.2,0.5-0.1,0.7l0,0c-0.1,0.1-0.3,0.1-0.4,0.1l0,0
					C-62.2,160.2-62.4,160.1-62.5,160z M68,158.8c-0.3-0.2-0.3-0.5-0.1-0.7l0,0l0,0l0,0c0.2-0.2,0.6-0.2,0.8-0.1l0,0
					c0.3,0.2,0.3,0.5,0.1,0.7l0,0c-0.1,0.1-0.3,0.2-0.5,0.2l0,0C68.2,158.9,68.1,158.9,68,158.8z M-65.1,157.5
					c-0.2-0.2-0.2-0.5,0.1-0.7l0,0c0.3-0.2,0.6-0.1,0.8,0.1l0,0l0,0l0,0c0.2,0.2,0.2,0.5-0.1,0.7l0,0c-0.1,0.1-0.2,0.1-0.4,0.1l0,0
					C-64.8,157.7-65,157.6-65.1,157.5z M70.5,156.3c-0.3-0.2-0.3-0.5-0.1-0.7l0,0c0.2-0.2,0.6-0.3,0.8-0.1l0,0
					c0.3,0.2,0.3,0.5,0.1,0.7l0,0c-0.1,0.1-0.3,0.2-0.5,0.2l0,0C70.7,156.4,70.6,156.3,70.5,156.3z M-67.5,154.8
					c-0.2-0.2-0.1-0.5,0.1-0.7l0,0c0.3-0.2,0.6-0.1,0.8,0.1l0,0c0.2,0.2,0.1,0.5-0.1,0.7l0,0c-0.1,0.1-0.2,0.1-0.3,0.1l0,0
					C-67.2,155-67.4,155-67.5,154.8z M72.9,153.6c-0.3-0.2-0.3-0.5-0.2-0.7l0,0c0.2-0.2,0.6-0.3,0.8-0.1l0,0
					c0.3,0.2,0.3,0.5,0.2,0.7l0,0c-0.1,0.1-0.3,0.2-0.5,0.2l0,0C73.1,153.7,73,153.7,72.9,153.6z M-69.8,152.1L-69.8,152.1
					c-0.2-0.2-0.1-0.5,0.2-0.7l0,0c0.3-0.1,0.6-0.1,0.8,0.1l0,0l0,0l0,0c0.2,0.2,0.1,0.5-0.2,0.7l0,0c-0.1,0.1-0.2,0.1-0.3,0.1l0,0
					C-69.5,152.3-69.7,152.2-69.8,152.1z M75.1,150.9c-0.3-0.1-0.4-0.5-0.2-0.7l0,0l0,0l0,0c0.2-0.2,0.5-0.3,0.8-0.2l0,0
					c0.3,0.1,0.4,0.4,0.2,0.7l0,0c-0.1,0.2-0.3,0.2-0.5,0.2l0,0C75.3,150.9,75.2,150.9,75.1,150.9z M-71.9,149.3
					c-0.2-0.2-0.1-0.5,0.2-0.7l0,0c0.3-0.1,0.7-0.1,0.8,0.2l0,0c0.2,0.2,0.1,0.5-0.2,0.7l0,0c-0.1,0-0.2,0.1-0.3,0.1l0,0
					C-71.6,149.5-71.8,149.4-71.9,149.3z M77.1,148.1c-0.3-0.1-0.4-0.4-0.2-0.7l0,0c0.2-0.2,0.5-0.3,0.8-0.2l0,0
					c0.3,0.1,0.4,0.4,0.2,0.7l0,0c-0.1,0.2-0.3,0.3-0.5,0.3l0,0C77.3,148.1,77.2,148.1,77.1,148.1z M-73.9,146.4L-73.9,146.4
					c-0.2-0.2,0-0.5,0.3-0.7l0,0c0.3-0.1,0.7,0,0.8,0.2l0,0c0.2,0.2,0,0.5-0.3,0.7l0,0c-0.1,0-0.2,0.1-0.3,0.1l0,0
					C-73.6,146.7-73.8,146.6-73.9,146.4z M79,145.2c-0.3-0.1-0.4-0.4-0.3-0.7l0,0c0.1-0.2,0.5-0.3,0.8-0.2l0,0
					c0.3,0.1,0.4,0.4,0.3,0.7l0,0c-0.1,0.2-0.3,0.3-0.5,0.3l0,0C79.2,145.2,79.1,145.2,79,145.2z M-75.7,143.4
					c-0.1-0.2,0-0.5,0.3-0.7l0,0c0.3-0.1,0.7,0,0.8,0.2l0,0c0,0,0,0,0,0l0,0c0.1,0.2,0,0.5-0.3,0.7l0,0c-0.1,0-0.2,0-0.3,0l0,0
					C-75.4,143.7-75.6,143.6-75.7,143.4z M80.8,142.2c-0.3-0.1-0.4-0.4-0.3-0.7l0,0l0,0l0,0c0.1-0.2,0.5-0.4,0.8-0.3l0,0
					c0.3,0.1,0.4,0.4,0.3,0.7h0c-0.1,0.2-0.3,0.3-0.6,0.3l0,0C80.9,142.2,80.8,142.2,80.8,142.2z M-77.3,140.4L-77.3,140.4
					c-0.1-0.3,0-0.5,0.3-0.6l0,0c0.3-0.1,0.7,0,0.8,0.3l0,0c0.1,0.3,0,0.5-0.3,0.6l0,0c-0.1,0-0.2,0-0.2,0l0,0
					C-77,140.7-77.2,140.6-77.3,140.4z M82.3,139.2c-0.3-0.1-0.5-0.4-0.3-0.6l0,0c0.1-0.3,0.5-0.4,0.8-0.3l0,0
					c0.3,0.1,0.5,0.4,0.3,0.6l0,0c-0.1,0.2-0.3,0.3-0.6,0.3l0,0C82.5,139.2,82.4,139.2,82.3,139.2z M-78.8,137.3
					c-0.1-0.3,0.1-0.5,0.4-0.6l0,0c0.3-0.1,0.7,0,0.8,0.3l0,0c0.1,0.3-0.1,0.5-0.4,0.6l0,0c-0.1,0-0.1,0-0.2,0l0,0
					C-78.5,137.6-78.7,137.5-78.8,137.3z M83.7,136.1c-0.3-0.1-0.5-0.4-0.4-0.6l0,0c0.1-0.3,0.4-0.4,0.8-0.3l0,0
					c0.3,0.1,0.5,0.4,0.4,0.6l0,0c-0.1,0.2-0.3,0.3-0.6,0.3l0,0C83.8,136.1,83.8,136.1,83.7,136.1z M-80.1,134.1L-80.1,134.1
					c-0.1-0.3,0.1-0.5,0.4-0.6l0,0c0.3-0.1,0.7,0.1,0.7,0.3l0,0c0.1,0.3-0.1,0.5-0.4,0.6l0,0c-0.1,0-0.1,0-0.2,0l0,0
					C-79.7,134.5-80,134.4-80.1,134.1z M84.9,133c-0.3-0.1-0.5-0.3-0.4-0.6l0,0c0.1-0.3,0.4-0.4,0.7-0.3l0,0
					c0.3,0.1,0.5,0.3,0.4,0.6l0,0c-0.1,0.2-0.3,0.4-0.6,0.4l0,0C85,133,84.9,133,84.9,133z M-81.1,131L-81.1,131
					c-0.1-0.3,0.1-0.5,0.4-0.6l0,0c0.3-0.1,0.6,0.1,0.7,0.4l0,0c0.1,0.3-0.1,0.5-0.4,0.6l0,0c-0.1,0-0.1,0-0.2,0l0,0
					C-80.8,131.3-81.1,131.2-81.1,131z M85.9,129.8c-0.3-0.1-0.5-0.3-0.5-0.6l0,0c0.1-0.3,0.4-0.4,0.7-0.4l0,0
					c0.3,0.1,0.5,0.3,0.5,0.6l0,0c-0.1,0.2-0.3,0.4-0.6,0.4l0,0C86,129.8,86,129.8,85.9,129.8z M-82,127.7c-0.1-0.3,0.1-0.5,0.5-0.6
					l0,0c0.3-0.1,0.6,0.1,0.7,0.4l0,0l0,0l0,0c0.1,0.3-0.1,0.5-0.5,0.6l0,0c0,0-0.1,0-0.1,0l0,0C-81.7,128.1-82,128-82,127.7z
					 M86.8,126.6c-0.3,0-0.5-0.3-0.5-0.6l0,0c0.1-0.3,0.4-0.4,0.7-0.4l0,0c0.3,0,0.5,0.3,0.5,0.6l0,0c-0.1,0.2-0.3,0.4-0.6,0.4l0,0
					C86.8,126.6,86.8,126.6,86.8,126.6z M-82.8,124.5c0-0.3,0.2-0.5,0.5-0.6l0,0c0.3,0,0.6,0.1,0.7,0.4l0,0l0,0l0,0
					c0.1,0.3-0.2,0.5-0.5,0.6l0,0c0,0-0.1,0-0.1,0l0,0C-82.5,124.9-82.7,124.7-82.8,124.5z M87.4,123.3c-0.3,0-0.6-0.3-0.5-0.6l0,0
					c0-0.3,0.3-0.5,0.7-0.4l0,0c0.3,0,0.6,0.3,0.5,0.6l0,0C88,123.2,87.8,123.3,87.4,123.3L87.4,123.3
					C87.5,123.3,87.4,123.3,87.4,123.3z M-83.3,121.2c0-0.3,0.2-0.5,0.5-0.5l0,0c0.3,0,0.6,0.2,0.7,0.4l0,0c0,0.3-0.2,0.5-0.5,0.5
					l0,0c0,0,0,0-0.1,0l0,0C-83,121.6-83.3,121.5-83.3,121.2z M87.9,120.1c-0.3,0-0.6-0.3-0.5-0.5l0,0c0-0.3,0.3-0.5,0.7-0.4l0,0
					c0.3,0,0.6,0.3,0.5,0.5l0,0C88.5,119.9,88.2,120.1,87.9,120.1L87.9,120.1C87.9,120.1,87.9,120.1,87.9,120.1z M-83.6,117.9
					L-83.6,117.9c0-0.3,0.2-0.5,0.6-0.5l0,0c0.3,0,0.6,0.2,0.6,0.5l0,0c0,0.3-0.2,0.5-0.6,0.5l0,0c0,0,0,0,0,0l0,0
					C-83.4,118.4-83.6,118.2-83.6,117.9z M88.2,116.8c-0.3,0-0.6-0.2-0.6-0.5l0,0c0,0,0,0,0,0l0,0c0-0.3,0.3-0.5,0.6-0.5l0,0
					c0.3,0,0.6,0.2,0.6,0.5l0,0C88.8,116.6,88.5,116.8,88.2,116.8L88.2,116.8C88.2,116.8,88.2,116.8,88.2,116.8z M-83.8,114.6
					c0-0.3,0.3-0.5,0.6-0.5l0,0c0.3,0,0.6,0.2,0.6,0.5l0,0c0,0.3-0.3,0.5-0.6,0.5l0,0c0,0,0,0,0,0l0,0
					C-83.5,115.1-83.8,114.9-83.8,114.6z M87.7,113c0-0.3,0.3-0.5,0.6-0.5l0,0c0.3,0,0.6,0.2,0.6,0.5l0,0c0,0.3-0.3,0.5-0.6,0.5l0,0
					c0,0,0,0,0,0l0,0C87.9,113.5,87.7,113.3,87.7,113z M88.9,113L88.9,113L88.9,113L88.9,113z M-83.2,111.8c-0.3,0-0.6-0.2-0.6-0.5
					l0,0c0-0.3,0.3-0.5,0.6-0.5l0,0c0.3,0,0.6,0.2,0.6,0.5l0,0C-82.6,111.6-82.9,111.8-83.2,111.8L-83.2,111.8
					C-83.2,111.8-83.2,111.8-83.2,111.8z M87.5,109.8c0-0.3,0.2-0.5,0.6-0.5l0,0c0.3,0,0.6,0.2,0.6,0.5l0,0c0,0.3-0.2,0.5-0.6,0.5
					l0,0c0,0,0,0,0,0l0,0C87.8,110.2,87.6,110,87.5,109.8z M-83,108.5c-0.3,0-0.6-0.3-0.6-0.5l0,0c0-0.3,0.3-0.5,0.6-0.5l0,0
					c0.3,0,0.6,0.3,0.6,0.5l0,0c0,0,0,0,0,0l0,0C-82.4,108.3-82.7,108.5-83,108.5L-83,108.5C-83,108.5-83,108.5-83,108.5z
					 M87.3,106.5c0-0.3,0.2-0.5,0.5-0.5l0,0c0.3,0,0.6,0.2,0.7,0.4l0,0c0,0.3-0.2,0.5-0.5,0.5l0,0c0,0,0,0-0.1,0l0,0
					C87.5,107,87.3,106.8,87.3,106.5z M-82.7,105.2c-0.3,0-0.6-0.3-0.5-0.5l0,0c0-0.3,0.3-0.5,0.7-0.4l0,0c0.3,0,0.6,0.3,0.5,0.5
					l0,0C-82,105.1-82.3,105.2-82.7,105.2L-82.7,105.2C-82.6,105.2-82.6,105.2-82.7,105.2z M86.8,103.3c0-0.3,0.2-0.5,0.5-0.6l0,0
					c0.3,0,0.6,0.1,0.7,0.4l0,0c0,0.3-0.2,0.5-0.5,0.6l0,0c0,0-0.1,0-0.1,0l0,0C87.1,103.7,86.8,103.5,86.8,103.3z M-82.1,102
					c-0.3,0-0.5-0.3-0.5-0.6l0,0c0.1-0.3,0.4-0.4,0.7-0.4l0,0c0.3,0,0.5,0.3,0.5,0.6l0,0c0,0.2-0.3,0.4-0.6,0.4l0,0
					C-82,102-82.1,102-82.1,102z M86.1,100.1c-0.1-0.3,0.2-0.5,0.5-0.6l0,0c0.3-0.1,0.6,0.1,0.7,0.4l0,0c0.1,0.3-0.2,0.5-0.5,0.6
					l0,0c0,0-0.1,0-0.1,0l0,0C86.4,100.4,86.2,100.3,86.1,100.1z M-81.4,98.8c-0.3-0.1-0.5-0.3-0.5-0.6l0,0c0.1-0.3,0.4-0.4,0.7-0.4
					l0,0c0.3,0.1,0.5,0.3,0.5,0.6l0,0c-0.1,0.2-0.3,0.4-0.6,0.4l0,0C-81.3,98.8-81.3,98.8-81.4,98.8z M85.3,96.9
					c-0.1-0.3,0.1-0.5,0.4-0.6l0,0c0.3-0.1,0.6,0.1,0.7,0.4l0,0c0.1,0.3-0.1,0.5-0.4,0.6l0,0c0,0-0.1,0-0.1,0l0,0
					C85.6,97.2,85.3,97.1,85.3,96.9z M-80.4,95.6c-0.3-0.1-0.5-0.3-0.4-0.6l0,0c0.1-0.3,0.4-0.4,0.7-0.3l0,0
					c0.3,0.1,0.5,0.3,0.4,0.6l0,0c-0.1,0.2-0.3,0.4-0.6,0.4l0,0C-80.3,95.6-80.4,95.6-80.4,95.6z M84.2,93.7
					c-0.1-0.3,0.1-0.5,0.4-0.6l0,0c0.3-0.1,0.7,0.1,0.7,0.3l0,0c0.1,0.3-0.1,0.5-0.4,0.6l0,0c-0.1,0-0.1,0-0.2,0l0,0
					C84.6,94.1,84.3,93.9,84.2,93.7z M-79.3,92.4c-0.3-0.1-0.5-0.4-0.4-0.6l0,0c0.1-0.3,0.4-0.4,0.8-0.3l0,0
					c0.3,0.1,0.5,0.4,0.4,0.6l0,0c-0.1,0.2-0.3,0.3-0.6,0.3l0,0C-79.2,92.4-79.3,92.4-79.3,92.4z M83,90.6c-0.1-0.3,0.1-0.5,0.4-0.6
					l0,0c0.3-0.1,0.7,0,0.8,0.3l0,0c0.1,0.3-0.1,0.5-0.4,0.6l0,0c-0.1,0-0.1,0-0.2,0l0,0C83.3,90.9,83.1,90.8,83,90.6z M-78.1,89.3
					c-0.3-0.1-0.5-0.4-0.4-0.6l0,0c0.1-0.3,0.5-0.4,0.8-0.3l0,0c0.3,0.1,0.5,0.4,0.4,0.6l0,0c-0.1,0.2-0.3,0.3-0.6,0.3l0,0
					C-77.9,89.3-78,89.3-78.1,89.3z M81.6,87.5c-0.1-0.3,0-0.5,0.3-0.6l0,0c0.3-0.1,0.7,0,0.8,0.3l0,0c0.1,0.3,0,0.5-0.3,0.6l0,0
					c-0.1,0-0.1,0-0.2,0l0,0C82,87.8,81.7,87.7,81.6,87.5z M-76.6,86.2c-0.3-0.1-0.4-0.4-0.3-0.6l0,0c0.1-0.3,0.5-0.4,0.8-0.3l0,0
					c0.3,0.1,0.4,0.4,0.3,0.6l0,0c-0.1,0.2-0.3,0.3-0.6,0.3l0,0C-76.5,86.3-76.5,86.3-76.6,86.2z M80.1,84.5c-0.1-0.2,0-0.5,0.3-0.7
					l0,0c0.3-0.1,0.7,0,0.8,0.2l0,0c0.1,0.2,0,0.5-0.3,0.7l0,0c-0.1,0-0.2,0-0.2,0l0,0C80.4,84.8,80.2,84.7,80.1,84.5z M-75,83.2
					c-0.3-0.1-0.4-0.4-0.3-0.7l0,0c0.1-0.2,0.5-0.3,0.8-0.2l0,0c0.3,0.1,0.4,0.4,0.3,0.7l0,0c-0.1,0.2-0.3,0.3-0.5,0.3l0,0
					C-74.8,83.3-74.9,83.3-75,83.2z M78.3,81.6c-0.2-0.2,0-0.5,0.3-0.7l0,0c0.3-0.1,0.7,0,0.8,0.2l0,0c0.1,0.2,0,0.5-0.3,0.7l0,0
					c-0.1,0-0.2,0.1-0.3,0.1l0,0C78.7,81.9,78.5,81.8,78.3,81.6z M-73.2,80.3c-0.3-0.1-0.4-0.4-0.2-0.7l0,0c0.2-0.2,0.5-0.3,0.8-0.2
					l0,0c0.3,0.1,0.4,0.4,0.2,0.7l0,0l0,0l0,0c-0.1,0.2-0.3,0.3-0.5,0.3l0,0C-73,80.4-73.1,80.4-73.2,80.3z M76.4,78.7
					c-0.2-0.2-0.1-0.5,0.2-0.7l0,0c0.3-0.1,0.7-0.1,0.8,0.2l0,0c0.2,0.2,0.1,0.5-0.2,0.7l0,0c-0.1,0-0.2,0.1-0.3,0.1l0,0
					C76.8,79,76.6,78.9,76.4,78.7z M-71.2,77.5c-0.3-0.1-0.4-0.4-0.2-0.7l0,0c0.2-0.2,0.5-0.3,0.8-0.2l0,0c0.3,0.1,0.4,0.4,0.2,0.7
					l0,0c-0.1,0.2-0.3,0.2-0.5,0.2l0,0C-71,77.5-71.1,77.5-71.2,77.5z M74.4,75.9c-0.2-0.2-0.1-0.5,0.2-0.7l0,0
					c0.3-0.1,0.7-0.1,0.8,0.2l0,0c0.2,0.2,0.1,0.5-0.2,0.7l0,0c-0.1,0.1-0.2,0.1-0.3,0.1l0,0C74.7,76.1,74.5,76.1,74.4,75.9z
					 M-69.1,74.7c-0.3-0.2-0.3-0.5-0.2-0.7l0,0c0.2-0.2,0.6-0.3,0.8-0.1l0,0c0.3,0.2,0.3,0.5,0.2,0.7l0,0c-0.1,0.1-0.3,0.2-0.5,0.2
					l0,0C-68.9,74.8-69,74.7-69.1,74.7z M72.2,73.2c-0.2-0.2-0.1-0.5,0.1-0.7l0,0c0.3-0.2,0.6-0.1,0.8,0.1v0
					c0.2,0.2,0.1,0.5-0.1,0.7l0,0c-0.1,0.1-0.2,0.1-0.3,0.1l0,0C72.5,73.4,72.3,73.3,72.2,73.2z M-66.8,72c-0.3-0.2-0.3-0.5-0.1-0.7
					l0,0c0.2-0.2,0.6-0.3,0.8-0.1l0,0c0.3,0.2,0.3,0.5,0.1,0.7l0,0c-0.1,0.1-0.3,0.2-0.5,0.2l0,0C-66.6,72.1-66.7,72-66.8,72z
					 M69.8,70.6c-0.2-0.2-0.2-0.5,0.1-0.7l0,0c0.3-0.2,0.6-0.1,0.8,0.1l0,0c0.2,0.2,0.2,0.5-0.1,0.7l0,0c-0.1,0.1-0.2,0.1-0.4,0.1
					l0,0C70.1,70.8,69.9,70.7,69.8,70.6z M-64.4,69.4c-0.3-0.2-0.3-0.5-0.1-0.7l0,0c0.2-0.2,0.6-0.2,0.8-0.1l0,0
					c0.3,0.2,0.3,0.5,0.1,0.7l0,0c-0.1,0.1-0.3,0.2-0.5,0.2l0,0C-64.1,69.5-64.3,69.4-64.4,69.4z M67.3,68c-0.2-0.2-0.2-0.5,0.1-0.7
					l0,0c0.3-0.2,0.6-0.2,0.8,0.1l0,0c0.2,0.2,0.2,0.5-0.1,0.7l0,0c-0.1,0.1-0.3,0.1-0.4,0.1l0,0C67.6,68.2,67.4,68.2,67.3,68z
					 M-61.8,66.9c-0.2-0.2-0.3-0.5,0-0.7v0c0.2-0.2,0.6-0.2,0.8,0l0,0c0.2,0.2,0.3,0.5,0,0.7l0,0c-0.1,0.1-0.3,0.2-0.4,0.2l0,0
					C-61.5,67-61.7,66.9-61.8,66.9z M64.6,65.6c-0.2-0.2-0.2-0.5,0-0.7l0,0c0.2-0.2,0.6-0.2,0.8,0l0,0c0.2,0.2,0.2,0.5,0,0.7l0,0
					c-0.1,0.1-0.3,0.1-0.4,0.1l0,0C64.9,65.8,64.8,65.7,64.6,65.6z M-59.1,64.4c-0.2-0.2-0.2-0.5,0-0.7l0,0c0.2-0.2,0.6-0.2,0.9,0
					l0,0c0.2,0.2,0.2,0.5,0,0.7l0,0l0,0l0,0c-0.1,0.1-0.3,0.1-0.4,0.1l0,0C-58.8,64.6-59,64.5-59.1,64.4z M61.9,63.3
					c-0.2-0.2-0.2-0.5,0-0.7l0,0c0.2-0.2,0.6-0.2,0.8,0l0,0c0.2,0.2,0.2,0.5,0,0.7l0,0c-0.1,0.1-0.3,0.2-0.4,0.2l0,0
					C62.1,63.4,62,63.4,61.9,63.3z M-56.2,62.1c-0.2-0.2-0.2-0.5,0-0.7l0,0c0.2-0.2,0.6-0.2,0.8,0l0,0c0.2,0.2,0.2,0.5,0,0.7l0,0
					l0,0l0,0c-0.1,0.1-0.3,0.1-0.4,0.1l0,0C-55.9,62.3-56.1,62.2-56.2,62.1z M58.9,61.1c-0.2-0.2-0.3-0.5-0.1-0.7l0,0
					c0.2-0.2,0.6-0.2,0.8,0l0,0c0.2,0.2,0.3,0.5,0.1,0.7l0,0c-0.1,0.1-0.3,0.2-0.5,0.2l0,0C59.2,61.2,59.1,61.1,58.9,61.1z
					 M-53.2,59.9c-0.2-0.2-0.2-0.5,0.1-0.7l0,0c0.3-0.2,0.6-0.2,0.8,0.1l0,0c0.2,0.2,0.2,0.5-0.1,0.7l0,0c-0.1,0.1-0.3,0.1-0.4,0.1
					l0,0C-53,60.1-53.1,60.1-53.2,59.9z M55.9,59c-0.3-0.2-0.3-0.5-0.1-0.7l0,0c0.2-0.2,0.6-0.2,0.8-0.1l0,0
					c0.3,0.2,0.3,0.5,0.1,0.7l0,0c-0.1,0.1-0.3,0.2-0.5,0.2l0,0C56.2,59.1,56,59,55.9,59z M-50.1,57.9c-0.2-0.2-0.2-0.5,0.1-0.7l0,0
					c0.3-0.2,0.6-0.1,0.8,0.1l0,0c0.2,0.2,0.2,0.5-0.1,0.7l0,0l0,0l0,0c-0.1,0.1-0.2,0.1-0.4,0.1l0,0C-49.8,58.1-50,58-50.1,57.9z
					 M52.8,57c-0.3-0.2-0.3-0.5-0.1-0.7l0,0c0.2-0.2,0.6-0.3,0.8-0.1l0,0c0.3,0.2,0.3,0.5,0.1,0.7l0,0c-0.1,0.1-0.3,0.2-0.5,0.2l0,0
					C53,57.1,52.9,57,52.8,57z M-46.9,55.9c-0.2-0.2-0.1-0.5,0.1-0.7l0,0c0.3-0.2,0.6-0.1,0.8,0.1l0,0c0.2,0.2,0.1,0.5-0.1,0.7l0,0
					l0,0l0,0c-0.1,0.1-0.2,0.1-0.3,0.1l0,0C-46.6,56.1-46.8,56-46.9,55.9z M49.5,55.1c-0.3-0.2-0.4-0.5-0.2-0.7l0,0
					c0.2-0.2,0.6-0.3,0.8-0.1l0,0c0.3,0.2,0.4,0.5,0.2,0.7l0,0c-0.1,0.1-0.3,0.2-0.5,0.2l0,0C49.7,55.2,49.6,55.2,49.5,55.1z
					 M-43.6,54.1c-0.2-0.2-0.1-0.5,0.2-0.7l0,0c0.3-0.1,0.7-0.1,0.8,0.2l0,0c0.2,0.2,0.1,0.5-0.2,0.7l0,0c0,0,0,0,0,0l0,0
					c-0.1,0-0.2,0.1-0.3,0.1l0,0C-43.3,54.3-43.5,54.2-43.6,54.1z M46.1,53.4c-0.3-0.1-0.4-0.4-0.2-0.7l0,0c0.2-0.2,0.5-0.3,0.8-0.2
					l0,0c0.3,0.1,0.4,0.4,0.2,0.7l0,0c-0.1,0.2-0.3,0.2-0.5,0.2l0,0C46.3,53.4,46.2,53.4,46.1,53.4z M-40.2,52.4
					c-0.2-0.2-0.1-0.5,0.2-0.7l0,0c0.3-0.1,0.7-0.1,0.8,0.2l0,0c0.2,0.2,0.1,0.5-0.2,0.7l0,0c-0.1,0-0.2,0.1-0.3,0.1l0,0
					C-39.9,52.6-40.1,52.5-40.2,52.4z M42.7,51.8c-0.3-0.1-0.4-0.4-0.2-0.7l0,0c0.2-0.2,0.5-0.3,0.8-0.2l0,0
					c0.3,0.1,0.4,0.4,0.2,0.7l0,0c-0.1,0.2-0.3,0.3-0.5,0.3l0,0C42.9,51.8,42.8,51.8,42.7,51.8z M-36.6,50.8c-0.1-0.2,0-0.5,0.3-0.7
					l0,0c0.3-0.1,0.7,0,0.8,0.2l0,0c0.1,0.2,0,0.5-0.3,0.7l0,0c-0.1,0-0.2,0.1-0.3,0.1l0,0C-36.3,51.1-36.5,51-36.6,50.8z
					 M39.1,50.3c-0.3-0.1-0.4-0.4-0.3-0.7l0,0c0.1-0.2,0.5-0.4,0.8-0.2l0,0c0.3,0.1,0.4,0.4,0.3,0.7l0,0c-0.1,0.2-0.3,0.3-0.5,0.3
					l0,0C39.3,50.3,39.2,50.3,39.1,50.3z M-33,49.3c-0.1-0.2,0-0.5,0.3-0.7h0c0.3-0.1,0.7,0,0.8,0.2l0,0c0.1,0.2,0,0.5-0.3,0.7l0,0
					c-0.1,0-0.2,0-0.2,0l0,0C-32.7,49.6-32.9,49.5-33,49.3z M35.5,49C35.5,49,35.5,49,35.5,49L35.5,49c-0.3-0.1-0.5-0.4-0.3-0.6l0,0
					c0.1-0.2,0.5-0.4,0.8-0.3l0,0c0.3,0.1,0.4,0.4,0.3,0.6l0,0C36.2,48.9,36,49,35.8,49l0,0C35.7,49,35.6,49,35.5,49z M-29.4,48
					c-0.1-0.3,0-0.5,0.3-0.6l0,0c0.3-0.1,0.7,0,0.8,0.3l0,0c0.1,0.3,0,0.5-0.3,0.6l0,0l0,0l0,0c-0.1,0-0.1,0-0.2,0l0,0
					C-29,48.4-29.3,48.2-29.4,48z M31.8,47.8L31.8,47.8L31.8,47.8c-0.3-0.1-0.5-0.4-0.4-0.6l0,0c0.1-0.3,0.5-0.4,0.8-0.3l0,0
					c0.3,0.1,0.5,0.4,0.4,0.6l0,0c-0.1,0.2-0.3,0.3-0.6,0.3l0,0C32,47.8,31.9,47.8,31.8,47.8z M-25.6,46.9c-0.1-0.3,0.1-0.5,0.4-0.6
					l0,0c0.3-0.1,0.7,0.1,0.8,0.3l0,0c0.1,0.3-0.1,0.5-0.4,0.6l0,0c-0.1,0-0.1,0-0.2,0l0,0C-25.3,47.2-25.5,47.1-25.6,46.9z
					 M28.1,46.7C28.1,46.7,28.1,46.7,28.1,46.7L28.1,46.7c-0.3-0.1-0.5-0.4-0.4-0.6l0,0c0.1-0.3,0.4-0.4,0.8-0.3l0,0
					c0.3,0.1,0.5,0.4,0.4,0.6l0,0c-0.1,0.2-0.3,0.3-0.6,0.3l0,0C28.2,46.7,28.1,46.7,28.1,46.7z M-21.8,45.9
					c-0.1-0.3,0.1-0.5,0.4-0.6l0,0c0.3-0.1,0.7,0.1,0.7,0.3l0,0c0.1,0.3-0.1,0.5-0.4,0.6l0,0c-0.1,0-0.1,0-0.2,0l0,0
					C-21.5,46.2-21.7,46.1-21.8,45.9z M24.2,45.8c-0.3-0.1-0.5-0.3-0.4-0.6l0,0c0.1-0.3,0.4-0.4,0.7-0.4l0,0
					c0.3,0.1,0.5,0.3,0.4,0.6l0,0c-0.1,0.2-0.3,0.4-0.6,0.4l0,0C24.3,45.8,24.3,45.8,24.2,45.8z M-17.9,45c-0.1-0.3,0.1-0.5,0.4-0.6
					l0,0c0.3-0.1,0.6,0.1,0.7,0.4l0,0c0.1,0.3-0.1,0.5-0.4,0.6l0,0c0,0,0,0,0,0l0,0c0,0-0.1,0-0.1,0l0,0
					C-17.6,45.4-17.8,45.3-17.9,45z M20.4,45.1c-0.3-0.1-0.5-0.3-0.5-0.6l0,0c0.1-0.3,0.4-0.4,0.7-0.4l0,0c0.3,0.1,0.5,0.3,0.5,0.6
					l0,0c-0.1,0.2-0.3,0.4-0.6,0.4l0,0C20.5,45.1,20.4,45.1,20.4,45.1z M-14,44.3c-0.1-0.3,0.2-0.5,0.5-0.6l0,0
					c0.3-0.1,0.6,0.1,0.7,0.4l0,0c0.1,0.3-0.2,0.5-0.5,0.6l0,0c0,0-0.1,0-0.1,0l0,0C-13.7,44.7-13.9,44.6-14,44.3z M16.5,44.5
					L16.5,44.5L16.5,44.5c-0.3,0-0.5-0.3-0.5-0.6l0,0c0.1-0.3,0.4-0.5,0.7-0.4l0,0c0.3,0,0.5,0.3,0.5,0.6l0,0
					C17.1,44.3,16.9,44.5,16.5,44.5L16.5,44.5C16.5,44.5,16.5,44.5,16.5,44.5z M-10.1,43.8c0-0.3,0.2-0.5,0.5-0.6l0,0
					c0.3,0,0.6,0.2,0.7,0.4l0,0c0,0.3-0.2,0.5-0.5,0.6l0,0c0,0-0.1,0-0.1,0l0,0C-9.8,44.2-10,44-10.1,43.8z M12.5,44
					c-0.3,0-0.6-0.3-0.5-0.5l0,0c0-0.3,0.3-0.5,0.7-0.4l0,0c0.3,0,0.6,0.3,0.5,0.5l0,0C13.2,43.8,12.9,44,12.5,44L12.5,44
					C12.6,44,12.6,44,12.5,44z M-6.1,43.4c0-0.3,0.2-0.5,0.5-0.5l0,0c0.3,0,0.6,0.2,0.7,0.4l0,0c0,0.3-0.2,0.5-0.5,0.5l0,0
					c0,0,0,0-0.1,0l0,0C-5.8,43.8-6.1,43.6-6.1,43.4z M8.6,43.7c-0.3,0-0.6-0.3-0.6-0.5l0,0c0-0.3,0.3-0.5,0.6-0.5l0,0
					c0.3,0,0.6,0.3,0.6,0.5l0,0C9.2,43.5,8.9,43.7,8.6,43.7L8.6,43.7C8.6,43.7,8.6,43.7,8.6,43.7z M-2.1,43.1c0-0.3,0.2-0.5,0.6-0.5
					l0,0c0.3,0,0.6,0.2,0.6,0.5l0,0c0,0.3-0.2,0.5-0.6,0.5l0,0c0,0,0,0,0,0l0,0C-1.8,43.6-2.1,43.4-2.1,43.1z M4.6,43.5
					C4.6,43.5,4.6,43.5,4.6,43.5L4.6,43.5C4.3,43.5,4,43.3,4,43l0,0c0-0.3,0.3-0.5,0.6-0.5h0c0.3,0,0.6,0.2,0.6,0.5l0,0
					C5.2,43.3,4.9,43.5,4.6,43.5L4.6,43.5C4.6,43.5,4.6,43.5,4.6,43.5z M1.9,43c0-0.3,0.3-0.5,0.6-0.5l0,0c0.3,0,0.6,0.2,0.6,0.5
					l0,0c0,0.3-0.3,0.5-0.6,0.5l0,0C2.2,43.5,1.9,43.3,1.9,43z"/>
			</g>
		</g>
		<g>
			<g>
				<linearGradient id="SVGID_37_" gradientUnits="userSpaceOnUse" x1="0.277" y1="113.38" x2="24.8581" y2="113.38">
					<stop  offset="0" style="stop-color:#07B9FD"/>
					<stop  offset="1" style="stop-color:#002898;stop-opacity:0"/>
				</linearGradient>
				<path class="st35" d="M2.5,135.8c-0.5,0-1,0-1.4,0l0.4-6.6c0.5,0,1.1,0,1.7,0l0.3,6.6C3.1,135.8,2.8,135.8,2.5,135.8z
					 M5.8,135.7l-0.9-6.5c0.5-0.1,1.1-0.1,1.6-0.2l1.6,6.4C7.3,135.5,6.5,135.6,5.8,135.7z M-1.3,135.6c-0.8-0.1-1.5-0.2-2.3-0.3
					l1.8-6.4c0.5,0.1,1.1,0.2,1.6,0.2L-1.3,135.6z M10.4,134.9l-2.3-6.3c0.5-0.1,1.1-0.3,1.6-0.4l3,6.1
					C11.8,134.5,11.1,134.7,10.4,134.9z M-5.8,134.7c-0.7-0.2-1.5-0.4-2.2-0.7l3.1-6.1c0.5,0.2,1,0.3,1.6,0.5L-5.8,134.7z
					 M14.7,133.5l-3.6-5.9c0.5-0.2,1-0.4,1.4-0.7l4.2,5.6C16.1,132.9,15.4,133.2,14.7,133.5z M-10.2,133.3c-0.7-0.3-1.4-0.6-2-1
					l4.3-5.5c0.5,0.2,0.9,0.5,1.4,0.7L-10.2,133.3z M18.7,131.5l-4.8-5.3c0.4-0.3,0.9-0.6,1.3-0.9l5.3,4.9
					C20,130.7,19.3,131.1,18.7,131.5z M-14.1,131.2c-0.6-0.4-1.2-0.8-1.8-1.2l5.4-4.9c0.4,0.3,0.8,0.6,1.3,0.9L-14.1,131.2z
					 M22.2,128.9l-5.8-4.6c0.4-0.3,0.8-0.7,1.1-1l6.2,4.1C23.3,128,22.8,128.5,22.2,128.9z M-17.6,128.6c-0.5-0.5-1-1-1.5-1.5l6.3-4
					c0.3,0.4,0.7,0.7,1.1,1L-17.6,128.6z M25.2,125.9l-6.6-3.7c0.3-0.4,0.6-0.8,0.9-1.2l7,3.2C26,124.9,25.6,125.4,25.2,125.9z
					 M-20.4,125.6c-0.4-0.5-0.8-1.1-1.2-1.7l7.1-3.1c0.3,0.4,0.5,0.8,0.8,1.2L-20.4,125.6z M27.5,122.6l-7.3-2.7
					c0.2-0.4,0.4-0.8,0.6-1.3l7.6,2.2C28.1,121.4,27.8,122,27.5,122.6z M-22.6,122.2c-0.3-0.6-0.6-1.2-0.8-1.8l7.6-2
					c0.2,0.4,0.4,0.9,0.6,1.3L-22.6,122.2z M29,118.9l-7.8-1.6c0.1-0.4,0.3-0.9,0.3-1.3l7.9,1.1C29.4,117.7,29.2,118.3,29,118.9z
					 M-24.1,118.5c-0.2-0.6-0.3-1.3-0.4-1.9l7.9-0.9c0.1,0.4,0.2,0.9,0.3,1.3L-24.1,118.5z M29.8,115.1l-8-0.5
					c0-0.4,0.1-0.8,0.1-1.3l0-0.1l8,0l0,0.2C29.9,114,29.8,114.6,29.8,115.1z M-24.8,114.7c0-0.4,0-0.9,0-1.3c0-0.2,0-0.4,0-0.6
					l8,0.2c0,0.1,0,0.3,0,0.4c0,0.3,0,0.6,0,1L-24.8,114.7z M21.8,111.9c-0.1-0.5-0.1-0.9-0.2-1.3l7.9-1.2c0.1,0.6,0.2,1.3,0.3,1.9
					L21.8,111.9z M-16.7,111.6l-8-0.7c0.1-0.6,0.2-1.3,0.4-1.9l7.9,1.3C-16.5,110.7-16.6,111.2-16.7,111.6z M21.2,109.2
					c-0.1-0.4-0.3-0.9-0.5-1.3l7.5-2.3c0.3,0.6,0.5,1.2,0.7,1.8L21.2,109.2z M-16,108.9l-7.7-1.8c0.2-0.6,0.5-1.2,0.8-1.8l7.5,2.4
					C-15.7,108.1-15.9,108.5-16,108.9z M20,106.7c-0.2-0.4-0.5-0.8-0.8-1.2l6.9-3.3c0.4,0.6,0.8,1.1,1.1,1.7L20,106.7z M-14.8,106.4
					l-7.2-2.9c0.3-0.6,0.7-1.1,1.1-1.7l6.9,3.4C-14.3,105.6-14.6,106-14.8,106.4z M18.4,104.3c-0.3-0.4-0.7-0.7-1-1.1l6.2-4.2
					c0.5,0.5,1,1,1.4,1.5L18.4,104.3z M-13.1,104.1l-6.5-3.9c0.5-0.5,0.9-1,1.5-1.5l6.1,4.3C-12.5,103.4-12.8,103.7-13.1,104.1z
					 M16.3,102.2c-0.4-0.3-0.8-0.6-1.2-0.9l5.2-5c0.6,0.4,1.2,0.9,1.7,1.3L16.3,102.2z M-11,102l-5.6-4.7c0.6-0.4,1.1-0.9,1.7-1.3
					l5.1,5.1C-10.2,101.4-10.6,101.7-11,102z M13.7,100.5c-0.4-0.3-0.9-0.5-1.4-0.7l4.1-5.7c0.7,0.3,1.3,0.7,2,1.1L13.7,100.5z
					 M-8.4,100.3l-4.5-5.4c0.6-0.4,1.3-0.7,2-1l4,5.7C-7.5,99.8-7.9,100-8.4,100.3z M10.9,99.1c-0.5-0.2-1-0.4-1.5-0.5l2.8-6.1
					c0.7,0.2,1.5,0.5,2.2,0.8L10.9,99.1z M-5.5,99l-3.3-6c0.7-0.3,1.4-0.5,2.2-0.7l2.7,6.2C-4.5,98.6-5,98.8-5.5,99z M7.8,98.1
					c-0.5-0.1-1.1-0.2-1.6-0.3l1.5-6.5c0.8,0.1,1.5,0.3,2.3,0.4L7.8,98.1z M-2.4,98l-2-6.4c0.8-0.2,1.5-0.3,2.3-0.4l1.4,6.5
					C-1.3,97.8-1.9,97.9-2.4,98z M4.6,97.6c-0.5,0-1.1-0.1-1.7-0.1L3.1,91c0.8,0,1.6,0.1,2.3,0.1L4.6,97.6z M0.9,97.6L0.2,91
					C1,91,1.7,90.9,2.5,90.9v6.6C2,97.5,1.4,97.5,0.9,97.6z"/>
			</g>
		</g>
		<g>
			<linearGradient id="SVGID_38_" gradientUnits="userSpaceOnUse" x1="7.0489" y1="113.3801" x2="50.8371" y2="113.3801">
				<stop  offset="0" style="stop-color:#07B9FD"/>
				<stop  offset="1" style="stop-color:#002898;stop-opacity:0"/>
			</linearGradient>
			<path class="st36" d="M2.5,68.9c-29.9,0-54.2,19.9-54.2,44.4c0,24.5,24.2,44.4,54.2,44.4c29.9,0,54.2-19.9,54.2-44.4
				C56.7,88.8,32.4,68.9,2.5,68.9z M2.5,147.5c-22.9,0-41.5-15.3-41.5-34.1s18.6-34.1,41.5-34.1s41.5,15.3,41.5,34.1
				S25.5,147.5,2.5,147.5z"/>
		</g>
		<linearGradient id="SVGID_39_" gradientUnits="userSpaceOnUse" x1="9.183415e-02" y1="113.3801" x2="49.9644" y2="113.3801">
			<stop  offset="0" style="stop-color:#002898"/>
			<stop  offset="0.2091" style="stop-color:#011F7F"/>
			<stop  offset="0.5419" style="stop-color:#01145D"/>
			<stop  offset="0.8175" style="stop-color:#020D49"/>
			<stop  offset="1" style="stop-color:#020A41"/>
		</linearGradient>
		<path class="st37" d="M2.5,75.4c-25.6,0-46.3,17-46.3,38c0,21,20.7,38,46.3,38s46.3-17,46.3-38C48.8,92.4,28.1,75.4,2.5,75.4z
			 M2.5,149c-24,0-43.4-15.9-43.4-35.6s19.4-35.6,43.4-35.6s43.4,15.9,43.4,35.6S26.5,149,2.5,149z"/>
		<linearGradient id="SVGID_40_" gradientUnits="userSpaceOnUse" x1="-1.1131" y1="113.3801" x2="73.5154" y2="113.3801">
			<stop  offset="0" style="stop-color:#002898"/>
			<stop  offset="0.2091" style="stop-color:#011F7F"/>
			<stop  offset="0.5419" style="stop-color:#01145D"/>
			<stop  offset="0.8175" style="stop-color:#020D49"/>
			<stop  offset="1" style="stop-color:#020A41"/>
		</linearGradient>
		<path class="st38" d="M2.5,56.6c-38.2,0-69.2,25.4-69.2,56.8s31,56.8,69.2,56.8s69.2-25.4,69.2-56.8S40.8,56.6,2.5,56.6z
			 M2.5,169.7c-37.9,0-68.6-25.2-68.6-56.3s30.7-56.3,68.6-56.3c37.9,0,68.6,25.2,68.6,56.3S40.4,169.7,2.5,169.7z"/>
		<linearGradient id="SVGID_41_" gradientUnits="userSpaceOnUse" x1="-0.4226" y1="113.3801" x2="60.0197" y2="113.3801">
			<stop  offset="0" style="stop-color:#002898"/>
			<stop  offset="0.2091" style="stop-color:#011F7F"/>
			<stop  offset="0.5419" style="stop-color:#01145D"/>
			<stop  offset="0.8175" style="stop-color:#020D49"/>
			<stop  offset="1" style="stop-color:#020A41"/>
		</linearGradient>
		<path class="st39" d="M2.5,67.4c-31,0-56.1,20.6-56.1,46c0,25.4,25.1,46,56.1,46s56.1-20.6,56.1-46C58.6,88,33.5,67.4,2.5,67.4z
			 M2.5,159c-30.7,0-55.5-20.4-55.5-45.6s24.9-45.6,55.5-45.6s55.5,20.4,55.5,45.6S33.2,159,2.5,159z"/>
		<g>
			<g>
				<linearGradient id="SVGID_42_" gradientUnits="userSpaceOnUse" x1="47.7924" y1="113.3801" x2="22.6482" y2="113.3801">
					<stop  offset="0" style="stop-color:#00CDFD"/>
					<stop  offset="1" style="stop-color:#002898;stop-opacity:0"/>
				</linearGradient>
				<path class="st40" d="M2.5,84.3c-19.5,0-35.4,13-35.4,29c0,16,15.8,29,35.4,29s35.4-13,35.4-29C37.9,97.3,22.1,84.3,2.5,84.3z
					 M2.5,140.6c-18.3,0-33.2-12.2-33.2-27.2c0-15,14.9-27.2,33.2-27.2s33.2,12.2,33.2,27.2C35.7,128.4,20.9,140.6,2.5,140.6z"/>
			</g>
		</g>
		<g>
			<g>
				<linearGradient id="SVGID_43_" gradientUnits="userSpaceOnUse" x1="95.7599" y1="84.4913" x2="7.8976" y2="84.4913">
					<stop  offset="0" style="stop-color:#07B9FD"/>
					<stop  offset="1" style="stop-color:#002898;stop-opacity:0"/>
				</linearGradient>
				<path class="st41" d="M91.3,108.1h4.1c-1.5-18.2-10.8-34.7-25.2-47.2l-2.9,2.3C80.9,75.1,89.8,90.8,91.3,108.1z"/>
			</g>
			<g>
				<linearGradient id="SVGID_44_" gradientUnits="userSpaceOnUse" x1="95.7598" y1="47.7801" x2="7.8975" y2="47.7801">
					<stop  offset="0" style="stop-color:#07B9FD"/>
					<stop  offset="1" style="stop-color:#002898;stop-opacity:0"/>
				</linearGradient>
				<path class="st42" d="M61.2,58.5l2.9-2.4c-15.4-11.2-35.4-18.2-57.4-19v3.3C27.6,41.2,46.5,47.9,61.2,58.5z"/>
			</g>
			<g>
				<linearGradient id="SVGID_45_" gradientUnits="userSpaceOnUse" x1="95.7598" y1="84.4913" x2="7.8978" y2="84.4913">
					<stop  offset="0" style="stop-color:#07B9FD"/>
					<stop  offset="1" style="stop-color:#002898;stop-opacity:0"/>
				</linearGradient>
				<path class="st43" d="M-62.2,63.3l-2.9-2.3c-14.4,12.5-23.7,29-25.2,47.2h4.1C-84.8,90.8-75.9,75.1-62.2,63.3z"/>
			</g>
			<g>
				<linearGradient id="SVGID_46_" gradientUnits="userSpaceOnUse" x1="95.7597" y1="47.7801" x2="7.8974" y2="47.7801">
					<stop  offset="0" style="stop-color:#07B9FD"/>
					<stop  offset="1" style="stop-color:#002898;stop-opacity:0"/>
				</linearGradient>
				<path class="st44" d="M-1.7,40.4v-3.3c-22,0.8-42,7.8-57.4,19l2.9,2.4C-41.5,47.9-22.5,41.2-1.7,40.4z"/>
			</g>
			<g>
				<linearGradient id="SVGID_47_" gradientUnits="userSpaceOnUse" x1="95.7599" y1="178.0945" x2="7.8977" y2="178.0945">
					<stop  offset="0" style="stop-color:#07B9FD"/>
					<stop  offset="1" style="stop-color:#002898;stop-opacity:0"/>
				</linearGradient>
				<path class="st45" d="M6.7,186.4v3.3c23.1-0.8,44-8.6,59.8-20.8l-2.9-2.3C48.6,178.1,28.7,185.5,6.7,186.4z"/>
			</g>
			<g>
				<linearGradient id="SVGID_48_" gradientUnits="userSpaceOnUse" x1="95.7598" y1="139.438" x2="7.8977" y2="139.438">
					<stop  offset="0" style="stop-color:#07B9FD"/>
					<stop  offset="1" style="stop-color:#002898;stop-opacity:0"/>
				</linearGradient>
				<path class="st46" d="M-86.5,115h-4c0.5,18.8,9.2,35.9,23.3,49l2.9-2.4C-77.8,149.1-86,132.8-86.5,115z"/>
			</g>
			<g>
				<linearGradient id="SVGID_49_" gradientUnits="userSpaceOnUse" x1="95.7601" y1="178.0945" x2="7.898" y2="178.0945">
					<stop  offset="0" style="stop-color:#07B9FD"/>
					<stop  offset="1" style="stop-color:#002898;stop-opacity:0"/>
				</linearGradient>
				<path class="st47" d="M-58.6,166.5l-2.9,2.3c15.7,12.2,36.7,20,59.8,20.8v-3.3C-23.7,185.5-43.6,178.1-58.6,166.5z"/>
			</g>
			<g>
				<linearGradient id="SVGID_50_" gradientUnits="userSpaceOnUse" x1="95.7598" y1="139.438" x2="7.8977" y2="139.438">
					<stop  offset="0" style="stop-color:#07B9FD"/>
					<stop  offset="1" style="stop-color:#002898;stop-opacity:0"/>
				</linearGradient>
				<path class="st48" d="M91.5,115c-0.5,17.8-8.7,34.1-22.1,46.6l2.9,2.4c14.1-13.1,22.8-30.2,23.3-49H91.5z"/>
			</g>
		</g>
		<g>
			<linearGradient id="SVGID_51_" gradientUnits="userSpaceOnUse" x1="32.0078" y1="113.3801" x2="-2.3739" y2="113.3801">
				<stop  offset="0" style="stop-color:#00CDFD"/>
				<stop  offset="1" style="stop-color:#002898;stop-opacity:0"/>
			</linearGradient>
			<path class="st49" d="M23.9,130.9c-5.5,4.5-13,7.3-21.3,7.3c-16.7,0-30.2-11.1-30.2-24.8c0-13.7,13.5-24.8,30.2-24.8
				c8.3,0,15.9,2.8,21.4,7.3l5.6-4.6c-6.9-5.7-16.5-9.2-27-9.2c-21.1,0-38.2,14-38.2,31.3c0,17.3,17.1,31.3,38.2,31.3
				c10.5,0,20.1-3.5,27-9.2L23.9,130.9z"/>
		</g>
		<g>
			<g>
				<linearGradient id="SVGID_52_" gradientUnits="userSpaceOnUse" x1="53.9591" y1="113.3767" x2="4.6263" y2="113.3767">
					<stop  offset="0" style="stop-color:#00CDFD"/>
					<stop  offset="1" style="stop-color:#002898;stop-opacity:0"/>
				</linearGradient>
				<path class="st50" d="M2.8,156c0-0.3,0.3-0.5,0.6-0.5l0,0c0.3,0,0.6,0.2,0.6,0.5l0,0c0,0.3-0.3,0.5-0.6,0.5l0,0c0,0,0,0,0,0l0,0
					C3.1,156.5,2.8,156.3,2.8,156z M-0.6,156.4c-0.3,0-0.6-0.2-0.6-0.5l0,0c0-0.3,0.3-0.5,0.6-0.5l0,0c0.3,0,0.6,0.3,0.6,0.5l0,0
					C0,156.2-0.3,156.4-0.6,156.4L-0.6,156.4C-0.6,156.4-0.6,156.4-0.6,156.4z M6.8,155.9c0-0.3,0.2-0.5,0.5-0.5l0,0l0,0l0,0
					c0.3,0,0.6,0.2,0.7,0.4l0,0c0,0.3-0.2,0.5-0.5,0.5l0,0c0,0,0,0-0.1,0l0,0C7.1,156.3,6.8,156.1,6.8,155.9z M-4.7,156.1
					c-0.3,0-0.6-0.3-0.5-0.6l0,0c0-0.3,0.3-0.5,0.7-0.4l0,0c0.3,0,0.6,0.3,0.5,0.6l0,0C-4,155.9-4.3,156.1-4.7,156.1L-4.7,156.1
					C-4.6,156.1-4.6,156.1-4.7,156.1z M10.8,155.5c-0.1-0.3,0.2-0.5,0.5-0.6l0,0c0.3,0,0.6,0.1,0.7,0.4l0,0c0.1,0.3-0.2,0.5-0.5,0.6
					l0,0c0,0-0.1,0-0.1,0l0,0C11.1,155.9,10.8,155.7,10.8,155.5z M-8.7,155.5c-0.3-0.1-0.5-0.3-0.5-0.6l0,0c0.1-0.3,0.4-0.4,0.7-0.4
					l0,0c0.3,0.1,0.5,0.3,0.5,0.6l0,0c-0.1,0.2-0.3,0.4-0.6,0.4l0,0C-8.6,155.6-8.6,155.6-8.7,155.5z M14.7,154.9
					c-0.1-0.3,0.1-0.5,0.4-0.6l0,0c0.3-0.1,0.6,0.1,0.7,0.4l0,0c0.1,0.3-0.1,0.5-0.4,0.6l0,0c0,0-0.1,0-0.1,0l0,0
					C15,155.2,14.8,155.1,14.7,154.9z M-12.6,154.7c-0.3-0.1-0.5-0.4-0.4-0.6l0,0c0.1-0.3,0.4-0.4,0.7-0.3l0,0
					c0.3,0.1,0.5,0.4,0.4,0.6l0,0c-0.1,0.2-0.3,0.4-0.6,0.4l0,0C-12.5,154.7-12.5,154.7-12.6,154.7z M18.6,154
					c-0.1-0.3,0.1-0.5,0.4-0.6l0,0c0,0,0,0,0,0l0,0c0.3-0.1,0.7,0.1,0.8,0.3l0,0c0.1,0.3-0.1,0.5-0.4,0.6l0,0c-0.1,0-0.1,0-0.2,0
					l0,0C18.9,154.3,18.6,154.2,18.6,154z M-16.4,153.6c-0.3-0.1-0.5-0.4-0.3-0.6l0,0c0.1-0.3,0.5-0.4,0.8-0.3l0,0
					c0.3,0.1,0.5,0.4,0.3,0.6l0,0c-0.1,0.2-0.3,0.3-0.6,0.3l0,0C-16.3,153.7-16.3,153.7-16.4,153.6z M22.3,152.8
					c-0.1-0.3,0-0.5,0.3-0.6l0,0c0.3-0.1,0.7,0,0.8,0.3l0,0c0.1,0.2,0,0.5-0.3,0.6l0,0c-0.1,0-0.2,0-0.2,0l0,0
					C22.6,153.1,22.4,153,22.3,152.8z M-20.1,152.3L-20.1,152.3c-0.3-0.1-0.4-0.4-0.3-0.7l0,0c0.1-0.2,0.5-0.4,0.8-0.2l0,0l0,0l0,0
					c0.3,0.1,0.4,0.4,0.3,0.7l0,0c-0.1,0.2-0.3,0.3-0.5,0.3l0,0C-20,152.4-20,152.4-20.1,152.3z M26,151.5c-0.2-0.2,0-0.5,0.3-0.7
					l0,0c0,0,0,0,0,0l0,0c0.3-0.1,0.7,0,0.8,0.2l0,0c0.2,0.2,0,0.5-0.3,0.7v0c-0.1,0-0.2,0.1-0.3,0.1l0,0
					C26.3,151.7,26.1,151.6,26,151.5z M-23.7,150.8L-23.7,150.8c-0.3-0.1-0.4-0.4-0.2-0.7l0,0c0.2-0.2,0.5-0.3,0.8-0.2l0,0
					c0.3,0.1,0.4,0.4,0.2,0.7l0,0c-0.1,0.2-0.3,0.2-0.5,0.2l0,0C-23.5,150.8-23.6,150.8-23.7,150.8z M29.5,149.9
					c-0.2-0.2-0.1-0.5,0.2-0.7l0,0l0,0l0,0c0.3-0.1,0.7-0.1,0.8,0.2l0,0c0.2,0.2,0.1,0.5-0.2,0.7l0,0c-0.1,0-0.2,0.1-0.3,0.1l0,0
					C29.8,150.1,29.6,150,29.5,149.9z M-27.1,149L-27.1,149c-0.3-0.2-0.3-0.5-0.2-0.7l0,0c0.2-0.2,0.6-0.3,0.8-0.1l0,0
					c0.3,0.2,0.3,0.5,0.2,0.7l0,0c-0.1,0.1-0.3,0.2-0.5,0.2l0,0C-26.9,149.1-27,149.1-27.1,149z M32.8,148c-0.2-0.2-0.1-0.5,0.1-0.7
					l0,0l0,0l0,0c0.3-0.2,0.6-0.1,0.8,0.1l0,0c0.2,0.2,0.1,0.5-0.1,0.7v0c-0.1,0.1-0.2,0.1-0.4,0.1l0,0
					C33.1,148.3,32.9,148.2,32.8,148z M-30.4,147c-0.3-0.2-0.3-0.5-0.1-0.7l0,0c0.2-0.2,0.6-0.2,0.8-0.1l0,0c0,0,0,0,0,0l0,0
					c0.3,0.2,0.3,0.5,0.1,0.7l0,0c-0.1,0.1-0.3,0.2-0.5,0.2l0,0C-30.1,147.1-30.3,147.1-30.4,147z M36,146c-0.2-0.2-0.2-0.5,0.1-0.7
					l0,0c0.3-0.2,0.6-0.2,0.8,0.1l0,0c0.2,0.2,0.2,0.5-0.1,0.7l0,0c-0.1,0.1-0.3,0.1-0.4,0.1l0,0C36.3,146.2,36.1,146.1,36,146z
					 M-33.4,144.9L-33.4,144.9c-0.2-0.2-0.3-0.5,0-0.7l0,0c0.2-0.2,0.6-0.2,0.8,0l0,0c0.2,0.2,0.3,0.5,0,0.7l0,0
					c-0.1,0.1-0.3,0.2-0.4,0.2l0,0C-33.2,145-33.3,144.9-33.4,144.9z M38.9,143.8c-0.2-0.2-0.2-0.5,0-0.7l0,0c0.2-0.2,0.6-0.2,0.9,0
					l0,0c0.2,0.2,0.2,0.5,0,0.7l0,0c-0.1,0.1-0.3,0.1-0.4,0.1l0,0C39.2,144,39,143.9,38.9,143.8z M-36.3,142.5L-36.3,142.5
					c-0.2-0.2-0.2-0.5,0-0.7l0,0c0.2-0.2,0.6-0.2,0.8,0l0,0l0,0l0,0c0.2,0.2,0.2,0.5,0,0.7l0,0c-0.1,0.1-0.3,0.1-0.4,0.1l0,0
					C-36,142.6-36.2,142.6-36.3,142.5z M41.7,141.4c-0.3-0.2-0.3-0.5-0.1-0.7l0,0l0,0l0,0c0.2-0.2,0.6-0.2,0.8-0.1l0,0
					c0.3,0.2,0.3,0.5,0.1,0.7v0c-0.1,0.1-0.3,0.2-0.5,0.2l0,0C41.9,141.6,41.8,141.5,41.7,141.4z M-38.9,140
					c-0.2-0.2-0.2-0.5,0.1-0.7l0,0c0.3-0.2,0.6-0.1,0.8,0.1l0,0c0.2,0.2,0.2,0.5-0.1,0.7l0,0c-0.1,0.1-0.2,0.1-0.4,0.1l0,0
					C-38.6,140.1-38.8,140.1-38.9,140z M44.2,138.9c-0.3-0.2-0.3-0.5-0.1-0.7l0,0c0.2-0.2,0.6-0.3,0.8-0.1l0,0
					c0.3,0.2,0.3,0.5,0.1,0.7l0,0c-0.1,0.1-0.3,0.2-0.5,0.2l0,0C44.4,139,44.3,138.9,44.2,138.9z M-41.3,137.3
					c-0.2-0.2-0.1-0.5,0.2-0.7l0,0c0.3-0.2,0.6-0.1,0.8,0.1l0,0c0.2,0.2,0.1,0.5-0.2,0.7l0,0c-0.1,0.1-0.2,0.1-0.3,0.1l0,0
					C-41,137.5-41.2,137.4-41.3,137.3z M46.5,136.2c-0.3-0.1-0.4-0.4-0.2-0.7l0,0c0.2-0.2,0.5-0.3,0.8-0.2l0,0
					c0.3,0.1,0.4,0.4,0.2,0.7l0,0c-0.1,0.2-0.3,0.2-0.5,0.2l0,0C46.7,136.2,46.6,136.2,46.5,136.2z M-43.4,134.4
					c-0.2-0.2-0.1-0.5,0.2-0.7l0,0c0.3-0.1,0.7,0,0.8,0.2l0,0c0.2,0.2,0.1,0.5-0.2,0.7l0,0c-0.1,0-0.2,0.1-0.3,0.1l0,0
					C-43.1,134.7-43.3,134.6-43.4,134.4z M48.5,133.3c-0.3-0.1-0.4-0.4-0.3-0.7l0,0l0,0l0,0c0.2-0.2,0.5-0.3,0.8-0.2l0,0
					c0.3,0.1,0.4,0.4,0.3,0.7v0c-0.1,0.2-0.3,0.3-0.5,0.3l0,0C48.7,133.4,48.6,133.4,48.5,133.3z M-45.2,131.5L-45.2,131.5
					c-0.1-0.2,0-0.5,0.3-0.7l0,0c0.3-0.1,0.7,0,0.8,0.2l0,0l0,0l0,0c0.1,0.2,0,0.5-0.3,0.7l0,0c-0.1,0-0.2,0-0.3,0l0,0
					C-44.9,131.7-45.1,131.6-45.2,131.5z M50.2,130.4c-0.3-0.1-0.4-0.4-0.3-0.6l0,0c0.1-0.3,0.5-0.4,0.8-0.3l0,0
					c0.3,0.1,0.4,0.4,0.3,0.6l0,0c-0.1,0.2-0.3,0.3-0.6,0.3l0,0C50.4,130.4,50.3,130.4,50.2,130.4z M-46.8,128.4
					c-0.1-0.3,0-0.5,0.4-0.6l0,0c0.3-0.1,0.7,0,0.8,0.3l0,0c0.1,0.3,0,0.5-0.4,0.6l0,0c-0.1,0-0.1,0-0.2,0l0,0
					C-46.5,128.7-46.7,128.6-46.8,128.4z M51.7,127.3c-0.3-0.1-0.5-0.4-0.4-0.6l0,0c0.1-0.3,0.4-0.4,0.8-0.3l0,0
					c0.3,0.1,0.5,0.4,0.4,0.6l0,0c-0.1,0.2-0.3,0.3-0.6,0.3l0,0C51.8,127.3,51.7,127.3,51.7,127.3z M-48.1,125.2
					c-0.1-0.3,0.1-0.5,0.4-0.6l0,0c0.3-0.1,0.7,0.1,0.7,0.3l0,0c0.1,0.3-0.1,0.5-0.4,0.6l0,0c-0.1,0-0.1,0-0.2,0l0,0
					C-47.7,125.6-48,125.4-48.1,125.2z M52.8,124.2c-0.3-0.1-0.5-0.3-0.4-0.6l0,0c0.1-0.3,0.4-0.4,0.7-0.4l0,0
					c0.3,0.1,0.5,0.3,0.4,0.6l0,0c-0.1,0.2-0.3,0.4-0.6,0.4l0,0C52.9,124.2,52.9,124.2,52.8,124.2z M-49,122
					c-0.1-0.3,0.1-0.5,0.5-0.6l0,0c0.3-0.1,0.6,0.1,0.7,0.4l0,0c0.1,0.3-0.1,0.5-0.5,0.6l0,0c0,0-0.1,0-0.1,0l0,0
					C-48.7,122.4-49,122.2-49,122z M53.7,121c-0.3,0-0.5-0.3-0.5-0.6l0,0l0,0l0,0c0.1-0.3,0.4-0.5,0.7-0.4l0,0
					c0.3,0,0.5,0.3,0.5,0.6l0,0C54.3,120.8,54.1,121,53.7,121L53.7,121C53.8,121,53.7,121,53.7,121z M-49.7,118.7
					c0-0.3,0.2-0.5,0.5-0.6l0,0c0.3,0,0.6,0.2,0.7,0.4l0,0c0,0.3-0.2,0.5-0.5,0.5l0,0c0,0-0.1,0-0.1,0l0,0
					C-49.4,119.1-49.6,119-49.7,118.7z M54.2,117.7c-0.3,0-0.6-0.3-0.5-0.5l0,0c0-0.3,0.3-0.5,0.7-0.4l0,0c0.3,0,0.6,0.3,0.5,0.5
					l0,0C54.9,117.5,54.6,117.7,54.2,117.7L54.2,117.7C54.3,117.7,54.3,117.7,54.2,117.7z M-50,115.4c0-0.3,0.2-0.5,0.6-0.5l0,0
					c0.3,0,0.6,0.2,0.6,0.5l0,0l0,0l0,0c0,0.3-0.2,0.5-0.6,0.5l0,0c0,0,0,0,0,0l0,0C-49.7,115.9-50,115.7-50,115.4z M54.5,114.4
					c-0.3,0-0.6-0.2-0.6-0.5l0,0c0-0.3,0.3-0.5,0.6-0.5l0,0c0.3,0,0.6,0.2,0.6,0.5l0,0C55.1,114.2,54.8,114.4,54.5,114.4L54.5,114.4
					C54.5,114.4,54.5,114.4,54.5,114.4z M-49.5,112.6c-0.3,0-0.6-0.2-0.6-0.5l0,0c0-0.3,0.3-0.5,0.6-0.5l0,0c0.3,0,0.6,0.2,0.6,0.5
					l0,0l0,0l0,0C-48.8,112.4-49.1,112.6-49.5,112.6L-49.5,112.6C-49.4,112.6-49.4,112.6-49.5,112.6z M53.8,110.7
					c0-0.3,0.2-0.5,0.6-0.5l0,0c0.3,0,0.6,0.2,0.6,0.5l0,0c0,0.3-0.2,0.5-0.6,0.5l0,0c0,0,0,0,0,0l0,0
					C54.1,111.1,53.8,110.9,53.8,110.7z M-49.2,109.3c-0.3,0-0.6-0.3-0.5-0.5l0,0c0-0.3,0.3-0.5,0.7-0.4l0,0c0.3,0,0.6,0.3,0.5,0.5
					l0,0C-48.6,109.1-48.9,109.3-49.2,109.3L-49.2,109.3C-49.2,109.3-49.2,109.3-49.2,109.3z M53.4,107.5c0-0.3,0.2-0.5,0.5-0.6l0,0
					c0.3,0,0.6,0.2,0.7,0.4l0,0c0,0.3-0.2,0.5-0.5,0.6l0,0c0,0-0.1,0-0.1,0l0,0C53.7,107.9,53.4,107.7,53.4,107.5z M-48.7,106.1
					c-0.3,0-0.5-0.3-0.5-0.6l0,0c0.1-0.3,0.4-0.4,0.7-0.4l0,0c0.3,0,0.5,0.3,0.5,0.6l0,0l0,0l0,0c-0.1,0.2-0.3,0.4-0.6,0.4l0,0
					C-48.6,106.1-48.7,106.1-48.7,106.1z M52.7,104.3c-0.1-0.3,0.1-0.5,0.5-0.6l0,0c0.3-0.1,0.6,0.1,0.7,0.4l0,0
					c0.1,0.3-0.1,0.5-0.5,0.6l0,0c0,0-0.1,0-0.1,0l0,0C53,104.6,52.8,104.5,52.7,104.3z M-47.9,102.8c-0.3-0.1-0.5-0.3-0.4-0.6l0,0
					c0.1-0.3,0.4-0.4,0.7-0.4l0,0c0.3,0.1,0.5,0.3,0.4,0.6l0,0c-0.1,0.2-0.3,0.4-0.6,0.4l0,0C-47.8,102.9-47.8,102.9-47.9,102.8z
					 M51.7,101.1c-0.1-0.3,0.1-0.5,0.4-0.6l0,0c0.3-0.1,0.7,0.1,0.7,0.3l0,0c0.1,0.3-0.1,0.5-0.4,0.6l0,0c-0.1,0-0.1,0-0.2,0l0,0
					C52,101.5,51.8,101.3,51.7,101.1z M-46.7,99.7c-0.3-0.1-0.5-0.4-0.4-0.6l0,0c0.1-0.3,0.5-0.4,0.8-0.3l0,0
					c0.3,0.1,0.5,0.4,0.4,0.6l0,0c-0.1,0.2-0.3,0.3-0.6,0.3l0,0C-46.6,99.7-46.7,99.7-46.7,99.7z M50.4,98c-0.1-0.3,0-0.5,0.3-0.6
					l0,0c0.3-0.1,0.7,0,0.8,0.3l0,0c0.1,0.3,0,0.5-0.3,0.6l0,0c-0.1,0-0.1,0-0.2,0l0,0C50.7,98.4,50.5,98.2,50.4,98z M-45.3,96.6
					c-0.3-0.1-0.4-0.4-0.3-0.6l0,0c0.1-0.2,0.5-0.4,0.8-0.3l0,0c0.3,0.1,0.4,0.4,0.3,0.7l0,0c-0.1,0.2-0.3,0.3-0.5,0.3l0,0
					C-45.1,96.7-45.2,96.7-45.3,96.6z M48.8,95.1c-0.1-0.2,0-0.5,0.3-0.7l0,0c0.3-0.1,0.7,0,0.8,0.2l0,0c0.1,0.2,0,0.5-0.3,0.7l0,0
					c-0.1,0-0.2,0-0.3,0l0,0C49.1,95.3,48.9,95.2,48.8,95.1z M-43.6,93.7c-0.3-0.1-0.4-0.4-0.2-0.7l0,0c0.2-0.2,0.5-0.3,0.8-0.2l0,0
					c0.3,0.1,0.4,0.4,0.2,0.7l0,0c-0.1,0.2-0.3,0.3-0.5,0.3l0,0C-43.4,93.7-43.5,93.7-43.6,93.7z M47,92.2c-0.2-0.2-0.1-0.5,0.2-0.7
					l0,0c0.3-0.1,0.7-0.1,0.8,0.2l0,0c0.2,0.2,0.1,0.5-0.2,0.7l0,0c-0.1,0-0.2,0.1-0.3,0.1l0,0C47.3,92.4,47.1,92.4,47,92.2z
					 M-41.6,90.8c-0.3-0.1-0.4-0.5-0.2-0.7l0,0c0.2-0.2,0.6-0.3,0.8-0.1l0,0c0.3,0.1,0.4,0.5,0.2,0.7l0,0c-0.1,0.1-0.3,0.2-0.5,0.2
					l0,0C-41.4,90.9-41.5,90.9-41.6,90.8z M44.8,89.5c-0.2-0.2-0.1-0.5,0.2-0.7l0,0c0.3-0.2,0.6-0.1,0.8,0.1l0,0
					c0.2,0.2,0.1,0.5-0.2,0.7l0,0c-0.1,0.1-0.2,0.1-0.3,0.1l0,0C45.1,89.7,44.9,89.6,44.8,89.5z M-39.3,88.1
					c-0.3-0.2-0.3-0.5-0.1-0.7l0,0c0.2-0.2,0.6-0.3,0.8-0.1l0,0c0.3,0.2,0.3,0.5,0.1,0.7l0,0c-0.1,0.1-0.3,0.2-0.5,0.2l0,0
					C-39.1,88.2-39.2,88.2-39.3,88.1z M42.5,86.9c-0.2-0.2-0.2-0.5,0.1-0.7l0,0c0.3-0.2,0.6-0.1,0.8,0.1l0,0
					c0.2,0.2,0.2,0.5-0.1,0.7l0,0C43.2,87,43.1,87,42.9,87l0,0C42.7,87,42.6,87,42.5,86.9z M-36.8,85.5c-0.2-0.2-0.3-0.5-0.1-0.7
					l0,0c0.2-0.2,0.6-0.2,0.8,0l0,0c0.2,0.2,0.3,0.5,0.1,0.7l0,0c-0.1,0.1-0.3,0.2-0.4,0.2l0,0C-36.6,85.6-36.7,85.6-36.8,85.5z
					 M39.8,84.4c-0.2-0.2-0.2-0.5,0-0.7l0,0c0.2-0.2,0.6-0.2,0.8,0l0,0c0.2,0.2,0.2,0.5,0,0.7l0,0c-0.1,0.1-0.3,0.1-0.4,0.1l0,0
					C40.1,84.6,40,84.5,39.8,84.4z M-34.1,83.1c-0.2-0.2-0.2-0.5,0-0.7l0,0c0.2-0.2,0.6-0.2,0.8,0l0,0c0.2,0.2,0.2,0.5,0,0.7l0,0
					c-0.1,0.1-0.3,0.1-0.4,0.1l0,0C-33.8,83.3-34,83.2-34.1,83.1z M37,82.1c-0.2-0.2-0.3-0.5,0-0.7l0,0c0.2-0.2,0.6-0.2,0.8,0l0,0
					c0.2,0.2,0.3,0.5,0,0.7l0,0c-0.1,0.1-0.3,0.2-0.4,0.2l0,0C37.3,82.3,37.1,82.2,37,82.1z M-31.2,80.9c-0.2-0.2-0.2-0.5,0.1-0.7
					l0,0c0.3-0.2,0.6-0.1,0.8,0.1l0,0c0.2,0.2,0.2,0.5-0.1,0.7l0,0c-0.1,0.1-0.2,0.1-0.4,0.1l0,0C-30.9,81.1-31.1,81-31.2,80.9z
					 M34,80.1c-0.3-0.2-0.3-0.5-0.1-0.7l0,0c0.2-0.2,0.6-0.3,0.8-0.1l0,0c0.3,0.2,0.3,0.5,0.1,0.7l0,0c-0.1,0.1-0.3,0.2-0.5,0.2l0,0
					C34.2,80.2,34.1,80.1,34,80.1z M-28,78.9c-0.2-0.2-0.1-0.5,0.1-0.7l0,0c0.3-0.2,0.6-0.1,0.8,0.1l0,0c0.2,0.2,0.1,0.5-0.1,0.7
					l0,0c-0.1,0.1-0.2,0.1-0.3,0.1l0,0C-27.7,79.1-27.9,79-28,78.9z M30.8,78.2L30.8,78.2L30.8,78.2c-0.3-0.2-0.4-0.5-0.2-0.7l0,0
					c0.2-0.2,0.6-0.3,0.8-0.1l0,0c0.3,0.1,0.4,0.5,0.2,0.7l0,0c-0.1,0.1-0.3,0.2-0.5,0.2l0,0C31,78.2,30.9,78.2,30.8,78.2z
					 M-24.7,77c-0.2-0.2-0.1-0.5,0.2-0.7l0,0c0.3-0.1,0.7-0.1,0.8,0.2l0,0c0.2,0.2,0.1,0.5-0.2,0.7l0,0c-0.1,0-0.2,0.1-0.3,0.1l0,0
					C-24.4,77.3-24.6,77.2-24.7,77z M27.4,76.5c-0.3-0.1-0.4-0.4-0.2-0.7l0,0c0.2-0.2,0.5-0.3,0.8-0.2l0,0c0.3,0.1,0.4,0.4,0.2,0.7
					l0,0c-0.1,0.2-0.3,0.3-0.5,0.3l0,0C27.6,76.5,27.5,76.5,27.4,76.5z M-21.2,75.4c-0.1-0.2,0-0.5,0.3-0.7l0,0
					c0.3-0.1,0.7,0,0.8,0.2l0,0c0.1,0.2,0,0.5-0.3,0.7l0,0c-0.1,0-0.2,0-0.3,0l0,0C-20.9,75.7-21.1,75.6-21.2,75.4z M23.9,75
					c-0.3-0.1-0.4-0.4-0.3-0.7l0,0c0.1-0.2,0.5-0.4,0.8-0.2l0,0c0.3,0.1,0.4,0.4,0.3,0.7l0,0c-0.1,0.2-0.3,0.3-0.5,0.3l0,0
					C24,75.1,23.9,75,23.9,75z M-17.6,74c-0.1-0.3,0-0.5,0.3-0.6l0,0c0.3-0.1,0.7,0,0.8,0.3l0,0c0.1,0.3,0,0.5-0.3,0.6l0,0
					c-0.1,0-0.1,0-0.2,0l0,0C-17.3,74.3-17.5,74.2-17.6,74z M20.2,73.8L20.2,73.8L20.2,73.8c-0.3-0.1-0.5-0.4-0.4-0.6l0,0
					c0.1-0.3,0.5-0.4,0.8-0.3l0,0c0.3,0.1,0.5,0.4,0.4,0.6l0,0c-0.1,0.2-0.3,0.3-0.6,0.3l0,0C20.3,73.8,20.3,73.8,20.2,73.8z
					 M-13.8,72.9c-0.1-0.3,0.1-0.5,0.4-0.6h0c0.3-0.1,0.7,0.1,0.8,0.3l0,0c0.1,0.3-0.1,0.5-0.4,0.6l0,0c-0.1,0-0.1,0-0.2,0l0,0
					C-13.5,73.2-13.7,73.1-13.8,72.9z M16.4,72.8C16.4,72.8,16.4,72.8,16.4,72.8L16.4,72.8c-0.3-0.1-0.5-0.3-0.4-0.6l0,0
					c0.1-0.3,0.4-0.4,0.7-0.3l0,0c0.3,0.1,0.5,0.3,0.4,0.6l0,0c-0.1,0.2-0.3,0.4-0.6,0.4l0,0C16.5,72.8,16.5,72.8,16.4,72.8z
					 M-10,72c-0.1-0.3,0.1-0.5,0.4-0.6l0,0c0.3-0.1,0.6,0.1,0.7,0.4l0,0c0.1,0.3-0.1,0.5-0.4,0.6l0,0c0,0-0.1,0-0.1,0l0,0
					C-9.7,72.3-9.9,72.2-10,72z M12.6,72c-0.3-0.1-0.5-0.3-0.5-0.6l0,0c0.1-0.3,0.4-0.4,0.7-0.4l0,0c0.3,0.1,0.5,0.3,0.5,0.6l0,0
					C13.2,71.9,13,72,12.7,72l0,0C12.7,72,12.6,72,12.6,72z M-6.1,71.3c0-0.3,0.2-0.5,0.5-0.6l0,0c0.3,0,0.6,0.1,0.7,0.4l0,0
					c0.1,0.3-0.2,0.5-0.5,0.6l0,0c0,0-0.1,0-0.1,0l0,0C-5.7,71.7-6,71.5-6.1,71.3z M8.7,71.5c-0.3,0-0.6-0.3-0.5-0.5l0,0
					c0-0.3,0.3-0.5,0.7-0.4l0,0c0.3,0,0.6,0.3,0.5,0.5l0,0C9.3,71.3,9,71.5,8.7,71.5L8.7,71.5C8.7,71.5,8.7,71.5,8.7,71.5z
					 M-2.1,70.9c0-0.3,0.2-0.5,0.6-0.5l0,0c0.3,0,0.6,0.2,0.6,0.5l0,0c0,0.3-0.2,0.5-0.6,0.5l0,0c0,0,0,0,0,0l0,0
					C-1.8,71.3-2.1,71.1-2.1,70.9z M4.7,71.3c-0.3,0-0.6-0.2-0.6-0.5l0,0c0-0.3,0.3-0.5,0.6-0.5l0,0c0.3,0,0.6,0.2,0.6,0.5l0,0
					C5.3,71.1,5.1,71.3,4.7,71.3L4.7,71.3C4.8,71.3,4.7,71.3,4.7,71.3z M1.9,70.7c0-0.3,0.3-0.5,0.6-0.5l0,0c0.3,0,0.6,0.2,0.6,0.5
					l0,0c0,0.3-0.3,0.5-0.6,0.5l0,0C2.2,71.2,1.9,71,1.9,70.7z"/>
			</g>
		</g>
		<linearGradient id="SVGID_53_" gradientUnits="userSpaceOnUse" x1="172.9306" y1="146.1128" x2="90.3872" y2="146.1128">
			<stop  offset="0" style="stop-color:#07B9FD"/>
			<stop  offset="1" style="stop-color:#002898;stop-opacity:0"/>
		</linearGradient>
		<path class="st51" d="M172.1,151.3c-0.4,0-0.7,0.2-0.8,0.5h-32.5l-14.9-12.2H75.5v0.3h48.2l14.9,12.2h32.7
			c0.1,0.3,0.4,0.5,0.8,0.5c0.5,0,0.8-0.3,0.8-0.7C172.9,151.6,172.6,151.3,172.1,151.3z"/>
		<linearGradient id="SVGID_54_" gradientUnits="userSpaceOnUse" x1="155.4607" y1="150.8227" x2="84.9454" y2="150.8227">
			<stop  offset="0" style="stop-color:#07B9FD"/>
			<stop  offset="1" style="stop-color:#002898;stop-opacity:0"/>
		</linearGradient>
		<path class="st52" d="M155.6,144.3c-0.4,0-0.7,0.2-0.8,0.5h-32.7L107.2,157H59v0.3h48.4l14.9-12.2h32.5c0.1,0.3,0.4,0.5,0.8,0.5
			c0.5,0,0.8-0.3,0.8-0.7C156.4,144.6,156.1,144.3,155.6,144.3z"/>
		<linearGradient id="SVGID_55_" gradientUnits="userSpaceOnUse" x1="164.6291" y1="89.7519" x2="88.2017" y2="89.7519">
			<stop  offset="0" style="stop-color:#07B9FD"/>
			<stop  offset="1" style="stop-color:#002898;stop-opacity:0"/>
		</linearGradient>
		<path class="st53" d="M163.5,83.2c-0.4,0-0.7,0.2-0.8,0.5H130L115.1,96H66.9v0.3h48.4l14.9-12.2h32.5c0.1,0.3,0.4,0.5,0.8,0.5
			c0.5,0,0.8-0.3,0.8-0.7C164.3,83.5,164,83.2,163.5,83.2z"/>
		<linearGradient id="SVGID_56_" gradientUnits="userSpaceOnUse" x1="203.7859" y1="113.3801" x2="95.2913" y2="113.3801">
			<stop  offset="0" style="stop-color:#07B9FD"/>
			<stop  offset="1" style="stop-color:#002898;stop-opacity:0"/>
		</linearGradient>
		<path class="st54" d="M197.3,112.7c-0.4,0-0.7,0.2-0.8,0.5H99v0.3h97.5c0.1,0.3,0.4,0.5,0.8,0.5c0.5,0,0.8-0.3,0.8-0.7
			S197.7,112.7,197.3,112.7z"/>
		<linearGradient id="SVGID_57_" gradientUnits="userSpaceOnUse" x1="146.8653" y1="67.2909" x2="73.6888" y2="67.2909">
			<stop  offset="0" style="stop-color:#07B9FD"/>
			<stop  offset="1" style="stop-color:#002898;stop-opacity:0"/>
		</linearGradient>
		<path class="st55" d="M150.4,72.5c-0.4,0-0.7,0.2-0.8,0.5h-24.1l8.9-7.3h7.8c0.1,0.3,0.4,0.5,0.8,0.5c0.5,0,0.8-0.3,0.8-0.7
			s-0.4-0.7-0.8-0.7c-0.4,0-0.7,0.2-0.8,0.5h-7.9l-9.3,7.7h-7.8l-14.9-12.2H53.8v0.3H102l14.9,12.2h32.7c0.1,0.3,0.4,0.5,0.8,0.5
			c0.5,0,0.8-0.3,0.8-0.7S150.9,72.5,150.4,72.5z"/>
		<g>
			<ellipse class="st56" cx="127.6" cy="165.6" rx="0.8" ry="0.6"/>
			<ellipse class="st56" cx="128.4" cy="136.2" rx="0.8" ry="0.6"/>
			<ellipse class="st56" cx="144.1" cy="169.2" rx="0.8" ry="0.6"/>
			<ellipse class="st56" cx="165.9" cy="139.2" rx="0.8" ry="0.6"/>
			<ellipse class="st56" cx="104.1" cy="130.9" rx="0.8" ry="0.6"/>
			<ellipse class="st56" cx="102.5" cy="99.5" rx="0.8" ry="0.6"/>
			<ellipse class="st56" cx="104.1" cy="60.9" rx="0.8" ry="0.6"/>
			<path class="st56" d="M25.8,44.9c0,0.4-0.3,0.6-0.8,0.6s-0.8-0.3-0.8-0.6c0-0.4,0.3-0.6,0.8-0.6S25.8,44.6,25.8,44.9z"/>
			<path class="st56" d="M4.1,47.9c0,0.4-0.3,0.6-0.8,0.6c-0.4,0-0.8-0.3-0.8-0.6c0-0.4,0.3-0.6,0.8-0.6C3.7,47.2,4.1,47.5,4.1,47.9
				z"/>
			<ellipse class="st56" cx="21.8" cy="35.5" rx="0.8" ry="0.6"/>
			<ellipse class="st56" cx="122.2" cy="44.7" rx="0.8" ry="0.6"/>
			<ellipse class="st56" cx="78.6" cy="119.6" rx="0.8" ry="0.6"/>
			<path class="st56" d="M53.2,66.5c0,0.4-0.3,0.6-0.8,0.6c-0.4,0-0.8-0.3-0.8-0.6c0-0.4,0.3-0.6,0.8-0.6
				C52.9,65.8,53.2,66.1,53.2,66.5z"/>
			<path class="st56" d="M19.2,110.7c0,0.4-0.3,0.6-0.8,0.6c-0.4,0-0.8-0.3-0.8-0.6c0-0.4,0.3-0.6,0.8-0.6
				C18.8,110,19.2,110.3,19.2,110.7z"/>
			<path class="st56" d="M-5.6,141.7c0,0.4-0.3,0.6-0.8,0.6c-0.4,0-0.8-0.3-0.8-0.6c0-0.4,0.3-0.6,0.8-0.6
				C-5.9,141.1-5.6,141.4-5.6,141.7z"/>
			<ellipse class="st56" cx="-1.3" cy="136.9" rx="0.8" ry="0.6"/>
			<ellipse class="st56" cx="-2.8" cy="100.7" rx="0.8" ry="0.6"/>
			<ellipse class="st56" cx="26.4" cy="86.3" rx="0.8" ry="0.6"/>
			<path class="st57" d="M116.8,175.1c0,0.4-0.3,0.6-0.8,0.6c-0.4,0-0.8-0.3-0.8-0.6c0-0.4,0.3-0.6,0.8-0.6
				C116.4,174.4,116.8,174.7,116.8,175.1z"/>
			<ellipse class="st57" cx="138.4" cy="112.8" rx="0.8" ry="0.6"/>
			<ellipse class="st57" cx="172.9" cy="116.2" rx="0.8" ry="0.6"/>
			<ellipse class="st57" cx="156.4" cy="53.3" rx="0.8" ry="0.6"/>
			<ellipse class="st57" cx="128.4" cy="60.3" rx="0.8" ry="0.6"/>
			<ellipse class="st57" cx="136.9" cy="135.8" rx="0.8" ry="0.6"/>
			<path class="st57" d="M117.6,190.6c0,0.4-0.3,0.6-0.8,0.6c-0.4,0-0.8-0.3-0.8-0.6c0-0.4,0.3-0.6,0.8-0.6
				C117.2,190,117.6,190.3,117.6,190.6z"/>
			<ellipse class="st57" cx="63.4" cy="187.3" rx="0.8" ry="0.6"/>
			<path class="st57" d="M43.4,190.9c0,0.4-0.3,0.6-0.8,0.6c-0.4,0-0.8-0.3-0.8-0.6c0-0.4,0.3-0.6,0.8-0.6
				C43.1,190.3,43.4,190.6,43.4,190.9z"/>
			<ellipse class="st57" cx="164.3" cy="143" rx="0.8" ry="0.6"/>
			<path class="st57" d="M105.6,113c0,0.4-0.3,0.6-0.8,0.6c-0.4,0-0.8-0.3-0.8-0.6c0-0.4,0.3-0.6,0.8-0.6
				C105.3,112.3,105.6,112.6,105.6,113z"/>
			<ellipse class="st57" cx="139.2" cy="74.3" rx="0.8" ry="0.6"/>
			<ellipse class="st57" cx="88.8" cy="56.1" rx="0.8" ry="0.6"/>
			<ellipse class="st57" cx="63.4" cy="37.1" rx="0.8" ry="0.6"/>
			<path class="st57" d="M124.1,39.3c0,0.4-0.3,0.6-0.8,0.6c-0.4,0-0.8-0.3-0.8-0.6c0-0.4,0.3-0.6,0.8-0.6
				C123.8,38.7,124.1,38.9,124.1,39.3z"/>
			<ellipse class="st57" cx="112.3" cy="82.4" rx="0.8" ry="0.6"/>
			<ellipse class="st57" cx="96.4" cy="149.9" rx="0.8" ry="0.6"/>
			<ellipse class="st57" cx="71.5" cy="166.3" rx="0.8" ry="0.6"/>
			<ellipse class="st57" cx="0.4" cy="170.8" rx="0.8" ry="0.6"/>
			<path class="st57" d="M35.8,126.4c0,0.4-0.3,0.6-0.8,0.6c-0.4,0-0.8-0.3-0.8-0.6c0-0.4,0.3-0.6,0.8-0.6
				C35.5,125.7,35.8,126,35.8,126.4z"/>
			<path class="st57" d="M14.1,115.2c0,0.4-0.3,0.6-0.8,0.6c-0.4,0-0.8-0.3-0.8-0.6c0-0.4,0.3-0.6,0.8-0.6
				C13.7,114.6,14.1,114.9,14.1,115.2z"/>
			<ellipse class="st57" cx="-7.9" cy="120.9" rx="0.8" ry="0.6"/>
			<path class="st57" d="M-1.3,141.7c0,0.4-0.3,0.6-0.8,0.6c-0.4,0-0.8-0.3-0.8-0.6c0-0.4,0.3-0.6,0.8-0.6
				C-1.6,141.1-1.3,141.4-1.3,141.7z"/>
			<path class="st57" d="M-2.8,103.9c0,0.4-0.3,0.6-0.8,0.6c-0.4,0-0.8-0.3-0.8-0.6c0-0.4,0.3-0.6,0.8-0.6
				C-3.2,103.3-2.8,103.6-2.8,103.9z"/>
			<ellipse class="st57" cx="23.5" cy="79.9" rx="0.8" ry="0.6"/>
			<ellipse class="st57" cx="53.6" cy="61.9" rx="0.8" ry="0.6"/>
			<ellipse class="st57" cx="16" cy="41.8" rx="0.8" ry="0.6"/>
			<ellipse class="st57" cx="-8.7" cy="37.7" rx="0.8" ry="0.6"/>
			<path class="st57" d="M30.4,34.9c0,0.4-0.3,0.6-0.8,0.6c-0.4,0-0.8-0.3-0.8-0.6c0-0.4,0.3-0.6,0.8-0.6
				C30.1,34.3,30.4,34.6,30.4,34.9z"/>
			<ellipse class="st57" cx="76.4" cy="124.1" rx="0.8" ry="0.6"/>
			<ellipse class="st56" cx="100.3" cy="188.1" rx="0.8" ry="0.6"/>
			<ellipse class="st56" cx="109.4" cy="170.2" rx="0.8" ry="0.6"/>
			<ellipse class="st56" cx="95.6" cy="189.7" rx="0.8" ry="0.6"/>
			<ellipse class="st56" cx="83" cy="72.9" rx="0.8" ry="0.6"/>
			<ellipse class="st56" cx="46.2" cy="64.3" rx="0.8" ry="0.6"/>
			<ellipse class="st56" cx="61.7" cy="47.2" rx="0.8" ry="0.6"/>
			<ellipse class="st56" cx="66.3" cy="45.3" rx="0.8" ry="0.6"/>
			<path class="st56" d="M68.5,190.3c0,0.4-0.3,0.6-0.8,0.6c-0.4,0-0.8-0.3-0.8-0.6s0.3-0.6,0.8-0.6C68.2,189.7,68.5,190,68.5,190.3
				z"/>
			<ellipse class="st56" cx="26.4" cy="145.8" rx="0.8" ry="0.6"/>
			<path class="st56" d="M22.6,148.6c0,0.4-0.3,0.6-0.8,0.6c-0.4,0-0.8-0.3-0.8-0.6c0-0.4,0.3-0.6,0.8-0.6
				C22.2,148,22.6,148.3,22.6,148.6z"/>
			<ellipse class="st56" cx="2.5" cy="181.2" rx="0.8" ry="0.6"/>
			<ellipse class="st56" cx="-2.8" cy="178.1" rx="0.8" ry="0.6"/>
			<path class="st56" d="M75.1,162.8c0,0.4-0.3,0.6-0.8,0.6c-0.4,0-0.8-0.3-0.8-0.6s0.3-0.6,0.8-0.6
				C74.7,162.1,75.1,162.4,75.1,162.8z"/>
			<ellipse class="st56" cx="80.4" cy="124.9" rx="0.8" ry="0.6"/>
			<ellipse class="st56" cx="18.5" cy="85.4" rx="0.8" ry="0.6"/>
			<ellipse class="st56" cx="0.4" cy="50.8" rx="0.8" ry="0.6"/>
			<ellipse class="st56" cx="-7.9" cy="105.6" rx="0.8" ry="0.6"/>
			<ellipse class="st56" cx="89.3" cy="162.8" rx="0.8" ry="0.6"/>
			<ellipse class="st56" cx="50" cy="103.3" rx="0.8" ry="0.6"/>
			<ellipse class="st56" cx="132.2" cy="75.2" rx="0.8" ry="0.6"/>
			<path class="st56" d="M68.1,40.4c0,0.4-0.3,0.6-0.8,0.6c-0.4,0-0.8-0.3-0.8-0.6c0-0.4,0.3-0.6,0.8-0.6
				C67.7,39.7,68.1,40,68.1,40.4z"/>
			<ellipse class="st56" cx="151.2" cy="94.8" rx="0.8" ry="0.6"/>
			<ellipse class="st56" cx="25.8" cy="178.7" rx="0.8" ry="0.6"/>
			<path class="st56" d="M0.3,190.9c0,0.4-0.3,0.6-0.8,0.6c-0.4,0-0.8-0.3-0.8-0.6c0-0.4,0.3-0.6,0.8-0.6
				C-0.1,190.3,0.3,190.6,0.3,190.9z"/>
			<ellipse class="st56" cx="133" cy="114.4" rx="0.8" ry="0.6"/>
			<path class="st56" d="M165.1,111.9c0,0.4-0.3,0.6-0.8,0.6c-0.4,0-0.8-0.3-0.8-0.6c0-0.4,0.3-0.6,0.8-0.6
				C164.8,111.3,165.1,111.6,165.1,111.9z"/>
			<path class="st56" d="M175.5,106.3c0,0.4-0.3,0.6-0.8,0.6c-0.4,0-0.8-0.3-0.8-0.6c0-0.4,0.3-0.6,0.8-0.6
				C175.2,105.6,175.5,105.9,175.5,106.3z"/>
			<ellipse class="st56" cx="107.8" cy="96.7" rx="0.8" ry="0.6"/>
			<path class="st56" d="M101,43.3c0,0.4-0.3,0.6-0.8,0.6c-0.4,0-0.8-0.3-0.8-0.6c0-0.4,0.3-0.6,0.8-0.6C100.7,42.7,101,43,101,43.3
				z"/>
			<path class="st56" d="M122.2,48.5c0,0.4-0.3,0.6-0.8,0.6c-0.4,0-0.8-0.3-0.8-0.6c0-0.4,0.3-0.6,0.8-0.6
				C121.9,47.9,122.2,48.2,122.2,48.5z"/>
			<path class="st56" d="M157.2,94.1c0,0.4-0.3,0.6-0.8,0.6c-0.4,0-0.8-0.3-0.8-0.6c0-0.4,0.3-0.6,0.8-0.6
				C156.9,93.4,157.2,93.7,157.2,94.1z"/>
		</g>
	</g>
</g>
</svg>
