<?xml version="1.0" encoding="utf-8"?>
<!-- Generator: Adobe Illustrator 27.3.1, SVG Export Plug-In . SVG Version: 6.00 Build 0)  -->
<svg version="1.1" id="Layer_1" xmlns="http://www.w3.org/2000/svg" xmlns:xlink="http://www.w3.org/1999/xlink" x="0px" y="0px"
	 viewBox="0 0 374 313" style="enable-background:new 0 0 374 313;" xml:space="preserve">
<style type="text/css">
	.st0{fill:url(#SVGID_1_);}
	.st1{fill:url(#SVGID_00000139277934253733141770000011012280514715957642_);}
	.st2{fill:url(#SVGID_00000062182588422718659130000009958905739173989555_);}
	.st3{fill:url(#SVGID_00000005951826418070818790000008822071239596584599_);}
	.st4{fill:url(#SVGID_00000011006458334446281500000014903367580916205982_);}
	.st5{fill:url(#SVGID_00000158010147179814393770000010602983283120292023_);}
	.st6{fill:url(#SVGID_00000097502577930542975240000010319661425526244235_);}
</style>
<linearGradient id="SVGID_1_" gradientUnits="userSpaceOnUse" x1="315.9632" y1="120.6438" x2="100.9011" y2="120.6438">
	<stop  offset="0" style="stop-color:#44B6E8"/>
	<stop  offset="1" style="stop-color:#28388D;stop-opacity:0"/>
</linearGradient>
<path class="st0" d="M316.86,134.86c-0.97,0-1.79,0.67-2.01,1.58h-87.88l31.59-31.59h50.29c0.22,0.9,1.04,1.58,2.01,1.58
	c1.15,0,2.08-0.93,2.08-2.08c0-1.15-0.93-2.08-2.08-2.08c-0.97,0-1.79,0.67-2.01,1.58h-50.7l-32.59,32.59h-48.24l-33.79-33.79H59.32
	v1h83.79l33.79,33.79h137.95c0.22,0.91,1.04,1.58,2.01,1.58c1.15,0,2.08-0.93,2.08-2.08S318.01,134.86,316.86,134.86z"/>
<linearGradient id="SVGID_00000070110450427211668660000017687765891825839004_" gradientUnits="userSpaceOnUse" x1="314.5329" y1="215.2903" x2="97.9043" y2="215.2903">
	<stop  offset="0" style="stop-color:#44B6E8"/>
	<stop  offset="1" style="stop-color:#28388D;stop-opacity:0"/>
</linearGradient>
<path style="fill:url(#SVGID_00000070110450427211668660000017687765891825839004_);" d="M316.86,196.92
	c-0.97,0-1.79,0.67-2.01,1.58H176.9l-33.79,33.79H59.32v1h84.21l33.79-33.79h48.24l32.59,32.59h39.7c0.22,0.9,1.04,1.58,2.01,1.58
	c1.15,0,2.08-0.93,2.08-2.08s-0.93-2.08-2.08-2.08c-0.97,0-1.79,0.67-2.01,1.58h-39.29l-31.59-31.59h87.88
	c0.22,0.9,1.04,1.58,2.01,1.58c1.15,0,2.08-0.93,2.08-2.08C318.94,197.85,318.01,196.92,316.86,196.92z"/>
<linearGradient id="SVGID_00000003077532184285575180000006768487819889358477_" gradientUnits="userSpaceOnUse" x1="304.2638" y1="269.2296" x2="98.2253" y2="269.2296">
	<stop  offset="0" style="stop-color:#44B6E8"/>
	<stop  offset="1" style="stop-color:#28388D;stop-opacity:0"/>
</linearGradient>
<path style="fill:url(#SVGID_00000003077532184285575180000006768487819889358477_);" d="M302.22,285.02
	c-0.96,0-1.75,0.66-1.98,1.54h-81.19l-37.2-37.21H61.06v1h120.37l37.2,37.21h81.61c0.22,0.89,1.02,1.54,1.98,1.54
	c1.13,0,2.04-0.92,2.04-2.04C304.26,285.93,303.35,285.02,302.22,285.02z"/>
<linearGradient id="SVGID_00000102533289911534491650000015105897913093974172_" gradientUnits="userSpaceOnUse" x1="260.6567" y1="283.558" x2="84.6418" y2="283.558">
	<stop  offset="0" style="stop-color:#44B6E8"/>
	<stop  offset="1" style="stop-color:#28388D;stop-opacity:0"/>
</linearGradient>
<path style="fill:url(#SVGID_00000102533289911534491650000015105897913093974172_);" d="M261.02,263.68
	c-0.96,0-1.75,0.66-1.98,1.54h-81.61l-37.2,37.21H19.86v1h120.79l37.2-37.21h81.19c0.22,0.89,1.02,1.54,1.98,1.54
	c1.13,0,2.04-0.92,2.04-2.04C263.06,264.6,262.15,263.68,261.02,263.68z"/>
<linearGradient id="SVGID_00000132807135482414028610000007083773776862280372_" gradientUnits="userSpaceOnUse" x1="283.5421" y1="97.7718" x2="92.77" y2="97.7718">
	<stop  offset="0" style="stop-color:#44B6E8"/>
	<stop  offset="1" style="stop-color:#28388D;stop-opacity:0"/>
</linearGradient>
<path style="fill:url(#SVGID_00000132807135482414028610000007083773776862280372_);" d="M280.74,77.9c-0.96,0-1.75,0.66-1.98,1.54
	h-81.61l-37.2,37.21H39.58v1h120.79l37.2-37.21h81.19c0.22,0.89,1.02,1.54,1.98,1.54c1.13,0,2.04-0.92,2.04-2.04
	C282.78,78.81,281.86,77.9,280.74,77.9z"/>
<linearGradient id="SVGID_00000080176175082345767480000018396429521394910101_" gradientUnits="userSpaceOnUse" x1="381.2823" y1="169.6521" x2="110.4664" y2="169.6521">
	<stop  offset="0" style="stop-color:#44B6E8"/>
	<stop  offset="1" style="stop-color:#28388D;stop-opacity:0"/>
</linearGradient>
<path style="fill:url(#SVGID_00000080176175082345767480000018396429521394910101_);" d="M365.02,167.61
	c-0.96,0-1.75,0.66-1.98,1.54H119.74v1h243.31c0.22,0.89,1.02,1.54,1.98,1.54c1.13,0,2.04-0.92,2.04-2.04
	S366.15,167.61,365.02,167.61z"/>
<linearGradient id="SVGID_00000150094990575116763900000008032826197814868876_" gradientUnits="userSpaceOnUse" x1="239.2016" y1="29.4421" x2="56.5439" y2="29.4421">
	<stop  offset="0" style="stop-color:#44B6E8"/>
	<stop  offset="1" style="stop-color:#28388D;stop-opacity:0"/>
</linearGradient>
<path style="fill:url(#SVGID_00000150094990575116763900000008032826197814868876_);" d="M248.09,45.23c-0.96,0-1.75,0.66-1.98,1.54
	h-60.26l22.31-22.31h19.42c0.22,0.89,1.02,1.54,1.98,1.54c1.13,0,2.04-0.92,2.04-2.04c0-1.13-0.92-2.04-2.04-2.04
	c-0.96,0-1.75,0.66-1.98,1.54h-19.83l-23.31,23.31h-19.52l-37.2-37.21H6.93v1h120.37l37.2,37.21h81.61
	c0.22,0.89,1.02,1.54,1.98,1.54c1.13,0,2.04-0.92,2.04-2.04C250.13,46.14,249.22,45.23,248.09,45.23z"/>
</svg>
