<?xml version="1.0" encoding="utf-8"?>
<!-- Generator: Adobe Illustrator 27.3.1, SVG Export Plug-In . SVG Version: 6.00 Build 0)  -->
<svg version="1.1" id="Layer_1" xmlns="http://www.w3.org/2000/svg" xmlns:xlink="http://www.w3.org/1999/xlink" x="0px" y="0px"
	 viewBox="0 0 628 631" style="enable-background:new 0 0 628 631;" xml:space="preserve">
<style type="text/css">
	.st0{fill:url(#SVGID_1_);}
	.st1{fill:url(#SVGID_00000098922271566143521140000002569806555215100808_);}
	.st2{fill:url(#SVGID_00000123427548462725937380000017744887663510390701_);}
	.st3{fill:url(#SVGID_00000042735295080880082890000012435870279323478968_);}
	.st4{fill:url(#SVGID_00000061438628035673622820000003475420659760123581_);}
	.st5{fill:url(#SVGID_00000016040445506024993610000010911615115343009958_);}
	.st6{fill:url(#SVGID_00000127743223871892560410000000499903619957162667_);}
	.st7{fill:url(#SVGID_00000112628988417600617010000004842005515431218070_);}
	.st8{fill:url(#SVGID_00000012471899500420032520000012642056045861046402_);}
	.st9{fill:url(#SVGID_00000041288922069808076390000015717349696637406644_);}
	.st10{fill:url(#SVGID_00000054959621362928660390000003320058896936425381_);}
	.st11{fill:url(#SVGID_00000158007133843595737950000016593727072594660492_);}
	.st12{fill:url(#SVGID_00000032613425697667184710000009726696523601642901_);}
	.st13{fill:url(#SVGID_00000085972717114292577680000008556391615756820128_);}
	.st14{fill:url(#SVGID_00000159452454407112266200000005912527034920672173_);}
	.st15{fill:url(#SVGID_00000018955652372752711670000004306939048664229289_);}
	.st16{fill:url(#SVGID_00000103970343747320872760000013741403724178377638_);}
	.st17{fill:url(#SVGID_00000057838482220366419050000002866196392087836839_);}
	.st18{fill:url(#SVGID_00000156553882501168714360000013907472384974653110_);}
	.st19{fill:url(#SVGID_00000129207480898521941040000001405496282588850566_);}
	.st20{fill:url(#SVGID_00000043438867953525421340000000029737466845311619_);}
	.st21{fill:url(#SVGID_00000164509750751250291920000012993793738966181298_);}
	.st22{fill:url(#SVGID_00000156573995786485408790000010748096586278021511_);}
	.st23{fill:url(#SVGID_00000049900523546215433540000006097378056778252445_);}
	.st24{fill:url(#SVGID_00000062905900236532398510000017159446664711592862_);}
	.st25{fill:url(#SVGID_00000018944250522931798370000008998013321725672108_);}
	.st26{fill:url(#SVGID_00000096027869992059479510000014635534534616811454_);}
	.st27{fill:url(#SVGID_00000067216123118336368260000005604718342372630413_);}
	.st28{fill:url(#SVGID_00000079471121601056966200000014004811848561715355_);}
</style>
<g>
	<g>
		<linearGradient id="SVGID_1_" gradientUnits="userSpaceOnUse" x1="333.3671" y1="48.6569" x2="618.0344" y2="48.6569">
			<stop  offset="0" style="stop-color:#00B5E3"/>
			<stop  offset="1" style="stop-color:#28388D;stop-opacity:0"/>
		</linearGradient>
		<path class="st0" d="M311.25,12.1l-0.21,72.4c-1.27-0.02-2.54-0.03-3.79-0.03c-5.71,0-11.44,0.2-17.07,0.59l-7.62-70.92
			C292.06,13.03,301.68,12.35,311.25,12.1 M314.26,9.04c-11.7,0.19-23.39,1.02-34.99,2.49l8.25,76.75c6.56-0.54,13.15-0.8,19.74-0.8
			c2.26,0,4.52,0.03,6.78,0.09L314.26,9.04L314.26,9.04z"/>
	</g>
	<g>
		
			<linearGradient id="SVGID_00000086664653641551863790000015356427067525531037_" gradientUnits="userSpaceOnUse" x1="213.0103" y1="57.821" x2="261.9054" y2="57.821">
			<stop  offset="0" style="stop-color:#00B5E3"/>
			<stop  offset="1" style="stop-color:#28388D;stop-opacity:0"/>
		</linearGradient>
		<path style="fill:url(#SVGID_00000086664653641551863790000015356427067525531037_);" d="M243.4,21.3l14.92,68.13
			c-6.62,1.35-13.21,2.98-19.64,4.86l-21.88-65C225.54,26.23,234.46,23.55,243.4,21.3 M245.67,17.65
			c-11.07,2.67-21.97,5.95-32.66,9.8l23.75,70.54c8.27-2.53,16.67-4.6,25.15-6.21L245.67,17.65L245.67,17.65z"/>
	</g>
	<g>
		
			<linearGradient id="SVGID_00000034047914398666813450000004862774523351342210_" gradientUnits="userSpaceOnUse" x1="152.1387" y1="79.5726" x2="212.3602" y2="79.5726">
			<stop  offset="0" style="stop-color:#00B5E3"/>
			<stop  offset="1" style="stop-color:#28388D;stop-opacity:0"/>
		</linearGradient>
		<path style="fill:url(#SVGID_00000034047914398666813450000004862774523351342210_);" d="M180.27,44.78l28.07,60.61
			c-6.21,2.74-12.35,5.75-18.32,9.01l-33.8-56.09C164.02,53.46,172.08,48.92,180.27,44.78 M181.69,40.72
			c-10.16,5.01-20.03,10.56-29.56,16.62l36.81,61.08c7.6-4.26,15.42-8.1,23.41-11.5L181.69,40.72L181.69,40.72z"/>
	</g>
	<g>
		
			<linearGradient id="SVGID_00000108273607116912262330000012599654231902367117_" gradientUnits="userSpaceOnUse" x1="99.4933" y1="112.9237" x2="166.8239" y2="112.9237">
			<stop  offset="0" style="stop-color:#00B5E3"/>
			<stop  offset="1" style="stop-color:#28388D;stop-opacity:0"/>
		</linearGradient>
		<path style="fill:url(#SVGID_00000108273607116912262330000012599654231902367117_);" d="M124.12,81.28l38.45,50.54
			c-5.53,4.05-10.94,8.36-16.12,12.86l-42.76-45.16C110.21,93.16,117.07,87.04,124.12,81.28 M124.64,77.01
			c-8.79,7.03-17.19,14.53-25.15,22.44l46.77,49.39c6.56-5.84,13.43-11.31,20.56-16.39L124.64,77.01L124.64,77.01z"/>
	</g>
	<g>
		
			<linearGradient id="SVGID_00000011001030881121382910000005151220096503768454_" gradientUnits="userSpaceOnUse" x1="57.3948" y1="156.159" x2="127.4909" y2="156.159">
			<stop  offset="0" style="stop-color:#00B5E3"/>
			<stop  offset="1" style="stop-color:#28388D;stop-opacity:0"/>
		</linearGradient>
		<path style="fill:url(#SVGID_00000011001030881121382910000005151220096503768454_);" d="M77.41,128.71l45.79,38.96
			c-4.6,5.17-9.01,10.58-13.16,16.12l-48.53-33C66.46,143.23,71.8,135.82,77.41,128.71 M76.99,124.42
			c-7.02,8.72-13.57,17.8-19.6,27.2l53.34,36.27c5.22-7.14,10.81-13.99,16.75-20.51L76.99,124.42L76.99,124.42z"/>
	</g>
	<g>
		
			<linearGradient id="SVGID_00000064342673228224672220000000217946596318092980_" gradientUnits="userSpaceOnUse" x1="27.6598" y1="207.3217" x2="96.2551" y2="207.3217">
			<stop  offset="0" style="stop-color:#00B5E3"/>
			<stop  offset="1" style="stop-color:#28388D;stop-opacity:0"/>
		</linearGradient>
		<path style="fill:url(#SVGID_00000064342673228224672220000000217946596318092980_);" d="M42.21,184.81l49.91,26.55
			c-3.41,6.1-6.58,12.38-9.45,18.72L31.5,209.64C34.7,201.22,38.29,192.9,42.21,184.81 M40.89,180.71
			c-4.97,9.97-9.38,20.2-13.23,30.63l56.58,22.6c3.57-8.15,7.59-16.09,12.02-23.78L40.89,180.71L40.89,180.71z"/>
	</g>
	<g>
		
			<linearGradient id="SVGID_00000119808226916926511480000007030139521089754539_" gradientUnits="userSpaceOnUse" x1="11.6109" y1="264.0511" x2="74.8539" y2="264.0511">
			<stop  offset="0" style="stop-color:#00B5E3"/>
			<stop  offset="1" style="stop-color:#28388D;stop-opacity:0"/>
		</linearGradient>
		<path style="fill:url(#SVGID_00000119808226916926511480000007030139521089754539_);" d="M20.05,246.86l51.04,14.17
			c-2.02,6.74-3.77,13.61-5.22,20.51l-50.88-8.31C16.28,264.39,17.98,255.54,20.05,246.86 M17.86,243.14
			c-2.68,10.75-4.77,21.63-6.25,32.58l56.62,9.25c1.74-8.8,3.95-17.48,6.62-26L17.86,243.14L17.86,243.14z"/>
	</g>
	<g>
		
			<linearGradient id="SVGID_00000047780689381565356850000015040041341646782644_" gradientUnits="userSpaceOnUse" x1="8.9024" y1="325.106" x2="64.4492" y2="325.106">
			<stop  offset="0" style="stop-color:#00B5E3"/>
			<stop  offset="1" style="stop-color:#28388D;stop-opacity:0"/>
		</linearGradient>
		<path style="fill:url(#SVGID_00000047780689381565356850000015040041341646782644_);" d="M11.93,311.82l49.35,2.67L60.68,325
			l0,0.08l0,0.08l-0.05,10.73l-48.05,2.53c-0.23-4.39-0.47-8.9-0.67-13.34L11.93,311.82 M8.94,308.65L8.9,325.13
			c0.25,5.49,0.54,10.96,0.83,16.43l53.87-2.83l0.07-13.56l0.78-13.52L8.94,308.65L8.94,308.65z"/>
	</g>
	<g>
		
			<linearGradient id="SVGID_00000005246899906600777940000008158361320930883756_" gradientUnits="userSpaceOnUse" x1="14.01" y1="385.9087" x2="70.7659" y2="385.9087">
			<stop  offset="0" style="stop-color:#00B5E3"/>
			<stop  offset="1" style="stop-color:#28388D;stop-opacity:0"/>
		</linearGradient>
		<path style="fill:url(#SVGID_00000005246899906600777940000008158361320930883756_);" d="M63.15,369.23
			c1.04,7.09,2.38,14.18,4.02,21.15l-43.39,11.98c-2.45-8.45-4.55-17.09-6.24-25.74L63.15,369.23 M65.7,365.78l-51.69,8.37
			c2,10.77,4.58,21.42,7.73,31.89l49.03-13.54C68.59,383.68,66.9,374.76,65.7,365.78L65.7,365.78z"/>
	</g>
	<g>
		
			<linearGradient id="SVGID_00000041286430756691947080000007520717670329222020_" gradientUnits="userSpaceOnUse" x1="32.7949" y1="442.3796" x2="89.6933" y2="442.3796">
			<stop  offset="0" style="stop-color:#00B5E3"/>
			<stop  offset="1" style="stop-color:#28388D;stop-opacity:0"/>
		</linearGradient>
		<path style="fill:url(#SVGID_00000041286430756691947080000007520717670329222020_);" d="M77.08,422.46
			c2.66,6.91,5.55,13.58,8.63,19.88l-37.42,19.83c-4.27-7.91-8.13-15.85-11.52-23.68L77.08,422.46 M78.8,418.55l-46.01,18.3
			c4.22,10.05,9.03,19.84,14.28,29.37l42.62-22.59C85.57,435.47,81.97,427.08,78.8,418.55L78.8,418.55z"/>
	</g>
	<g>
		
			<linearGradient id="SVGID_00000119078632762608939730000015265102600624779655_" gradientUnits="userSpaceOnUse" x1="64.3335" y1="493.4065" x2="119.5793" y2="493.4065">
			<stop  offset="0" style="stop-color:#00B5E3"/>
			<stop  offset="1" style="stop-color:#28388D;stop-opacity:0"/>
		</linearGradient>
		<path style="fill:url(#SVGID_00000119078632762608939730000015265102600624779655_);" d="M102.51,471.58
			c4,6.02,8.32,11.92,12.89,17.6l-30.68,26.03c-5.64-6.61-11.06-13.52-16.16-20.61L102.51,471.58 M103.35,467.39l-39.02,26.45
			c6.25,8.87,12.94,17.41,20.05,25.59l35.19-29.86C113.75,482.48,108.32,475.08,103.35,467.39L103.35,467.39z"/>
	</g>
	<g>
		
			<linearGradient id="SVGID_00000173149619596720301000000017289008692760903334_" gradientUnits="userSpaceOnUse" x1="106.9951" y1="536.6647" x2="158.9425" y2="536.6647">
			<stop  offset="0" style="stop-color:#00B5E3"/>
			<stop  offset="1" style="stop-color:#28388D;stop-opacity:0"/>
		</linearGradient>
		<path style="fill:url(#SVGID_00000173149619596720301000000017289008692760903334_);" d="M138.27,514.13
			c5.08,4.85,10.61,9.68,16.5,14.4l-23.46,30.75c-6.65-5.08-13.37-10.69-20.03-16.72L138.27,514.13 M138.18,509.87L107,542.7
			c7.95,7.33,16.23,14.3,24.89,20.76L158.94,528C151.7,522.33,144.73,516.31,138.18,509.87L138.18,509.87z"/>
	</g>
	<g>
		
			<linearGradient id="SVGID_00000065793321897382663190000011629804878194987674_" gradientUnits="userSpaceOnUse" x1="158.8207" y1="570.1386" x2="205.8566" y2="570.1386">
			<stop  offset="0" style="stop-color:#00B5E3"/>
			<stop  offset="1" style="stop-color:#28388D;stop-opacity:0"/>
		</linearGradient>
		<path style="fill:url(#SVGID_00000065793321897382663190000011629804878194987674_);" d="M182.59,547.92
			c6.22,3.72,12.69,7.23,19.3,10.45l-15.87,34.13c-7.78-3.66-15.51-7.72-23.06-12.11L182.59,547.92 M181.58,543.79l-22.76,37.64
			c9.28,5.52,18.84,10.56,28.65,15.05l18.38-39.54C197.53,553,189.42,548.62,181.58,543.79L181.58,543.79z"/>
	</g>
	<g>
		
			<linearGradient id="SVGID_00000170968348638258563280000006779168356427879323_" gradientUnits="userSpaceOnUse" x1="217.5787" y1="592.1677" x2="258.0392" y2="592.1677">
			<stop  offset="0" style="stop-color:#00B5E3"/>
			<stop  offset="1" style="stop-color:#28388D;stop-opacity:0"/>
		</linearGradient>
		<path style="fill:url(#SVGID_00000170968348638258563280000006779168356427879323_);" d="M233.32,571.17
			c6.94,2.27,14.03,4.27,21.15,5.94l-8,36.26c-8.44-1.94-16.85-4.26-25.08-6.93L233.32,571.17 M231.43,567.38l-13.86,40.96
			c10.23,3.44,20.64,6.32,31.17,8.62l9.29-42.11C249.04,572.84,240.16,570.35,231.43,567.38L231.43,567.38z"/>
	</g>
	<g>
		
			<linearGradient id="SVGID_00000086660493112715060060000001443685036009078462_" gradientUnits="userSpaceOnUse" x1="333.3671" y1="601.6754" x2="618.0355" y2="601.6754">
			<stop  offset="0" style="stop-color:#00B5E3"/>
			<stop  offset="1" style="stop-color:#28388D;stop-opacity:0"/>
		</linearGradient>
		<path style="fill:url(#SVGID_00000086660493112715060060000001443685036009078462_);" d="M287.97,582.67
			c7.26,0.69,14.63,1.08,21.98,1.16l-0.05,37.11c-8.65-0.12-17.35-0.61-25.93-1.47L287.97,582.67 M285.31,579.39l-4.66,42.75
			c10.71,1.19,21.48,1.79,32.24,1.83l0.06-43.12c-0.06,0-0.11,0-0.17,0C303.6,580.84,294.43,580.36,285.31,579.39L285.31,579.39z"/>
	</g>
	<g>
		
			<linearGradient id="SVGID_00000077326501081583180170000000427057854929259191_" gradientUnits="userSpaceOnUse" x1="333.367" y1="598.5676" x2="618.0354" y2="598.5676">
			<stop  offset="0" style="stop-color:#00B5E3"/>
			<stop  offset="1" style="stop-color:#28388D;stop-opacity:0"/>
		</linearGradient>
		<path style="fill:url(#SVGID_00000077326501081583180170000000427057854929259191_);" d="M365.56,578.36l7.98,36.68
			c-4.24,0.85-8.54,1.62-12.81,2.28c-3.99,0.62-8.24,1.19-12.91,1.72l-3.93-37.05c3.39-0.41,6.99-0.94,10.9-1.59
			C358.38,579.8,361.99,579.12,365.56,578.36 M367.85,574.79c-4.49,1.01-9.02,1.89-13.56,2.66c-4.55,0.76-9.11,1.42-13.7,1.9
			l4.56,43c5.36-0.57,10.71-1.23,16.04-2.06c5.33-0.83,10.64-1.8,15.92-2.92L367.85,574.79L367.85,574.79z"/>
	</g>
	<g>
		
			<linearGradient id="SVGID_00000151521708869623189780000006600835589983230621_" gradientUnits="userSpaceOnUse" x1="333.367" y1="582.8943" x2="618.0347" y2="582.8943">
			<stop  offset="0" style="stop-color:#00B5E3"/>
			<stop  offset="1" style="stop-color:#28388D;stop-opacity:0"/>
		</linearGradient>
		<path style="fill:url(#SVGID_00000151521708869623189780000006600835589983230621_);" d="M418.49,560.84l16.11,34.92
			c-3.97,1.74-8.01,3.4-12.04,4.96c-3.81,1.48-7.85,2.94-12.29,4.44l-12.06-36.01c3.23-1.15,6.61-2.46,10.26-3.95
			C411.82,563.82,415.18,562.36,418.49,560.84 M419.95,556.84c-4.15,1.97-8.36,3.83-12.62,5.57c-4.26,1.74-8.56,3.38-12.91,4.87
			l13.96,41.66c5.13-1.69,10.23-3.48,15.27-5.43c5.04-1.95,10.03-4.03,14.96-6.25L419.95,556.84L419.95,556.84z"/>
	</g>
	<g>
		
			<linearGradient id="SVGID_00000018923235933438261580000017544003132857516194_" gradientUnits="userSpaceOnUse" x1="333.3672" y1="555.1411" x2="618.0346" y2="555.1411">
			<stop  offset="0" style="stop-color:#00B5E3"/>
			<stop  offset="1" style="stop-color:#28388D;stop-opacity:0"/>
		</linearGradient>
		<path style="fill:url(#SVGID_00000018923235933438261580000017544003132857516194_);" d="M466.17,532.14l24.1,31.77
			c-7.05,5.09-14.37,9.91-21.83,14.36l-20.19-33.61C454.38,540.75,460.38,536.56,466.17,532.14 M466.73,527.91
			c-7.22,5.66-14.76,10.93-22.56,15.78l23.23,38.68c9.34-5.45,18.4-11.41,27.11-17.84L466.73,527.91L466.73,527.91z"/>
	</g>
	<g>
		
			<linearGradient id="SVGID_00000142875763755798519430000007627054861387514792_" gradientUnits="userSpaceOnUse" x1="333.3671" y1="516.7124" x2="618.0356" y2="516.7124">
			<stop  offset="0" style="stop-color:#00B5E3"/>
			<stop  offset="1" style="stop-color:#28388D;stop-opacity:0"/>
		</linearGradient>
		<path style="fill:url(#SVGID_00000142875763755798519430000007627054861387514792_);" d="M506.3,493.81l31.81,27.15
			c-5.84,6.48-12.01,12.76-18.39,18.7l-28.12-29.78C496.72,504.74,501.64,499.35,506.3,493.81 M505.94,489.55
			c-5.8,7.07-11.98,13.83-18.52,20.25l32.16,34.07c8.01-7.31,15.62-15.06,22.81-23.21L505.94,489.55L505.94,489.55z"/>
	</g>
	<g>
		
			<linearGradient id="SVGID_00000078030998551130629470000000589427091665424307_" gradientUnits="userSpaceOnUse" x1="333.3666" y1="469.4417" x2="618.0351" y2="469.4417">
			<stop  offset="0" style="stop-color:#00B5E3"/>
			<stop  offset="1" style="stop-color:#28388D;stop-opacity:0"/>
		</linearGradient>
		<path style="fill:url(#SVGID_00000078030998551130629470000000589427091665424307_);" d="M536.97,447.86L576,468.69
			c-4.36,7.61-9.09,15.08-14.1,22.28l-35.7-24.35C530.04,460.52,533.66,454.24,536.97,447.86 M535.69,443.77
			c-4.09,8.12-8.63,16.03-13.59,23.68l40.55,27.66c6.31-8.87,12.15-18.1,17.47-27.62L535.69,443.77L535.69,443.77z"/>
	</g>
	<g>
		
			<linearGradient id="SVGID_00000048500363277117079570000008921197803654985124_" gradientUnits="userSpaceOnUse" x1="333.3668" y1="415.4841" x2="618.0351" y2="415.4841">
			<stop  offset="0" style="stop-color:#00B5E3"/>
			<stop  offset="1" style="stop-color:#28388D;stop-opacity:0"/>
		</linearGradient>
		<path style="fill:url(#SVGID_00000048500363277117079570000008921197803654985124_);" d="M556.7,396.6l45.36,12.67
			c-2.69,8.51-5.73,16.87-9.08,24.94l-42.63-17.1C552.78,410.3,554.91,403.42,556.7,396.6 M554.56,392.88
			c-2.18,8.77-4.87,17.42-8.02,25.92l48.06,19.28c4.3-10.06,8.04-20.38,11.25-30.88L554.56,392.88L554.56,392.88z"/>
	</g>
	<g>
		
			<linearGradient id="SVGID_00000028304338237609060590000010880032102167161749_" gradientUnits="userSpaceOnUse" x1="333.3666" y1="357.3102" x2="618.0349" y2="357.3102">
			<stop  offset="0" style="stop-color:#00B5E3"/>
			<stop  offset="1" style="stop-color:#28388D;stop-opacity:0"/>
		</linearGradient>
		<path style="fill:url(#SVGID_00000028304338237609060590000010880032102167161749_);" d="M564.66,342.56l50.24,2.79
			c-0.82,8.86-2.02,17.73-3.58,26.44l-48.35-7.97C563.84,356.78,564.4,349.65,564.66,342.56 M561.75,339.39
			c-0.21,8.99-0.91,17.98-2.12,26.91l54.11,8.92c2.04-10.8,3.52-21.73,4.42-32.7L561.75,339.39L561.75,339.39z"/>
	</g>
	<g>
		
			<linearGradient id="SVGID_00000010992357253549698650000005151180030737493429_" gradientUnits="userSpaceOnUse" x1="333.3669" y1="294.4247" x2="618.0351" y2="294.4247">
			<stop  offset="0" style="stop-color:#00B5E3"/>
			<stop  offset="1" style="stop-color:#28388D;stop-opacity:0"/>
		</linearGradient>
		<path style="fill:url(#SVGID_00000010992357253549698650000005151180030737493429_);" d="M613.89,279.85
			c1.09,8.86,1.8,17.84,2.12,26.78l-52.32,2.68c-0.67-7.02-1.63-14.04-2.88-20.95L613.89,279.85 M616.47,276.4l-59.18,9.49
			c1.69,8.76,2.92,17.63,3.66,26.57l58.14-2.97C618.81,298.44,617.94,287.39,616.47,276.4L616.47,276.4z"/>
	</g>
	<g>
		
			<linearGradient id="SVGID_00000080888025035914284800000001449088610663254422_" gradientUnits="userSpaceOnUse" x1="333.367" y1="235.8532" x2="618.0349" y2="235.8532">
			<stop  offset="0" style="stop-color:#00B5E3"/>
			<stop  offset="1" style="stop-color:#28388D;stop-opacity:0"/>
		</linearGradient>
		<path style="fill:url(#SVGID_00000080888025035914284800000001449088610663254422_);" d="M598.72,215.64
			c3.01,8.5,5.67,17.19,7.91,25.91l-53.84,14.78c-2.14-6.63-4.58-13.2-7.27-19.62L598.72,215.64 M600.49,211.72l-58.94,23.34
			c3.53,8.12,6.62,16.45,9.25,24.93l59.46-16.32C607.59,232.86,604.33,222.19,600.49,211.72L600.49,211.72z"/>
	</g>
	<g>
		
			<linearGradient id="SVGID_00000104665456015783349960000001359971900248310939_" gradientUnits="userSpaceOnUse" x1="333.3668" y1="181.5325" x2="618.0344" y2="181.5325">
			<stop  offset="0" style="stop-color:#00B5E3"/>
			<stop  offset="1" style="stop-color:#28388D;stop-opacity:0"/>
		</linearGradient>
		<path style="fill:url(#SVGID_00000104665456015783349960000001359971900248310939_);" d="M569.87,155.93
			c4.81,7.7,9.3,15.66,13.4,23.73l-52.44,27.7c-3.49-5.95-7.26-11.8-11.25-17.45L569.87,155.93 M570.75,151.71l-55.4,37.44
			c5.16,7.13,9.95,14.54,14.33,22.21l57.59-30.42C582.3,170.92,576.79,161.16,570.75,151.71L570.75,151.71z"/>
	</g>
	<g>
		
			<linearGradient id="SVGID_00000140713951469242409990000012468922575954440846_" gradientUnits="userSpaceOnUse" x1="333.3674" y1="133.983" x2="618.0352" y2="133.983">
			<stop  offset="0" style="stop-color:#00B5E3"/>
			<stop  offset="1" style="stop-color:#28388D;stop-opacity:0"/>
		</linearGradient>
		<path style="fill:url(#SVGID_00000140713951469242409990000012468922575954440846_);" d="M528.58,103.63
			c6.39,6.51,12.54,13.35,18.32,20.38l-47.83,40.46c-4.64-5.04-9.53-9.92-14.57-14.56L528.58,103.63 M528.54,99.33l-48.33,50.75
			c6.51,5.84,12.73,12.04,18.59,18.56l52.29-44.23C544.04,115.66,536.51,107.28,528.54,99.33L528.54,99.33z"/>
	</g>
	<g>
		
			<linearGradient id="SVGID_00000166667975238000892400000003372972671927367859_" gradientUnits="userSpaceOnUse" x1="333.3672" y1="95.3315" x2="618.0353" y2="95.3315">
			<stop  offset="0" style="stop-color:#00B5E3"/>
			<stop  offset="1" style="stop-color:#28388D;stop-opacity:0"/>
		</linearGradient>
		<path style="fill:url(#SVGID_00000166667975238000892400000003372972671927367859_);" d="M476.78,61.18
			c7.62,4.97,15.14,10.37,22.41,16.1l-40.01,52.28c-5.51-3.86-11.27-7.55-17.19-11.01L476.78,61.18 M475.81,56.99l-37.99,62.63
			c7.55,4.29,14.9,8.97,21.97,14.06l43.56-56.91C494.55,69.69,485.36,63.08,475.81,56.99L475.81,56.99z"/>
	</g>
	<g>
		
			<linearGradient id="SVGID_00000091001937531971023960000005726034879626472358_" gradientUnits="userSpaceOnUse" x1="333.3669" y1="67.4812" x2="618.0345" y2="67.4812">
			<stop  offset="0" style="stop-color:#00B5E3"/>
			<stop  offset="1" style="stop-color:#28388D;stop-opacity:0"/>
		</linearGradient>
		<path style="fill:url(#SVGID_00000091001937531971023960000005726034879626472358_);" d="M416.63,30.85
			c8.59,3.21,17.16,6.86,25.56,10.89l-29.1,62.34c-6.15-2.58-12.5-4.94-18.96-7.04L416.63,30.85 M414.78,26.97l-24.48,72.01
			c8.23,2.56,16.34,5.56,24.28,9.01l31.57-67.65C435.97,35.32,425.49,30.85,414.78,26.97L414.78,26.97z"/>
	</g>
	<g>
		
			<linearGradient id="SVGID_00000145740765621639455940000007977545459637865398_" gradientUnits="userSpaceOnUse" x1="333.367" y1="51.783" x2="618.035" y2="51.783">
			<stop  offset="0" style="stop-color:#00B5E3"/>
			<stop  offset="1" style="stop-color:#28388D;stop-opacity:0"/>
		</linearGradient>
		<path style="fill:url(#SVGID_00000145740765621639455940000007977545459637865398_);" d="M351.04,14.32
			c9.2,1.28,18.41,2.98,27.44,5.07l-15.49,69.74c-6.57-1.21-13.24-2.15-19.9-2.8L351.04,14.32 M348.4,10.94l-8.62,78.1
			c8.56,0.73,17.08,1.93,25.51,3.59l16.76-75.47C370.96,14.48,359.72,12.4,348.4,10.94L348.4,10.94z"/>
	</g>
</g>
</svg>
