<?xml version="1.0" encoding="utf-8"?>
<!-- Generator: Adobe Illustrator 27.3.1, SVG Export Plug-In . SVG Version: 6.00 Build 0)  -->
<svg version="1.1" id="Layer_1" xmlns="http://www.w3.org/2000/svg" xmlns:xlink="http://www.w3.org/1999/xlink" x="0px" y="0px"
	 viewBox="0 0 471 497" style="enable-background:new 0 0 471 497;" xml:space="preserve">
<style type="text/css">
	.st0{fill:#44B6E8;}
	.st1{fill:#101440;}
</style>
<g>
	<circle class="st0" cx="347.23" cy="405.88" r="1.94"/>
	<circle class="st0" cx="349.16" cy="316.43" r="1.94"/>
	<circle class="st0" cx="388.49" cy="416.76" r="1.94"/>
	<circle class="st0" cx="442.81" cy="325.48" r="1.94"/>
	<circle class="st0" cx="288.57" cy="300.13" r="1.94"/>
	<circle class="st0" cx="284.69" cy="204.53" r="1.94"/>
	<circle class="st0" cx="288.57" cy="87.23" r="1.94"/>
	<path class="st0" d="M93.09,38.62c0,1.07-0.87,1.94-1.94,1.94s-1.94-0.87-1.94-1.94c0-1.07,0.87-1.94,1.94-1.94
		S93.09,37.55,93.09,38.62z"/>
	<path class="st0" d="M38.97,47.58c0,1.07-0.87,1.94-1.94,1.94c-1.07,0-1.94-0.87-1.94-1.94c0-1.07,0.87-1.94,1.94-1.94
		C38.11,45.64,38.97,46.51,38.97,47.58z"/>
	<circle class="st0" cx="83.16" cy="10.1" r="1.94"/>
	<circle class="st0" cx="333.91" cy="38.04" r="1.94"/>
	<circle class="st0" cx="225.08" cy="265.74" r="1.94"/>
	<path class="st0" d="M161.64,104.16c0,1.07-0.87,1.94-1.94,1.94c-1.07,0-1.94-0.87-1.94-1.94c0-1.07,0.87-1.94,1.94-1.94
		C160.77,102.22,161.64,103.09,161.64,104.16z"/>
	<path class="st0" d="M76.66,238.58c0,1.07-0.87,1.94-1.94,1.94c-1.07,0-1.94-0.87-1.94-1.94c0-1.07,0.87-1.94,1.94-1.94
		C75.79,236.64,76.66,237.51,76.66,238.58z"/>
	<path class="st0" d="M14.85,333.04c0,1.07-0.87,1.94-1.94,1.94c-1.07,0-1.94-0.87-1.94-1.94c0-1.07,0.87-1.94,1.94-1.94
		C13.98,331.11,14.85,331.98,14.85,333.04z"/>
	<circle class="st0" cx="25.63" cy="318.37" r="1.94"/>
	<circle class="st0" cx="21.75" cy="208.41" r="1.94"/>
	<circle class="st0" cx="94.69" cy="164.41" r="1.94"/>
	<path class="st1" d="M320.25,434.52c0,1.07-0.87,1.94-1.94,1.94c-1.07,0-1.94-0.87-1.94-1.94c0-1.07,0.87-1.94,1.94-1.94
		C319.38,432.59,320.25,433.45,320.25,434.52z"/>
	<circle class="st1" cx="374.25" cy="245.23" r="1.94"/>
	<circle class="st1" cx="460.42" cy="255.48" r="1.94"/>
	<circle class="st1" cx="419.22" cy="64.12" r="1.94"/>
	<circle class="st1" cx="349.16" cy="85.3" r="1.94"/>
	<circle class="st1" cx="370.37" cy="314.93" r="1.94"/>
	<path class="st1" d="M322.19,481.94c0,1.07-0.87,1.94-1.94,1.94c-1.07,0-1.94-0.87-1.94-1.94c0-1.07,0.87-1.94,1.94-1.94
		C321.32,480,322.19,480.87,322.19,481.94z"/>
	<circle class="st1" cx="186.96" cy="471.61" r="1.94"/>
	<path class="st1" d="M137.22,482.84c0,1.07-0.87,1.94-1.94,1.94c-1.07,0-1.94-0.87-1.94-1.94c0-1.07,0.87-1.94,1.94-1.94
		C136.35,480.9,137.22,481.77,137.22,482.84z"/>
	<circle class="st1" cx="438.94" cy="336.92" r="1.94"/>
	<path class="st1" d="M292.44,245.65c0,1.07-0.87,1.94-1.94,1.94c-1.07,0-1.94-0.87-1.94-1.94c0-1.07,0.87-1.94,1.94-1.94
		C291.58,243.71,292.44,244.58,292.44,245.65z"/>
	<circle class="st1" cx="376.19" cy="128.1" r="1.94"/>
	<circle class="st1" cx="250.39" cy="72.64" r="1.94"/>
	<circle class="st1" cx="186.96" cy="14.86" r="1.94"/>
	<path class="st1" d="M338.56,21.47c0,1.07-0.87,1.94-1.94,1.94c-1.07,0-1.94-0.87-1.94-1.94s0.87-1.94,1.94-1.94
		C337.69,19.54,338.56,20.4,338.56,21.47z"/>
	<circle class="st1" cx="308.99" cy="152.73" r="1.94"/>
	<circle class="st1" cx="269.27" cy="357.85" r="1.94"/>
	<circle class="st1" cx="207.16" cy="407.82" r="1.94"/>
	<circle class="st1" cx="29.65" cy="421.69" r="1.94"/>
	<path class="st1" d="M118.16,286.35c0,1.07-0.87,1.94-1.94,1.94c-1.07,0-1.94-0.87-1.94-1.94c0-1.07,0.87-1.94,1.94-1.94
		C117.29,284.41,118.16,285.28,118.16,286.35z"/>
	<path class="st1" d="M63.91,252.44c0,1.07-0.87,1.94-1.94,1.94c-1.07,0-1.94-0.87-1.94-1.94c0-1.07,0.87-1.94,1.94-1.94
		C63.04,250.51,63.91,251.37,63.91,252.44z"/>
	<circle class="st1" cx="9.03" cy="269.62" r="1.94"/>
	<path class="st1" d="M25.63,333.04c0,1.07-0.87,1.94-1.94,1.94c-1.07,0-1.94-0.87-1.94-1.94c0-1.07,0.87-1.94,1.94-1.94
		C24.76,331.11,25.63,331.98,25.63,333.04z"/>
	<path class="st1" d="M21.75,218.18c0,1.07-0.87,1.94-1.94,1.94c-1.07,0-1.94-0.87-1.94-1.94s0.87-1.94,1.94-1.94
		C20.88,216.24,21.75,217.11,21.75,218.18z"/>
	<circle class="st1" cx="87.36" cy="144.99" r="1.94"/>
	<circle class="st1" cx="162.49" cy="90.27" r="1.94"/>
	<circle class="st1" cx="68.7" cy="29.19" r="1.94"/>
	<circle class="st1" cx="7.1" cy="16.79" r="1.94"/>
	<path class="st1" d="M104.77,8.16c0,1.07-0.87,1.94-1.94,1.94c-1.07,0-1.94-0.87-1.94-1.94c0-1.07,0.87-1.94,1.94-1.94
		C103.91,6.22,104.77,7.09,104.77,8.16z"/>
	<circle class="st1" cx="219.4" cy="279.59" r="1.94"/>
	<circle class="st0" cx="279.01" cy="474.23" r="1.94"/>
	<circle class="st0" cx="301.84" cy="419.75" r="1.94"/>
	<circle class="st0" cx="267.33" cy="478.97" r="1.94"/>
	<circle class="st0" cx="235.93" cy="123.78" r="1.94"/>
	<circle class="st0" cx="144.04" cy="97.43" r="1.94"/>
	<circle class="st0" cx="182.68" cy="45.64" r="1.94"/>
	<circle class="st0" cx="194.36" cy="39.88" r="1.94"/>
	<path class="st0" d="M199.77,480.9c0,1.07-0.87,1.94-1.94,1.94c-1.07,0-1.94-0.87-1.94-1.94c0-1.07,0.87-1.94,1.94-1.94
		C198.91,478.97,199.77,479.83,199.77,480.9z"/>
	<circle class="st0" cx="94.69" cy="345.41" r="1.94"/>
	<path class="st0" d="M85.09,354.03c0,1.07-0.87,1.94-1.94,1.94s-1.94-0.87-1.94-1.94c0-1.07,0.87-1.94,1.94-1.94
		S85.09,352.96,85.09,354.03z"/>
	<circle class="st0" cx="35.1" cy="453.05" r="1.94"/>
	<circle class="st0" cx="21.75" cy="443.67" r="1.94"/>
	<path class="st0" d="M216.16,397.16c0,1.07-0.87,1.94-1.94,1.94c-1.07,0-1.94-0.87-1.94-1.94s0.87-1.94,1.94-1.94
		C215.29,395.22,216.16,396.09,216.16,397.16z"/>
	<circle class="st0" cx="229.45" cy="281.91" r="1.94"/>
	<circle class="st0" cx="75.06" cy="161.66" r="1.94"/>
	<circle class="st0" cx="29.65" cy="56.43" r="1.94"/>
	<circle class="st0" cx="9.03" cy="223.31" r="1.94"/>
	<circle class="st0" cx="251.69" cy="397.16" r="1.94"/>
	<circle class="st0" cx="153.61" cy="216.24" r="1.94"/>
	<circle class="st0" cx="358.86" cy="130.81" r="1.94"/>
	<path class="st0" d="M198.64,24.72c0,1.07-0.87,1.94-1.94,1.94c-1.07,0-1.94-0.87-1.94-1.94c0-1.07,0.87-1.94,1.94-1.94
		C197.77,22.78,198.64,23.65,198.64,24.72z"/>
	<circle class="st0" cx="406.29" cy="190.49" r="1.94"/>
	<circle class="st0" cx="93.23" cy="445.6" r="1.94"/>
	<path class="st0" d="M29.5,482.84c0,1.07-0.87,1.94-1.94,1.94c-1.07,0-1.94-0.87-1.94-1.94c0-1.07,0.87-1.94,1.94-1.94
		C28.63,480.9,29.5,481.77,29.5,482.84z"/>
	<circle class="st0" cx="360.8" cy="250.07" r="1.94"/>
	<path class="st0" d="M440.88,242.4c0,1.07-0.87,1.94-1.94,1.94c-1.07,0-1.94-0.87-1.94-1.94c0-1.07,0.87-1.94,1.94-1.94
		C440.01,240.46,440.88,241.33,440.88,242.4z"/>
	<path class="st0" d="M466.84,225.24c0,1.07-0.87,1.94-1.94,1.94c-1.07,0-1.94-0.87-1.94-1.94c0-1.07,0.87-1.94,1.94-1.94
		C465.97,223.31,466.84,224.17,466.84,225.24z"/>
	<circle class="st0" cx="297.93" cy="196.27" r="1.94"/>
	<path class="st0" d="M280.95,33.77c0,1.07-0.87,1.94-1.94,1.94c-1.07,0-1.94-0.87-1.94-1.94c0-1.07,0.87-1.94,1.94-1.94
		C280.08,31.84,280.95,32.7,280.95,33.77z"/>
	<path class="st0" d="M333.91,49.52c0,1.07-0.87,1.94-1.94,1.94c-1.07,0-1.94-0.87-1.94-1.94c0-1.07,0.87-1.94,1.94-1.94
		C333.04,47.59,333.91,48.45,333.91,49.52z"/>
	<path class="st0" d="M421.16,188.11c0,1.07-0.87,1.94-1.94,1.94c-1.07,0-1.94-0.87-1.94-1.94c0-1.07,0.87-1.94,1.94-1.94
		C420.29,186.18,421.16,187.04,421.16,188.11z"/>
</g>
</svg>
