<?xml version="1.0" encoding="utf-8"?>
<!-- Generator: Adobe Illustrator 27.3.1, SVG Export Plug-In . SVG Version: 6.00 Build 0)  -->
<svg version="1.1" id="Layer_1" xmlns="http://www.w3.org/2000/svg" xmlns:xlink="http://www.w3.org/1999/xlink" x="0px" y="0px"
	 viewBox="0 0 445 450" style="enable-background:new 0 0 445 450;" xml:space="preserve">
<style type="text/css">
	.st0{fill:url(#SVGID_1_);}
</style>
<g>
	<g>
		<linearGradient id="SVGID_1_" gradientUnits="userSpaceOnUse" x1="272.5218" y1="225.5" x2="461.5369" y2="225.5">
			<stop  offset="0" style="stop-color:#00B5E3"/>
			<stop  offset="1" style="stop-color:#28388D;stop-opacity:0"/>
		</linearGradient>
		<path class="st0" d="M221.38,441.01L221.38,441.01c-0.83-0.01-1.5-0.69-1.49-1.52l0,0c0.01-0.83,0.69-1.49,1.52-1.48l0,0
			c0.83,0.01,1.49,0.69,1.48,1.52l0,0c-0.01,0.82-0.68,1.48-1.5,1.48l0,0H221.38z M229.89,439.45c-0.03-0.83,0.62-1.52,1.45-1.55
			l0,0c0.82-0.03,1.52,0.62,1.55,1.45l0,0c0.03,0.83-0.62,1.52-1.45,1.55l0,0c-0.02,0-0.03,0-0.05,0l0,0
			C230.58,440.9,229.92,440.26,229.89,439.45z M211.31,440.66c-0.82-0.05-1.46-0.76-1.41-1.59l0,0c0.05-0.82,0.76-1.46,1.59-1.41
			l0,0l0,0l0,0c0.82,0.05,1.46,0.76,1.41,1.59l0,0c-0.05,0.79-0.71,1.41-1.5,1.41l0,0C211.37,440.66,211.34,440.66,211.31,440.66z
			 M239.87,438.95c-0.07-0.83,0.55-1.55,1.38-1.62l0,0c0,0,0,0,0,0.01l0,0c0.82-0.07,1.55,0.54,1.61,1.37l0,0
			c0.07,0.83-0.55,1.55-1.37,1.61l0,0c-0.04,0.01-0.08,0.01-0.13,0.01l0,0C240.59,440.33,239.93,439.74,239.87,438.95z
			 M201.28,439.84c-0.82-0.08-1.42-0.82-1.33-1.65l0,0c0.08-0.82,0.82-1.42,1.64-1.33l0,0c0.83,0.09,1.43,0.82,1.34,1.65l0,0
			c-0.08,0.77-0.73,1.34-1.49,1.34l0,0C201.39,439.85,201.34,439.85,201.28,439.84z M249.82,437.99c-0.1-0.83,0.48-1.58,1.3-1.68
			l0,0l0,0l0,0c0.82-0.11,1.57,0.48,1.68,1.3l0,0c0.1,0.82-0.48,1.57-1.3,1.67v0.01c-0.07,0.01-0.13,0.01-0.19,0.01l0,0
			C250.57,439.3,249.92,438.75,249.82,437.99z M191.3,438.56c-0.82-0.12-1.38-0.89-1.26-1.71l0,0c0.13-0.82,0.89-1.38,1.71-1.25l0,0
			c0.82,0.12,1.38,0.89,1.26,1.7l0,0c-0.12,0.75-0.76,1.28-1.48,1.28l0,0C191.45,438.58,191.38,438.57,191.3,438.56z M259.72,436.56
			c-0.15-0.82,0.4-1.59,1.21-1.74l0,0c0.82-0.14,1.6,0.41,1.74,1.22l0,0c0.14,0.82-0.4,1.6-1.22,1.74l0,0
			c-0.08,0.02-0.17,0.02-0.26,0.02l0,0C260.48,437.8,259.84,437.29,259.72,436.56z M181.39,436.82c-0.82-0.17-1.34-0.96-1.18-1.77
			l0,0c0.16-0.81,0.95-1.34,1.77-1.18l0,0c0.81,0.17,1.34,0.96,1.17,1.77l0,0c-0.14,0.71-0.77,1.2-1.47,1.2l0,0
			C181.58,436.84,181.49,436.83,181.39,436.82z M269.53,434.68c-0.18-0.81,0.33-1.62,1.14-1.8l0,0c0.81-0.18,1.61,0.33,1.79,1.14
			l0,0c0.18,0.81-0.33,1.61-1.14,1.79l0,0c-0.11,0.03-0.22,0.04-0.33,0.04l0,0C270.31,435.85,269.69,435.37,269.53,434.68z
			 M171.57,434.6c-0.81-0.2-1.3-1.01-1.09-1.82l0,0c0.19-0.8,1.01-1.29,1.81-1.09l0,0l0,0l0,0c0.81,0.21,1.3,1.02,1.1,1.82l0,0
			c-0.18,0.68-0.79,1.14-1.46,1.14l0,0C171.81,434.65,171.69,434.63,171.57,434.6z M279.25,432.33c-0.22-0.8,0.25-1.63,1.05-1.84
			l0,0c0.8-0.23,1.62,0.25,1.84,1.05l0,0c0.22,0.79-0.25,1.62-1.05,1.84l0,0c-0.13,0.03-0.26,0.05-0.4,0.05l0,0
			C280.03,433.43,279.43,432.99,279.25,432.33z M161.86,431.94c-0.79-0.25-1.24-1.08-1-1.87l0,0c0.23-0.8,1.07-1.25,1.86-1.01l0,0
			c0.8,0.24,1.25,1.08,1.01,1.87l0,0c-0.2,0.65-0.79,1.07-1.44,1.07l0,0C162.15,432,162,431.98,161.86,431.94z M288.85,429.53
			c-0.26-0.79,0.17-1.64,0.96-1.89l0,0c0.78-0.26,1.63,0.17,1.89,0.96l0,0c0.25,0.79-0.18,1.63-0.96,1.89l0,0
			c-0.16,0.05-0.32,0.07-0.47,0.07l0,0C289.64,430.56,289.05,430.16,288.85,429.53z M152.29,428.81L152.29,428.81
			c-0.78-0.28-1.19-1.13-0.91-1.91l0,0c0.27-0.78,1.13-1.19,1.91-0.92l0,0c0.78,0.28,1.19,1.13,0.91,1.91l0,0
			c-0.21,0.62-0.79,1.01-1.41,1.01l0,0C152.62,428.9,152.45,428.87,152.29,428.81z M298.32,426.27c-0.29-0.78,0.1-1.64,0.87-1.93
			l0,0c0.78-0.3,1.65,0.09,1.94,0.87l0,0c0.29,0.77-0.1,1.64-0.87,1.93l0,0c-0.18,0.07-0.36,0.1-0.53,0.1l0,0
			C299.12,427.24,298.55,426.87,298.32,426.27z M142.88,425.24c-0.77-0.31-1.14-1.19-0.83-1.96l0,0c0.31-0.76,1.19-1.13,1.96-0.82
			l0,0l0,0l0,0c0.76,0.31,1.13,1.19,0.82,1.95l0,0c-0.24,0.59-0.8,0.94-1.39,0.94l0,0C143.25,425.35,143.06,425.31,142.88,425.24z
			 M307.63,422.57c-0.33-0.76,0.02-1.64,0.78-1.97l0,0c0,0,0,0,0-0.01l0,0c0.76-0.32,1.64,0.03,1.97,0.79l0,0
			c0.33,0.76-0.01,1.64-0.77,1.97h-0.01c-0.19,0.08-0.39,0.12-0.59,0.12l0,0C308.43,423.47,307.88,423.13,307.63,422.57z
			 M133.66,421.24c-0.75-0.35-1.08-1.24-0.73-1.99l0,0c0.35-0.75,1.24-1.08,1.99-0.73l0,0c0.76,0.34,1.08,1.24,0.73,1.99l0,0
			c-0.25,0.55-0.79,0.87-1.36,0.87l0,0C134.08,421.38,133.87,421.33,133.66,421.24z M316.75,418.44c-0.36-0.75-0.05-1.65,0.69-2.01
			l0,0l0,0l0,0c0.74-0.36,1.64-0.06,2.01,0.69l0,0c0.36,0.74,0.05,1.64-0.69,2l0,0c-0.21,0.11-0.44,0.16-0.66,0.16l0,0
			C317.55,419.28,317.01,418.97,316.75,418.44z M124.65,416.81c-0.74-0.38-1.03-1.29-0.64-2.02l0,0c0.38-0.74,1.28-1.02,2.02-0.64
			l0,0l0,0l0,0c0.73,0.38,1.02,1.29,0.64,2.02l0,0c-0.27,0.52-0.79,0.81-1.33,0.81l0,0C125.1,416.98,124.87,416.93,124.65,416.81z
			 M325.67,413.88c-0.4-0.73-0.14-1.64,0.59-2.04l0,0c0.73-0.39,1.64-0.13,2.04,0.59l0,0c0.4,0.73,0.13,1.64-0.59,2.04l0,0
			c-0.23,0.13-0.48,0.19-0.73,0.19l0,0C326.45,414.66,325.94,414.38,325.67,413.88z M115.84,411.97c-0.72-0.42-0.96-1.34-0.54-2.05
			l0,0c0.41-0.72,1.33-0.97,2.05-0.55l0,0c0.71,0.42,0.96,1.33,0.54,2.05l0,0c-0.28,0.48-0.78,0.75-1.3,0.75l0,0
			C116.33,412.17,116.08,412.1,115.84,411.97z M334.36,408.92c-0.43-0.71-0.21-1.64,0.5-2.07l0,0c0.7-0.43,1.63-0.21,2.06,0.5l0,0
			c0.43,0.7,0.21,1.63-0.5,2.06l0,0c-0.24,0.15-0.51,0.22-0.78,0.22l0,0C335.14,409.63,334.64,409.38,334.36,408.92z M107.27,406.71
			c-0.7-0.45-0.9-1.38-0.45-2.07l0,0c0.45-0.7,1.38-0.9,2.07-0.45l0,0l0,0l0,0c0.7,0.45,0.9,1.38,0.45,2.07l0,0
			c-0.29,0.45-0.77,0.69-1.26,0.69l0,0C107.8,406.95,107.52,406.87,107.27,406.71z M342.8,403.55c-0.46-0.69-0.28-1.62,0.4-2.09l0,0
			c0.69-0.46,1.62-0.28,2.09,0.4l0,0c0.46,0.69,0.28,1.62-0.4,2.09l0,0c-0.26,0.17-0.55,0.25-0.84,0.25l0,0
			C343.57,404.2,343.09,403.97,342.8,403.55z M98.95,401.06c-0.68-0.48-0.84-1.42-0.35-2.09l0,0c0.48-0.68,1.41-0.83,2.09-0.35l0,0
			c0.67,0.48,0.83,1.42,0.35,2.09l0,0c-0.29,0.41-0.76,0.63-1.22,0.63l0,0C99.51,401.34,99.21,401.25,98.95,401.06z M350.99,397.79
			c-0.5-0.66-0.36-1.6,0.3-2.09l0,0c0,0,0,0,0-0.01l0,0c0.66-0.49,1.6-0.36,2.1,0.3l0,0c0.5,0.67,0.36,1.61-0.3,2.11v-0.01
			c-0.27,0.21-0.59,0.3-0.9,0.3l0,0C351.73,398.39,351.28,398.19,350.99,397.79z M90.9,395.03L90.9,395.03
			c-0.65-0.51-0.77-1.46-0.26-2.11l0,0c0.52-0.65,1.46-0.76,2.11-0.25l0,0l0,0l0,0c0.65,0.51,0.77,1.46,0.25,2.11l0,0
			c-0.29,0.38-0.73,0.57-1.18,0.57l0,0C91.5,395.35,91.17,395.25,90.9,395.03z M358.9,391.67c-0.53-0.64-0.44-1.59,0.2-2.11l0,0
			c0.64-0.53,1.58-0.44,2.11,0.2l0,0c0.53,0.64,0.43,1.58-0.2,2.11l0,0c-0.28,0.23-0.62,0.34-0.96,0.34l0,0
			C359.62,392.21,359.19,392.03,358.9,391.67z M83.13,388.63c-0.62-0.54-0.69-1.49-0.15-2.12l0,0c0.54-0.62,1.49-0.69,2.12-0.15l0,0
			c0.62,0.54,0.69,1.49,0.15,2.11l0,0c-0.3,0.35-0.72,0.52-1.14,0.52l0,0C83.77,388.99,83.42,388.87,83.13,388.63z M366.51,385.18
			c-0.56-0.61-0.51-1.56,0.1-2.12l0,0c0.61-0.55,1.56-0.51,2.12,0.11l0,0c0.56,0.61,0.51,1.56-0.1,2.12l0,0
			c-0.29,0.26-0.65,0.38-1.01,0.38l0,0C367.21,385.67,366.8,385.51,366.51,385.18z M75.67,381.87c-0.6-0.57-0.62-1.52-0.05-2.12l0,0
			c0.57-0.6,1.52-0.62,2.12-0.05l0,0c0.6,0.57,0.62,1.52,0.05,2.12l0,0c-0.29,0.31-0.69,0.46-1.08,0.46l0,0
			C76.34,382.28,75.96,382.15,75.67,381.87z M373.81,378.35c-0.59-0.59-0.58-1.54,0-2.12l0,0c0.59-0.59,1.54-0.58,2.12,0.01l0,0
			c0.59,0.58,0.58,1.53,0,2.12l0,0c-0.29,0.29-0.68,0.43-1.06,0.43l0,0C374.49,378.79,374.1,378.64,373.81,378.35z M68.53,374.78
			c-0.57-0.6-0.55-1.55,0.05-2.12l0,0c0.6-0.58,1.54-0.56,2.12,0.04l0,0c0.57,0.6,0.55,1.55-0.04,2.12l0,0
			c-0.3,0.28-0.67,0.42-1.04,0.42l0,0C69.22,375.24,68.83,375.08,68.53,374.78z M380.78,371.19c-0.61-0.56-0.65-1.51-0.09-2.12l0,0
			l0,0l0,0c0.56-0.61,1.51-0.65,2.12-0.09l0,0c0.61,0.56,0.65,1.5,0.09,2.12l0,0c-0.3,0.32-0.7,0.48-1.11,0.48l0,0
			C381.43,371.58,381.07,371.45,380.78,371.19z M61.73,367.36c-0.54-0.63-0.48-1.58,0.14-2.12l0,0c0.63-0.55,1.57-0.48,2.12,0.14
			l0,0c0.54,0.62,0.48,1.57-0.14,2.12l0,0c-0.29,0.25-0.64,0.37-0.99,0.37l0,0C62.44,367.87,62.03,367.7,61.73,367.36z
			 M387.41,363.71c-0.63-0.53-0.72-1.47-0.19-2.11l0,0l0,0l0,0c0.53-0.64,1.48-0.72,2.12-0.19l0,0c0.63,0.53,0.71,1.47,0.19,2.11
			l0,0c-0.3,0.36-0.73,0.54-1.16,0.54l0,0C388.03,364.06,387.69,363.95,387.41,363.71z M55.28,359.62c-0.52-0.64-0.41-1.59,0.24-2.1
			l0,0c0.65-0.52,1.59-0.41,2.1,0.24l0,0l0,0l0,0c0.52,0.64,0.41,1.59-0.23,2.1l0,0c-0.28,0.22-0.61,0.33-0.94,0.33l0,0
			C56.01,360.19,55.57,360,55.28,359.62z M393.69,355.94c-0.66-0.5-0.79-1.44-0.29-2.1l0,0c0.5-0.66,1.44-0.79,2.1-0.29l0,0
			c0.66,0.5,0.79,1.44,0.29,2.1l0,0c-0.29,0.39-0.74,0.59-1.2,0.59l0,0C394.28,356.24,393.96,356.14,393.69,355.94z M49.19,351.6
			c-0.49-0.67-0.34-1.61,0.34-2.09l0,0c0.67-0.49,1.61-0.34,2.09,0.33l0,0c0.49,0.67,0.34,1.61-0.34,2.1l0,0
			c-0.26,0.19-0.57,0.28-0.87,0.28l0,0C49.94,352.22,49.48,352.01,49.19,351.6z M399.6,347.88c-0.69-0.47-0.86-1.4-0.39-2.08l0,0
			c0.47-0.69,1.4-0.86,2.09-0.39l0,0c0.68,0.47,0.85,1.4,0.38,2.09l0,0c-0.29,0.42-0.76,0.65-1.23,0.65l0,0
			C400.15,348.15,399.86,348.06,399.6,347.88z M43.48,343.3L43.48,343.3c-0.45-0.7-0.26-1.63,0.44-2.08l0,0
			c0.69-0.45,1.62-0.26,2.07,0.44l0,0l0,0l0,0c0.46,0.69,0.26,1.62-0.43,2.07l0,0c-0.26,0.17-0.54,0.25-0.82,0.25l0,0
			C44.25,343.98,43.77,343.74,43.48,343.3z M405.12,339.57c-0.7-0.44-0.92-1.37-0.48-2.07l0,0l0,0l0,0c0.44-0.7,1.36-0.92,2.06-0.48
			l0,0c0.71,0.43,0.92,1.36,0.49,2.06l0,0c-0.29,0.46-0.78,0.71-1.28,0.71l0,0C405.64,339.79,405.37,339.72,405.12,339.57z
			 M38.16,334.74c-0.42-0.71-0.18-1.63,0.54-2.06l0,0c0.71-0.42,1.63-0.18,2.05,0.54l0,0c0.42,0.71,0.18,1.63-0.53,2.05l0,0
			c-0.24,0.14-0.5,0.21-0.76,0.21l0,0C38.94,335.48,38.44,335.21,38.16,334.74z M410.25,331c-0.72-0.4-0.98-1.32-0.58-2.04l0,0
			c0.41-0.72,1.32-0.98,2.04-0.58l0,0c0.72,0.4,0.98,1.32,0.58,2.04l0,0c-0.27,0.49-0.78,0.77-1.31,0.77l0,0
			C410.73,331.19,410.48,331.13,410.25,331z M33.25,325.93L33.25,325.93c-0.38-0.73-0.1-1.64,0.63-2.02l0,0
			c0.73-0.39,1.64-0.11,2.03,0.63l0,0c0.38,0.73,0.1,1.64-0.63,2.02l0,0c-0.22,0.12-0.46,0.17-0.7,0.17l0,0
			C34.04,326.73,33.52,326.44,33.25,325.93z M414.97,322.21c-0.74-0.37-1.04-1.27-0.67-2.01l0,0c0.37-0.75,1.27-1.05,2.01-0.68l0,0
			c0.74,0.37,1.04,1.27,0.67,2.01l0,0c-0.26,0.53-0.79,0.83-1.34,0.83l0,0C415.42,322.36,415.19,322.31,414.97,322.21z
			 M28.76,316.91c-0.35-0.75-0.03-1.64,0.72-2l0,0c0.75-0.35,1.64-0.02,1.99,0.73l0,0c0,0,0,0,0.01,0l0,0
			c0.35,0.75,0.02,1.64-0.73,1.99l0,0c-0.2,0.1-0.42,0.14-0.63,0.14l0,0C29.55,317.77,29.01,317.45,28.76,316.91z M419.28,313.21
			c-0.76-0.34-1.1-1.22-0.77-1.98l0,0l0,0l0,0c0.33-0.76,1.22-1.1,1.98-0.77l0,0c0.76,0.34,1.1,1.22,0.76,1.98h0.01
			c-0.25,0.56-0.8,0.89-1.38,0.89l0,0C419.68,313.33,419.47,313.29,419.28,313.21z M24.69,307.68L24.69,307.68
			c-0.31-0.77,0.05-1.64,0.82-1.96l0,0c0.76-0.32,1.64,0.05,1.96,0.81l0,0c0.31,0.77-0.05,1.65-0.82,1.96l0,0
			c-0.19,0.08-0.38,0.12-0.57,0.12l0,0C25.49,308.61,24.93,308.26,24.69,307.68z M423.15,304.02c-0.77-0.3-1.15-1.17-0.86-1.94l0,0
			c0.3-0.77,1.17-1.16,1.94-0.86l0,0c0.78,0.3,1.16,1.17,0.86,1.94l0,0c-0.23,0.6-0.8,0.96-1.4,0.96l0,0
			C423.51,304.12,423.33,304.09,423.15,304.02z M21.06,298.27c-0.28-0.78,0.13-1.64,0.91-1.92l0,0c0.78-0.28,1.64,0.12,1.92,0.9l0,0
			c0.28,0.78-0.13,1.64-0.91,1.92l0,0c-0.16,0.06-0.33,0.09-0.5,0.09l0,0C21.86,299.26,21.28,298.88,21.06,298.27z M426.6,294.64
			c-0.78-0.27-1.21-1.12-0.95-1.9l0,0c0.26-0.79,1.11-1.21,1.9-0.95l0,0c0.79,0.26,1.21,1.11,0.95,1.9l0,0
			c-0.21,0.63-0.8,1.02-1.42,1.02l0,0C426.92,294.71,426.76,294.69,426.6,294.64z M17.88,288.69L17.88,288.69
			c-0.24-0.8,0.2-1.63,1-1.88l0,0c0.79-0.24,1.63,0.21,1.87,1l0,0c0.24,0.79-0.2,1.63-0.99,1.87l0,0c-0.15,0.05-0.3,0.07-0.45,0.07
			l0,0C18.67,289.75,18.08,289.33,17.88,288.69z M429.6,285.1c-0.79-0.22-1.26-1.05-1.03-1.85l0,0c0.22-0.8,1.05-1.26,1.85-1.04l0,0
			c0.8,0.23,1.26,1.06,1.04,1.85l-0.01,0.01c-0.18,0.66-0.78,1.09-1.44,1.09l0,0C429.88,285.16,429.74,285.14,429.6,285.1z
			 M15.16,278.99L15.16,278.99c-0.2-0.8,0.28-1.62,1.09-1.82l0,0c0.8-0.21,1.61,0.28,1.82,1.08l0,0c0.2,0.8-0.28,1.62-1.08,1.82l0,0
			c-0.13,0.04-0.25,0.05-0.38,0.05l0,0C15.94,280.12,15.33,279.67,15.16,278.99z M432.16,275.44c-0.81-0.19-1.31-1-1.13-1.8l0,0
			c0.19-0.81,1-1.31,1.8-1.12l0,0c0.81,0.18,1.31,0.99,1.13,1.79l0,0c-0.16,0.7-0.78,1.17-1.47,1.17l0,0
			C432.38,275.48,432.27,275.46,432.16,275.44z M12.9,269.18c-0.16-0.81,0.36-1.6,1.17-1.77l0,0c0.81-0.17,1.6,0.36,1.77,1.17l0,0
			l0,0l0,0c0.17,0.81-0.36,1.6-1.17,1.77l0,0c-0.1,0.02-0.2,0.03-0.3,0.03l0,0C13.67,270.38,13.05,269.89,12.9,269.18z
			 M434.25,265.66c-0.81-0.15-1.35-0.93-1.2-1.74l0,0c0.14-0.82,0.92-1.36,1.74-1.21l0,0c0.81,0.15,1.35,0.93,1.2,1.75l0,0
			c-0.13,0.72-0.76,1.23-1.47,1.23l0,0C434.43,265.69,434.34,265.68,434.25,265.66z M11.1,259.28c-0.12-0.82,0.43-1.59,1.25-1.71
			l0,0c0.82-0.13,1.59,0.43,1.72,1.24l0,0l0,0l0,0c0.13,0.82-0.43,1.59-1.25,1.72l0,0c-0.08,0.01-0.16,0.02-0.24,0.02l0,0
			C11.86,260.55,11.22,260.02,11.1,259.28z M435.88,255.8c-0.82-0.11-1.39-0.87-1.28-1.68l0,0c0.11-0.82,0.86-1.4,1.68-1.29l0,0
			c0.82,0.11,1.4,0.86,1.29,1.69l0,0c-0.1,0.75-0.75,1.3-1.49,1.3l0,0C436.02,255.82,435.95,255.81,435.88,255.8z M9.77,249.3
			c-0.09-0.82,0.51-1.56,1.33-1.65l0,0c0.82-0.09,1.56,0.5,1.65,1.32l0,0c0.09,0.83-0.5,1.57-1.32,1.66l0,0
			c-0.06,0.01-0.11,0.01-0.17,0.01l0,0C10.51,250.64,9.86,250.07,9.77,249.3z M437.05,245.88c-0.82-0.08-1.43-0.81-1.36-1.63l0,0
			c0.07-0.82,0.8-1.44,1.63-1.36l0,0c0.82,0.07,1.43,0.8,1.36,1.62l0,0c-0.07,0.78-0.73,1.37-1.49,1.37l0,0
			C437.14,245.88,437.1,245.88,437.05,245.88z M8.91,239.27L8.91,239.27c-0.06-0.82,0.57-1.53,1.4-1.59l0,0
			c0.83-0.05,1.54,0.58,1.59,1.41l0,0c0.05,0.82-0.58,1.53-1.4,1.59l0,0c-0.04,0-0.07,0-0.1,0l0,0
			C9.61,240.68,8.96,240.07,8.91,239.27z M437.76,235.91c-0.82-0.04-1.47-0.74-1.43-1.56l0,0c0,0,0,0,0-0.01l0,0
			c0.03-0.82,0.73-1.47,1.56-1.43l0,0c0.82,0.03,1.47,0.73,1.43,1.56l0,0c-0.03,0.8-0.69,1.44-1.49,1.44l0,0
			C437.81,235.91,437.79,235.91,437.76,235.91z M8.51,229.22c-0.02-0.83,0.64-1.51,1.47-1.53l0,0c0.83-0.01,1.51,0.65,1.53,1.48l0,0
			c0.01,0.82-0.65,1.51-1.48,1.52l0,0c-0.01,0-0.02,0-0.02,0l0,0C9.19,230.69,8.52,230.04,8.51,229.22z M436.5,224.42
			c0-0.83,0.67-1.51,1.5-1.51l0,0c0.82-0.01,1.5,0.66,1.5,1.49l0,0c0.01,0.83-0.66,1.5-1.49,1.51l0,0c0,0,0,0-0.01,0l0,0
			C437.18,225.91,436.51,225.24,436.5,224.42z M439.5,224.4L439.5,224.4L439.5,224.4L439.5,224.4z M10.02,220.7
			c-0.83-0.03-1.48-0.72-1.45-1.55l0,0c0.02-0.83,0.71-1.48,1.54-1.45l0,0c0.83,0.02,1.48,0.71,1.45,1.54l0,0
			c-0.02,0.81-0.69,1.46-1.49,1.46l0,0C10.05,220.7,10.04,220.7,10.02,220.7z M436.22,214.5c-0.04-0.83,0.6-1.54,1.43-1.58l0,0
			c0.82-0.04,1.53,0.59,1.57,1.42l0,0c0.04,0.83-0.59,1.53-1.42,1.58l0,0c-0.03,0-0.05,0-0.08,0l0,0
			C436.93,215.92,436.27,215.3,436.22,214.5z M10.47,210.71c-0.82-0.06-1.44-0.78-1.38-1.61l0,0c0.06-0.83,0.78-1.45,1.61-1.38l0,0
			c0.82,0.06,1.44,0.78,1.38,1.6l0,0c0,0,0,0,0,0.01l0,0c-0.06,0.78-0.72,1.38-1.49,1.38l0,0
			C10.55,210.71,10.51,210.71,10.47,210.71z M435.49,204.6c-0.08-0.83,0.52-1.56,1.35-1.64l0,0c0.82-0.08,1.56,0.52,1.64,1.34l0,0
			c0.08,0.83-0.53,1.56-1.35,1.64l0,0c-0.05,0.01-0.1,0.01-0.15,0.01l0,0C436.22,205.95,435.57,205.37,435.49,204.6z M11.39,200.75
			c-0.83-0.1-1.41-0.84-1.31-1.67l0,0c0.1-0.82,0.85-1.4,1.67-1.3l0,0c0.82,0.1,1.41,0.85,1.31,1.67l0,0
			c-0.1,0.76-0.74,1.32-1.49,1.32l0,0C11.51,200.77,11.45,200.76,11.39,200.75z M434.3,194.74c-0.12-0.82,0.44-1.58,1.26-1.7l0,0
			c0.82-0.12,1.58,0.45,1.7,1.27l0,0c0.12,0.82-0.44,1.58-1.27,1.7l0,0c-0.07,0.01-0.14,0.02-0.21,0.02l0,0
			C435.05,196.03,434.4,195.49,434.3,194.74z M12.76,190.86c-0.82-0.14-1.37-0.92-1.23-1.74l0,0c0.14-0.81,0.92-1.36,1.73-1.22l0,0
			c0.82,0.13,1.37,0.91,1.23,1.73l0,0c-0.12,0.73-0.76,1.25-1.48,1.25l0,0C12.93,190.88,12.84,190.87,12.76,190.86z M432.64,184.96
			c-0.16-0.82,0.38-1.6,1.19-1.76l0,0c0.81-0.16,1.6,0.37,1.76,1.19l0,0c0.15,0.81-0.38,1.6-1.19,1.75l0,0
			c-0.1,0.02-0.19,0.03-0.29,0.03l0,0C433.41,186.17,432.78,185.67,432.64,184.96z M14.6,181.03c-0.81-0.18-1.32-0.98-1.15-1.79l0,0
			c0.18-0.81,0.98-1.32,1.79-1.14l0,0c0.81,0.17,1.32,0.97,1.14,1.78l0,0c-0.15,0.71-0.77,1.18-1.46,1.18l0,0
			C14.81,181.06,14.71,181.05,14.6,181.03z M430.53,175.26c-0.2-0.81,0.3-1.62,1.1-1.81l0,0c0.81-0.2,1.62,0.3,1.82,1.1l0,0
			c0.19,0.81-0.3,1.62-1.11,1.81l0,0c-0.12,0.03-0.24,0.04-0.36,0.04l0,0C431.31,176.4,430.7,175.94,430.53,175.26z M16.89,171.3
			c-0.8-0.22-1.27-1.04-1.06-1.84l0,0c0.22-0.8,1.04-1.27,1.84-1.06l0,0c0.8,0.22,1.28,1.04,1.06,1.84l0,0
			c-0.18,0.67-0.78,1.11-1.45,1.11l0,0C17.16,171.35,17.02,171.34,16.89,171.3z M427.97,165.67c-0.24-0.8,0.22-1.63,1.01-1.86l0,0
			c0.8-0.24,1.63,0.22,1.86,1.02l0,0c0.24,0.79-0.22,1.62-1.01,1.86l0,0c-0.15,0.04-0.29,0.06-0.43,0.06l0,0
			C428.75,166.75,428.16,166.32,427.97,165.67z M19.65,161.69c-0.79-0.25-1.23-1.1-0.98-1.89l0,0c0.26-0.79,1.1-1.22,1.89-0.97l0,0
			c0.79,0.25,1.22,1.1,0.97,1.89l0,0c-0.2,0.64-0.79,1.04-1.43,1.04l0,0C19.95,161.76,19.8,161.74,19.65,161.69z M424.95,156.21
			c-0.27-0.78,0.15-1.64,0.93-1.91l0,0c0.78-0.27,1.64,0.15,1.91,0.93l0,0c0.27,0.78-0.15,1.64-0.93,1.91l0,0
			c-0.16,0.06-0.33,0.08-0.49,0.08l0,0C425.75,157.22,425.17,156.83,424.95,156.21z M22.85,152.22c-0.78-0.29-1.18-1.15-0.89-1.93
			l0,0c0.29-0.78,1.16-1.17,1.93-0.88l0,0c0.78,0.29,1.17,1.15,0.89,1.93l0,0c-0.23,0.6-0.8,0.97-1.41,0.97l0,0
			C23.2,152.31,23.02,152.28,22.85,152.22z M421.49,146.88c-0.31-0.77,0.07-1.64,0.84-1.94l0,0c0.77-0.31,1.64,0.06,1.95,0.83l0,0
			c0.3,0.77-0.07,1.65-0.84,1.95l0,0c-0.18,0.08-0.37,0.11-0.56,0.11l0,0C422.29,147.83,421.72,147.47,421.49,146.88z M26.48,142.93
			c-0.76-0.32-1.12-1.2-0.79-1.96l0,0c0.32-0.77,1.21-1.12,1.97-0.79l0,0c0.76,0.32,1.11,1.2,0.79,1.96l0,0
			c-0.25,0.57-0.8,0.91-1.38,0.91l0,0C26.87,143.05,26.67,143.02,26.48,142.93z M417.59,137.73c-0.34-0.75-0.01-1.64,0.75-1.98l0,0
			c0.75-0.34,1.64-0.01,1.98,0.75l0,0c0.34,0.75,0.01,1.64-0.74,1.98l0,0c-0.2,0.09-0.42,0.13-0.62,0.13l0,0
			C418.39,138.61,417.84,138.29,417.59,137.73z M30.55,133.82c-0.75-0.36-1.06-1.25-0.7-2l0,0c0.36-0.74,1.26-1.06,2-0.7l0,0
			c0.75,0.36,1.06,1.26,0.7,2.01l0,0c-0.26,0.53-0.79,0.84-1.35,0.84l0,0C30.98,133.97,30.76,133.93,30.55,133.82z M413.27,128.78
			c-0.38-0.74-0.09-1.64,0.65-2.02l0,0c0.74-0.38,1.64-0.08,2.02,0.65l0,0c0.37,0.74,0.08,1.64-0.65,2.02l0,0
			c-0.22,0.11-0.46,0.17-0.69,0.17l0,0C414.06,129.6,413.53,129.3,413.27,128.78z M35.04,124.91c-0.73-0.39-1-1.3-0.61-2.03l0,0
			c0.4-0.73,1.31-1,2.04-0.6l0,0c0.73,0.39,1,1.3,0.6,2.03l0,0l0,0l0,0c-0.27,0.5-0.79,0.78-1.32,0.78l0,0
			C35.51,125.09,35.26,125.04,35.04,124.91z M408.53,120.04c-0.41-0.72-0.16-1.63,0.56-2.05l0,0c0.71-0.41,1.63-0.16,2.04,0.56l0,0
			c0.41,0.72,0.17,1.64-0.55,2.05l0,0c-0.24,0.13-0.49,0.2-0.75,0.2l0,0C409.31,120.8,408.81,120.53,408.53,120.04z M39.94,116.22
			c-0.71-0.43-0.94-1.35-0.51-2.06l0,0c0.43-0.71,1.35-0.94,2.06-0.51l0,0c0.71,0.43,0.94,1.35,0.51,2.06l0,0
			c-0.28,0.47-0.78,0.72-1.29,0.72l0,0C40.45,116.43,40.18,116.36,39.94,116.22z M403.39,111.54c-0.44-0.7-0.24-1.63,0.46-2.07l0,0
			c0.7-0.45,1.63-0.24,2.07,0.46l0,0c0.45,0.69,0.24,1.62-0.46,2.07l0,0c-0.25,0.16-0.53,0.23-0.8,0.23l0,0
			C404.16,112.23,403.68,111.99,403.39,111.54z M45.24,107.76c-0.68-0.46-0.87-1.4-0.41-2.08l0,0c0.47-0.69,1.4-0.88,2.09-0.41l0,0
			c0.68,0.46,0.87,1.39,0.41,2.08l0,0c-0.29,0.43-0.77,0.66-1.25,0.66l0,0C45.79,108.01,45.5,107.93,45.24,107.76z M397.86,103.28
			c-0.48-0.68-0.31-1.61,0.36-2.09l0,0c0.68-0.48,1.62-0.31,2.09,0.37v-0.01c0.48,0.68,0.32,1.62-0.36,2.09l0,0
			c-0.26,0.19-0.56,0.28-0.86,0.28l0,0C398.62,103.92,398.15,103.7,397.86,103.28z M50.94,99.55c-0.67-0.49-0.81-1.43-0.31-2.1l0,0
			c0.49-0.66,1.43-0.8,2.09-0.31l0,0c0.67,0.49,0.81,1.43,0.32,2.1l0,0c-0.3,0.4-0.75,0.61-1.21,0.61l0,0
			C51.52,99.85,51.21,99.75,50.94,99.55z M391.95,95.3c-0.5-0.66-0.39-1.6,0.27-2.11l0,0c0.65-0.51,1.59-0.39,2.1,0.27l0,0
			c0.51,0.65,0.39,1.59-0.26,2.1l0,0c-0.28,0.21-0.6,0.32-0.92,0.32l0,0C392.69,95.88,392.25,95.68,391.95,95.3z M57.01,91.62
			c-0.64-0.52-0.74-1.47-0.21-2.11l0,0c0.52-0.64,1.46-0.74,2.11-0.22l0,0c0.64,0.52,0.74,1.47,0.21,2.11l0,0
			c-0.29,0.37-0.73,0.56-1.16,0.56l0,0C57.63,91.96,57.29,91.85,57.01,91.62z M385.68,87.6c-0.54-0.64-0.46-1.58,0.17-2.12l0,0
			c0.63-0.54,1.58-0.46,2.11,0.17l0,0c0.54,0.63,0.47,1.57-0.16,2.11l0,0c-0.29,0.24-0.63,0.36-0.98,0.36l0,0
			C386.4,88.12,385.98,87.94,385.68,87.6z M63.45,83.98c-0.62-0.56-0.67-1.51-0.12-2.12v-0.01c0.55-0.61,1.5-0.66,2.12-0.11l0,0
			c0.62,0.55,0.67,1.5,0.12,2.12l0,0c-0.3,0.33-0.71,0.5-1.12,0.5l0,0C64.09,84.36,63.73,84.23,63.45,83.98z M379.06,80.19
			c-0.57-0.6-0.54-1.55,0.07-2.11l0,0c0.6-0.57,1.55-0.54,2.12,0.06l0,0c0.57,0.61,0.53,1.56-0.07,2.12l0,0
			c-0.29,0.27-0.66,0.41-1.02,0.41l0,0C379.76,80.67,379.36,80.51,379.06,80.19z M70.23,76.63c-0.59-0.58-0.6-1.53-0.02-2.12l0,0
			c0.58-0.59,1.53-0.6,2.13-0.02l0,0c0.59,0.58,0.6,1.53,0.01,2.12l0,0l0,0l0,0c-0.29,0.3-0.68,0.45-1.07,0.45l0,0
			C70.9,77.06,70.52,76.92,70.23,76.63z M372.1,73.11c-0.59-0.58-0.6-1.53-0.02-2.12l0,0c0.57-0.59,1.52-0.61,2.12-0.03l0,0
			c0.59,0.58,0.6,1.53,0.03,2.12l0,0c-0.3,0.3-0.69,0.46-1.08,0.46l0,0C372.77,73.54,372.4,73.4,372.1,73.11z M77.35,69.62
			c-0.56-0.61-0.52-1.56,0.08-2.12l0,0c0.61-0.57,1.56-0.53,2.12,0.08l0,0c0.56,0.6,0.53,1.55-0.08,2.12l0,0l0,0l0,0
			c-0.29,0.26-0.65,0.39-1.02,0.39l0,0C78.05,70.09,77.65,69.93,77.35,69.62z M364.83,66.36c-0.62-0.55-0.68-1.5-0.13-2.12l0,0
			c0.55-0.62,1.5-0.67,2.12-0.12l0,0c0.62,0.54,0.68,1.49,0.13,2.11l0,0c-0.3,0.34-0.71,0.51-1.13,0.51l0,0
			C365.47,66.74,365.12,66.61,364.83,66.36z M84.79,62.93c-0.53-0.63-0.45-1.57,0.18-2.11l0,0c0.63-0.54,1.58-0.46,2.11,0.18l0,0
			c0.54,0.63,0.46,1.58-0.17,2.11l0,0c-0.29,0.24-0.63,0.36-0.97,0.36l0,0C85.51,63.47,85.09,63.29,84.79,62.93z M357.25,59.96
			c-0.65-0.52-0.75-1.47-0.23-2.11l0,0c0.52-0.65,1.47-0.75,2.11-0.23l0,0c0.65,0.52,0.75,1.46,0.23,2.11l0,0
			c-0.3,0.37-0.73,0.56-1.17,0.56l0,0C357.86,60.29,357.53,60.18,357.25,59.96z M92.54,56.61c-0.51-0.66-0.38-1.6,0.27-2.11l0,0
			c0.66-0.5,1.6-0.38,2.1,0.28l0,0c0.51,0.65,0.39,1.6-0.27,2.1l0,0l0,0l0,0c-0.27,0.21-0.59,0.31-0.91,0.31l0,0
			C93.28,57.19,92.83,56.99,92.54,56.61z M349.38,53.91c-0.67-0.49-0.81-1.42-0.32-2.09l0,0c0.49-0.67,1.43-0.82,2.1-0.33l0,0
			c0.66,0.49,0.81,1.43,0.32,2.1l0,0c-0.29,0.4-0.75,0.61-1.21,0.61l0,0C349.96,54.2,349.65,54.11,349.38,53.91z M100.57,50.64
			c-0.48-0.68-0.31-1.62,0.37-2.09l0,0c0.68-0.47,1.62-0.3,2.09,0.38l0,0c0.47,0.68,0.3,1.61-0.37,2.08l0,0l0,0l0,0
			c-0.27,0.19-0.56,0.27-0.86,0.27l0,0C101.33,51.28,100.86,51.06,100.57,50.64z M341.25,48.24c-0.69-0.46-0.88-1.39-0.42-2.08l0,0
			c0.45-0.69,1.38-0.88,2.07-0.42l0,0c0.69,0.46,0.88,1.39,0.43,2.08l0,0c-0.29,0.44-0.77,0.67-1.26,0.67l0,0
			C341.79,48.49,341.5,48.41,341.25,48.24z M108.87,45.05c-0.44-0.7-0.23-1.62,0.47-2.06l0,0c0.7-0.44,1.63-0.23,2.07,0.47l0,0
			c0.44,0.7,0.23,1.62-0.47,2.06l0,0c0,0,0,0,0,0.01l0,0c-0.25,0.15-0.53,0.23-0.8,0.23l0,0C109.64,45.76,109.16,45.51,108.87,45.05
			z M332.86,42.96c-0.71-0.43-0.95-1.35-0.52-2.06l0,0c0.42-0.71,1.34-0.94,2.06-0.52l0,0c0.71,0.43,0.94,1.35,0.51,2.06l0,0
			c-0.28,0.47-0.78,0.73-1.29,0.73l0,0C333.36,43.17,333.1,43.1,332.86,42.96z M117.43,39.86c-0.41-0.72-0.16-1.63,0.56-2.04l0,0
			c0.72-0.41,1.64-0.16,2.05,0.57l0,0c0.4,0.72,0.15,1.63-0.57,2.04l0,0c-0.23,0.13-0.49,0.19-0.74,0.19l0,0
			C118.21,40.62,117.7,40.35,117.43,39.86z M324.23,38.07c-0.73-0.39-1-1.3-0.61-2.03l0,0c0.39-0.73,1.3-1,2.03-0.61l0,0
			c0.73,0.39,1,1.3,0.61,2.03l0,0c-0.27,0.5-0.79,0.79-1.32,0.79l0,0C324.7,38.25,324.46,38.19,324.23,38.07z M126.22,35.07
			c-0.37-0.73-0.08-1.64,0.66-2.01l0,0c0.74-0.37,1.64-0.08,2.02,0.66l0,0c0.37,0.74,0.07,1.64-0.67,2.02l0,0
			c-0.21,0.11-0.44,0.16-0.67,0.16l0,0C127.01,35.9,126.48,35.6,126.22,35.07z M315.39,33.6c-0.74-0.36-1.06-1.26-0.71-2l0,0
			c0.36-0.75,1.26-1.07,2-0.71l0,0c0.75,0.36,1.07,1.25,0.71,2l0,0c-0.26,0.54-0.79,0.85-1.35,0.85l0,0
			C315.82,33.74,315.6,33.7,315.39,33.6z M135.23,30.71c-0.34-0.76,0-1.65,0.76-1.99h-0.01c0.76-0.33,1.65,0,1.99,0.76l0,0
			c0.33,0.76,0,1.64-0.76,1.98l0,0c-0.2,0.09-0.41,0.13-0.61,0.13l0,0C136.02,31.59,135.48,31.26,135.23,30.71z M306.36,29.54
			C306.36,29.54,306.36,29.54,306.36,29.54L306.36,29.54c-0.77-0.32-1.13-1.2-0.81-1.96l0,0c0.33-0.76,1.21-1.12,1.97-0.8l0,0
			c0.76,0.32,1.12,1.2,0.8,1.96l0,0c-0.24,0.58-0.8,0.92-1.38,0.92l0,0C306.74,29.66,306.55,29.62,306.36,29.54z M144.44,26.76
			c-0.31-0.77,0.07-1.64,0.84-1.94l0,0c0.78-0.31,1.65,0.07,1.95,0.85l0,0c0.3,0.77-0.08,1.64-0.85,1.94l0,0l0,0l0,0
			c-0.18,0.07-0.36,0.1-0.54,0.1l0,0C145.24,27.71,144.67,27.35,144.44,26.76z M297.14,25.92L297.14,25.92L297.14,25.92
			c-0.78-0.29-1.18-1.15-0.89-1.93l0,0c0.29-0.77,1.15-1.17,1.93-0.89l0,0c0.77,0.29,1.17,1.15,0.89,1.93l0,0
			c-0.23,0.6-0.8,0.98-1.41,0.98l0,0C297.49,26.01,297.31,25.98,297.14,25.92z M153.82,23.26c-0.26-0.79,0.16-1.64,0.94-1.91l0,0
			c0.79-0.26,1.64,0.16,1.91,0.94l0,0c0.26,0.79-0.16,1.64-0.94,1.91l0,0c-0.16,0.05-0.33,0.08-0.49,0.08l0,0
			C154.62,24.28,154.03,23.88,153.82,23.26z M287.75,22.72C287.75,22.72,287.75,22.72,287.75,22.72L287.75,22.72
			c-0.79-0.25-1.24-1.09-0.99-1.88l0,0c0.25-0.79,1.09-1.23,1.89-0.98l0,0c0.78,0.25,1.23,1.09,0.98,1.88l0,0
			c-0.21,0.64-0.8,1.05-1.43,1.05l0,0C288.05,22.79,287.9,22.77,287.75,22.72z M163.34,20.2c-0.23-0.79,0.23-1.63,1.03-1.85l0,0
			c0.8-0.23,1.63,0.23,1.86,1.02l0,0c0.22,0.8-0.24,1.63-1.03,1.86l0,0c-0.14,0.04-0.28,0.06-0.42,0.06l0,0
			C164.13,21.29,163.53,20.86,163.34,20.2z M278.21,19.97c-0.8-0.21-1.28-1.03-1.07-1.83l0,0c0.21-0.8,1.03-1.28,1.83-1.07l0,0
			c0.8,0.21,1.28,1.03,1.07,1.83l0,0c-0.18,0.68-0.78,1.12-1.45,1.12l0,0C278.46,20.02,278.34,20.01,278.21,19.97z M172.99,17.6
			c-0.19-0.8,0.31-1.61,1.12-1.8l0,0c0.8-0.2,1.61,0.3,1.8,1.11l0,0c0.19,0.81-0.3,1.61-1.11,1.81l0,0c0,0,0,0,0-0.01l0,0
			c-0.12,0.03-0.23,0.05-0.35,0.05l0,0C173.77,18.76,173.16,18.29,172.99,17.6z M268.55,17.67c-0.81-0.17-1.32-0.97-1.15-1.78l0,0
			c0.17-0.81,0.97-1.32,1.78-1.15l0,0c0.81,0.17,1.33,0.97,1.15,1.78l0,0c-0.15,0.7-0.77,1.19-1.46,1.19l0,0
			C268.76,17.71,268.66,17.7,268.55,17.67z M182.76,15.46c-0.16-0.82,0.38-1.6,1.19-1.75l0,0c0.82-0.16,1.6,0.38,1.76,1.19l0,0
			c0.15,0.82-0.39,1.6-1.2,1.75l0,0c-0.09,0.02-0.19,0.03-0.28,0.03l0,0C183.52,16.68,182.89,16.18,182.76,15.46z M258.8,15.83
			L258.8,15.83L258.8,15.83c-0.82-0.13-1.37-0.91-1.24-1.72l0,0c0.14-0.82,0.91-1.37,1.73-1.24l0,0c0.82,0.14,1.37,0.91,1.24,1.72
			l0,0c-0.13,0.74-0.76,1.26-1.49,1.26l0,0C258.96,15.85,258.88,15.85,258.8,15.83z M192.61,13.77c-0.11-0.82,0.46-1.57,1.28-1.69
			l0,0c0.82-0.11,1.58,0.46,1.69,1.28l0,0c0.12,0.82-0.45,1.58-1.27,1.69l0,0c-0.08,0.01-0.15,0.01-0.22,0.01l0,0
			C193.36,15.06,192.72,14.52,192.61,13.77z M248.97,14.45c-0.82-0.1-1.41-0.85-1.31-1.67l0,0c0.09-0.82,0.84-1.41,1.66-1.31l0,0
			c0.82,0.09,1.41,0.84,1.32,1.66l0,0c-0.09,0.76-0.74,1.33-1.49,1.33l0,0C249.09,14.46,249.03,14.45,248.97,14.45z M202.53,12.55
			c-0.07-0.82,0.53-1.56,1.36-1.63l0,0c0.82-0.08,1.55,0.53,1.63,1.36l0,0c0.08,0.82-0.53,1.55-1.36,1.63l0,0c-0.04,0-0.09,0-0.14,0
			l0,0C203.26,13.91,202.6,13.33,202.53,12.55z M239.09,13.52c-0.83-0.05-1.45-0.77-1.39-1.6l0,0c0.06-0.83,0.77-1.45,1.6-1.39l0,0
			c0.83,0.06,1.45,0.77,1.39,1.6l0,0c-0.05,0.79-0.71,1.4-1.49,1.4l0,0C239.16,13.53,239.13,13.52,239.09,13.52z M212.5,11.79
			c-0.04-0.82,0.6-1.53,1.43-1.57l0,0c0.83-0.03,1.53,0.61,1.57,1.44l0,0c0.03,0.82-0.61,1.52-1.43,1.56l0,0c-0.03,0-0.05,0-0.07,0
			l0,0C213.2,13.22,212.53,12.6,212.5,11.79z M229.17,13.06c0,0,0,0,0.01,0l0,0c-0.83-0.02-1.49-0.71-1.47-1.54l0,0
			c0.02-0.83,0.71-1.48,1.53-1.46h0.01c0.82,0.02,1.48,0.7,1.46,1.53l0,0c-0.02,0.82-0.69,1.47-1.5,1.47l0,0
			C229.2,13.06,229.18,13.06,229.17,13.06z M222.49,11.49c0-0.82,0.67-1.5,1.5-1.5l0,0c0.83,0,1.5,0.68,1.5,1.5l0,0
			c0,0.83-0.67,1.5-1.5,1.5l0,0C223.16,12.99,222.49,12.32,222.49,11.49z"/>
	</g>
</g>
</svg>
