<?xml version="1.0" encoding="utf-8"?>
<!-- Generator: Adobe Illustrator 27.3.1, SVG Export Plug-In . SVG Version: 6.00 Build 0)  -->
<svg version="1.1" id="Layer_1" xmlns="http://www.w3.org/2000/svg" xmlns:xlink="http://www.w3.org/1999/xlink" x="0px" y="0px"
	 viewBox="0 0 277.21 288.64" style="enable-background:new 0 0 277.21 288.64;" xml:space="preserve">
<style type="text/css">
	.st0{fill:url(#SVGID_1_);}
	.st1{fill:url(#SVGID_00000156561004703357939630000008181291489541313438_);}
	.st2{fill:url(#SVGID_00000127750365544882024850000001161838219536642729_);}
	.st3{fill:url(#SVGID_00000016794234704087503860000014048745728108506766_);}
	.st4{fill:url(#SVGID_00000081639632759067460610000009864738729854434993_);}
	.st5{fill:url(#SVGID_00000041258558873958093040000004079751761057310373_);}
</style>
<g>
	<g>
		<linearGradient id="SVGID_1_" gradientUnits="userSpaceOnUse" x1="136.4488" y1="143.7498" x2="197.8061" y2="143.7498">
			<stop  offset="0" style="stop-color:#07B9FD"/>
			<stop  offset="1" style="stop-color:#002898;stop-opacity:0"/>
		</linearGradient>
		<path class="st0" d="M142.05,212c-1.2,0-2.4-0.03-3.59-0.09l1.04-19.97c1.37,0.07,2.78,0.08,4.16,0.04l0.64,19.99
			C143.55,211.99,142.8,212,142.05,212z M150.13,211.52l-2.35-19.86c1.36-0.16,2.74-0.38,4.09-0.66l4.04,19.59
			C154,210.98,152.06,211.29,150.13,211.52z M132.64,211.35c-1.92-0.27-3.86-0.62-5.76-1.05l4.42-19.5c1.34,0.3,2.71,0.55,4.07,0.74
			L132.64,211.35z M161.59,209.16l-5.72-19.17c1.32-0.39,2.63-0.85,3.9-1.35l7.37,18.59C165.33,207.95,163.47,208.6,161.59,209.16z
			 M121.21,208.76c-1.85-0.59-3.7-1.28-5.49-2.02l7.71-18.45c1.26,0.53,2.57,1.01,3.88,1.43L121.21,208.76z M172.49,204.85
			l-8.93-17.9c1.23-0.61,2.45-1.29,3.61-2L177.62,202C175.96,203.02,174.23,203.98,172.49,204.85z M110.42,204.24
			c-1.72-0.9-3.43-1.89-5.06-2.93l10.76-16.86c1.16,0.74,2.36,1.44,3.58,2.08L110.42,204.24z M182.47,198.74l-11.86-16.1
			c1.11-0.82,2.2-1.69,3.23-2.6l13.18,15.04C185.57,196.36,184.04,197.59,182.47,198.74z M100.57,197.95
			c-1.54-1.18-3.05-2.44-4.49-3.76l13.48-14.78c1.02,0.93,2.09,1.82,3.17,2.65L100.57,197.95z M191.26,191.03l-14.42-13.86
			c0.96-0.99,1.88-2.04,2.74-3.11l15.55,12.58C193.91,188.15,192.61,189.63,191.26,191.03z M91.93,190.07
			c-1.32-1.43-2.59-2.93-3.79-4.46l15.79-12.28c0.85,1.09,1.75,2.15,2.68,3.16L91.93,190.07z M198.61,181.94l-16.56-11.21
			c0.77-1.14,1.5-2.32,2.17-3.52l17.47,9.74C200.74,178.65,199.7,180.33,198.61,181.94z M84.75,180.84
			c-1.06-1.63-2.06-3.33-2.97-5.05l17.65-9.4c0.65,1.21,1.35,2.41,2.1,3.56L84.75,180.84z M204.31,171.73l-18.24-8.21
			c0.56-1.25,1.08-2.54,1.53-3.84l18.88,6.6C205.84,168.12,205.11,169.95,204.31,171.73z M79.24,170.5
			c-0.76-1.79-1.46-3.64-2.07-5.49l19-6.23c0.43,1.31,0.92,2.61,1.46,3.87L79.24,170.5z M208.18,160.67l-19.38-4.95
			c0.34-1.33,0.62-2.69,0.85-4.05l19.73,3.26C209.06,156.86,208.66,158.79,208.18,160.67z M75.6,159.38
			c-0.44-1.89-0.81-3.83-1.09-5.76l19.79-2.87c0.2,1.36,0.46,2.73,0.77,4.06L75.6,159.38z M210.08,149.13l-19.94-1.56
			c0.1-1.26,0.15-2.55,0.15-3.82l0-0.32l20-0.15l0,0.47C210.29,145.54,210.22,147.35,210.08,149.13z M73.92,147.79
			c-0.08-1.34-0.12-2.7-0.12-4.04c0-0.59,0.01-1.19,0.02-1.79l19.99,0.52c-0.01,0.42-0.02,0.84-0.02,1.27
			c0,0.96,0.03,1.93,0.08,2.89L73.92,147.79z M190.09,139.28c-0.13-1.37-0.31-2.75-0.55-4.1l19.69-3.53
			c0.34,1.91,0.61,3.86,0.78,5.8L190.09,139.28z M94.1,138.34l-19.88-2.21c0.21-1.93,0.52-3.88,0.9-5.79l19.61,3.91
			C94.46,135.6,94.25,136.97,94.1,138.34z M188.63,131.14c-0.36-1.33-0.78-2.65-1.25-3.94l18.79-6.86c0.67,1.83,1.26,3.71,1.77,5.59
			L188.63,131.14z M95.71,130.23l-19.2-5.59c0.54-1.87,1.18-3.74,1.88-5.55l18.65,7.23C96.54,127.6,96.1,128.92,95.71,130.23z
			 M185.8,123.38c-0.58-1.24-1.22-2.48-1.91-3.67l17.33-9.99c0.97,1.69,1.88,3.44,2.71,5.2L185.8,123.38z M98.7,122.54l-17.96-8.81
			c0.86-1.75,1.8-3.48,2.8-5.14l17.13,10.32C99.97,120.08,99.3,121.3,98.7,122.54z M181.67,116.22c-0.79-1.13-1.63-2.24-2.51-3.3
			l15.38-12.79c1.24,1.5,2.44,3.06,3.55,4.65L181.67,116.22z M102.96,115.45l-16.19-11.74c1.14-1.57,2.36-3.11,3.64-4.59
			l15.13,13.08C104.63,113.25,103.77,114.34,102.96,115.45z M176.38,109.85c-0.97-0.98-1.99-1.93-3.04-2.82l12.98-15.21
			c1.48,1.26,2.92,2.6,4.28,3.98L176.38,109.85z M108.38,109.19L94.42,94.86c1.39-1.36,2.86-2.67,4.36-3.9l12.69,15.46
			C110.4,107.3,109.36,108.23,108.38,109.19z M170.08,104.47c-1.12-0.8-2.29-1.56-3.47-2.26l10.2-17.2c1.67,0.99,3.32,2.07,4.9,3.2
			L170.08,104.47z M114.78,103.94l-11.32-16.49c1.6-1.1,3.28-2.15,4.97-3.11l9.86,17.4C117.09,102.42,115.91,103.16,114.78,103.94z
			 M162.97,100.26c-1.24-0.6-2.51-1.14-3.8-1.63l7.1-18.7c1.82,0.69,3.63,1.47,5.38,2.31L162.97,100.26z M121.97,99.86l-8.33-18.18
			c1.77-0.81,3.6-1.56,5.43-2.21l6.73,18.83C124.51,98.76,123.23,99.29,121.97,99.86z M155.25,97.33c-1.32-0.37-2.67-0.7-4.02-0.96
			l3.79-19.64c1.92,0.37,3.83,0.82,5.7,1.35L155.25,97.33z M129.76,97.08l-5.08-19.34c1.88-0.49,3.81-0.91,5.73-1.24l3.39,19.71
			C132.44,96.44,131.08,96.73,129.76,97.08z M147.13,95.77c-1.37-0.14-2.76-0.23-4.14-0.25l0.38-20c1.94,0.04,3.91,0.16,5.84,0.36
			L147.13,95.77z M137.9,95.68l-1.69-19.93c1.93-0.16,3.89-0.25,5.84-0.25v20C140.66,95.5,139.27,95.56,137.9,95.68z"/>
	</g>
</g>
<g>
	
		<linearGradient id="SVGID_00000091003988832405674600000012704132012149921154_" gradientUnits="userSpaceOnUse" x1="153.3523" y1="143.75" x2="262.653" y2="143.75">
		<stop  offset="0" style="stop-color:#07B9FD"/>
		<stop  offset="1" style="stop-color:#002898;stop-opacity:0"/>
	</linearGradient>
	<path style="fill:url(#SVGID_00000091003988832405674600000012704132012149921154_);" d="M142.05,8.58
		C67.39,8.58,6.88,69.1,6.88,143.75c0,74.65,60.52,135.17,135.17,135.17c74.65,0,135.17-60.52,135.17-135.17
		C277.21,69.1,216.7,8.58,142.05,8.58z M142.05,247.43c-57.26,0-103.68-46.42-103.68-103.68S84.78,40.07,142.05,40.07
		s103.68,46.42,103.68,103.68S199.31,247.43,142.05,247.43z"/>
</g>
<linearGradient id="SVGID_00000139985308699084990270000018215481445586614147_" gradientUnits="userSpaceOnUse" x1="135.9865" y1="143.75" x2="260.4745" y2="143.75">
	<stop  offset="0" style="stop-color:#002898"/>
	<stop  offset="0.2091" style="stop-color:#011F7F"/>
	<stop  offset="0.5419" style="stop-color:#01145D"/>
	<stop  offset="0.8175" style="stop-color:#020D49"/>
	<stop  offset="1" style="stop-color:#020A41"/>
</linearGradient>
<path style="fill:url(#SVGID_00000139985308699084990270000018215481445586614147_);" d="M142.05,28.27
	c-63.78,0-115.48,51.7-115.48,115.48c0,63.78,51.7,115.48,115.48,115.48s115.48-51.7,115.48-115.48
	C257.53,79.97,205.83,28.27,142.05,28.27z M142.05,252.06c-59.82,0-108.31-48.49-108.31-108.31S82.23,35.44,142.05,35.44
	s108.31,48.49,108.31,108.31S201.86,252.06,142.05,252.06z"/>
<g>
	<g>
		
			<linearGradient id="SVGID_00000060002790715898990480000014972157685430201737_" gradientUnits="userSpaceOnUse" x1="255.0529" y1="143.75" x2="192.29" y2="143.75">
			<stop  offset="0" style="stop-color:#00CDFD"/>
			<stop  offset="1" style="stop-color:#002898;stop-opacity:0"/>
		</linearGradient>
		<path style="fill:url(#SVGID_00000060002790715898990480000014972157685430201737_);" d="M142.05,55.41
			c-48.79,0-88.34,39.55-88.34,88.34c0,48.79,39.55,88.34,88.34,88.34s88.34-39.55,88.34-88.34
			C230.39,94.96,190.83,55.41,142.05,55.41z M142.05,226.6c-45.76,0-82.85-37.09-82.85-82.85c0-45.76,37.09-82.85,82.85-82.85
			s82.85,37.09,82.85,82.85C224.9,189.51,187.8,226.6,142.05,226.6z"/>
	</g>
</g>
<g>
	
		<linearGradient id="SVGID_00000145763247863061455110000014076917068248806543_" gradientUnits="userSpaceOnUse" x1="215.6528" y1="143.75" x2="129.8318" y2="143.75">
		<stop  offset="0" style="stop-color:#00CDFD"/>
		<stop  offset="1" style="stop-color:#002898;stop-opacity:0"/>
	</linearGradient>
	<path style="fill:url(#SVGID_00000145763247863061455110000014076917068248806543_);" d="M195.32,197.01
		c-13.63,13.64-32.47,22.07-53.28,22.07c-41.61,0-75.34-33.73-75.34-75.34c0-41.61,33.73-75.34,75.34-75.34
		c20.83,0,39.68,8.45,53.32,22.11l14.08-14.06c-17.24-17.27-41.07-27.95-67.4-27.95c-52.6,0-95.24,42.64-95.24,95.24
		c0,52.6,42.64,95.24,95.24,95.24c26.3,0,50.12-10.66,67.35-27.91L195.32,197.01z"/>
</g>
<g>
	<g>
		
			<linearGradient id="SVGID_00000022522352251551502040000007836922290041161143_" gradientUnits="userSpaceOnUse" x1="270.4458" y1="143.7397" x2="147.3051" y2="143.7397">
			<stop  offset="0" style="stop-color:#00CDFD"/>
			<stop  offset="1" style="stop-color:#002898;stop-opacity:0"/>
		</linearGradient>
		<path style="fill:url(#SVGID_00000022522352251551502040000007836922290041161143_);" d="M142.75,273.51
			c-0.01-0.83,0.65-1.51,1.48-1.53l0,0c0.83-0.01,1.51,0.65,1.52,1.48l0,0c0.02,0.82-0.64,1.51-1.47,1.52l0,0c-0.01,0-0.02,0-0.02,0
			l0,0C143.44,274.98,142.77,274.33,142.75,273.51z M134.17,274.77c-0.83-0.05-1.46-0.76-1.41-1.59l0,0
			c0.05-0.83,0.76-1.46,1.59-1.41l0,0c0.82,0.05,1.45,0.76,1.41,1.59l0,0c-0.05,0.79-0.71,1.41-1.5,1.41l0,0
			C134.23,274.77,134.2,274.77,134.17,274.77z M152.74,273.08c-0.08-0.83,0.53-1.56,1.35-1.64l0,0l0,0l0,0
			c0.83-0.07,1.56,0.53,1.63,1.36l0,0c0.08,0.82-0.53,1.55-1.35,1.63l0,0c-0.05,0.01-0.09,0.01-0.14,0.01l0,0
			C153.47,274.44,152.81,273.85,152.74,273.08z M124.11,273.78c-0.82-0.11-1.39-0.87-1.28-1.69l0,0c0.11-0.82,0.87-1.39,1.69-1.28
			l0,0c0.82,0.11,1.39,0.87,1.28,1.69l0,0c-0.1,0.75-0.75,1.3-1.48,1.3l0,0C124.25,273.8,124.18,273.79,124.11,273.78z
			 M162.66,271.88c-0.14-0.82,0.41-1.59,1.22-1.73l0,0c0.82-0.14,1.6,0.41,1.74,1.22l0,0c0.14,0.82-0.41,1.6-1.23,1.74l0,0
			c-0.08,0.01-0.17,0.02-0.25,0.02l0,0C163.42,273.13,162.79,272.61,162.66,271.88z M114.15,272.03c-0.81-0.18-1.32-0.98-1.14-1.78
			l0,0c0.17-0.81,0.97-1.33,1.78-1.15l0,0c0.81,0.17,1.32,0.97,1.15,1.78l0,0c-0.15,0.7-0.78,1.18-1.47,1.18l0,0
			C114.37,272.06,114.26,272.05,114.15,272.03z M172.46,269.93c-0.2-0.81,0.28-1.62,1.09-1.83l0,0c0.8-0.2,1.62,0.29,1.82,1.09l0,0
			c0.2,0.8-0.28,1.62-1.09,1.82l0,0c-0.12,0.03-0.24,0.05-0.36,0.05l0,0C173.24,271.06,172.63,270.6,172.46,269.93z M104.36,269.51
			c-0.79-0.24-1.24-1.07-1-1.87l0,0c0.23-0.79,1.07-1.24,1.86-1.01l0,0c0.8,0.24,1.25,1.08,1.01,1.87l0,0
			c-0.2,0.65-0.79,1.07-1.44,1.07l0,0C104.65,269.57,104.51,269.55,104.36,269.51z M182.08,267.22c-0.26-0.79,0.16-1.64,0.94-1.9
			l0,0c0,0,0,0,0-0.01l0,0c0.79-0.26,1.64,0.16,1.9,0.95l0,0c0.27,0.78-0.15,1.63-0.94,1.9l0,0c-0.16,0.05-0.32,0.08-0.47,0.08l0,0
			C182.88,268.24,182.29,267.84,182.08,267.22z M94.8,266.24c-0.78-0.3-1.16-1.17-0.86-1.94l0,0c0.3-0.78,1.16-1.16,1.94-0.86l0,0
			c0.77,0.3,1.15,1.16,0.86,1.94l0,0c-0.23,0.59-0.8,0.96-1.4,0.96l0,0C95.16,266.34,94.97,266.31,94.8,266.24z M191.47,263.77
			c-0.32-0.77,0.03-1.65,0.79-1.97l0,0c0.77-0.33,1.65,0.03,1.97,0.79l0,0c0.33,0.76-0.03,1.64-0.79,1.97l0,0
			c-0.19,0.08-0.39,0.12-0.59,0.12l0,0C192.27,264.68,191.72,264.34,191.47,263.77z M85.52,262.24L85.52,262.24
			c-0.75-0.36-1.06-1.26-0.7-2l0,0c0.35-0.75,1.25-1.07,1.99-0.71l0,0l0,0l0,0c0.75,0.36,1.07,1.25,0.71,2l0,0
			c-0.26,0.54-0.79,0.85-1.36,0.85l0,0C85.95,262.38,85.73,262.34,85.52,262.24z M200.56,259.6c-0.38-0.74-0.09-1.64,0.64-2.03l0,0
			c0,0,0,0,0,0.01l0,0c0.74-0.39,1.64-0.1,2.03,0.63l0,0c0.38,0.74,0.09,1.64-0.64,2.02v0.01c-0.22,0.11-0.46,0.16-0.69,0.16l0,0
			C201.36,260.4,200.83,260.11,200.56,259.6z M76.58,257.53L76.58,257.53c-0.72-0.41-0.97-1.33-0.55-2.05l0,0
			c0.41-0.72,1.33-0.96,2.05-0.55l0,0c0.71,0.42,0.96,1.33,0.55,2.05l0,0c-0.28,0.48-0.78,0.75-1.3,0.75l0,0
			C77.07,257.73,76.81,257.67,76.58,257.53z M209.31,254.74c-0.44-0.7-0.23-1.63,0.48-2.07l0,0l0,0l0,0
			c0.7-0.44,1.63-0.22,2.07,0.48l0,0c0.43,0.71,0.22,1.63-0.48,2.07l0,0c-0.25,0.15-0.53,0.23-0.8,0.23l0,0
			C210.08,255.45,209.59,255.19,209.31,254.74z M68.02,252.15L68.02,252.15c-0.68-0.47-0.86-1.4-0.39-2.09l0,0
			c0.47-0.68,1.4-0.86,2.09-0.39l0,0c0.68,0.47,0.86,1.4,0.39,2.09l0,0c-0.29,0.42-0.76,0.65-1.24,0.65l0,0
			C68.58,252.41,68.28,252.33,68.02,252.15z M217.65,249.22c-0.49-0.66-0.35-1.6,0.32-2.09l0,0l0,0l0,0c0.66-0.49,1.6-0.35,2.1,0.32
			l0,0c0.49,0.66,0.34,1.6-0.32,2.09v0.01c-0.27,0.19-0.58,0.29-0.89,0.29l0,0C218.4,249.84,217.94,249.62,217.65,249.22z
			 M59.91,246.12c-0.65-0.52-0.75-1.46-0.23-2.1l0,0c0.52-0.65,1.46-0.75,2.11-0.23l0,0c0,0,0,0,0-0.01l0,0
			c0.64,0.52,0.74,1.47,0.23,2.12l0,0c-0.3,0.36-0.74,0.56-1.17,0.56l0,0C60.52,246.46,60.18,246.35,59.91,246.12z M225.54,243.09
			c-0.54-0.63-0.47-1.58,0.16-2.12l0,0c0.63-0.54,1.57-0.47,2.11,0.16l0,0c0.55,0.63,0.47,1.57-0.15,2.11l0,0
			c-0.29,0.25-0.63,0.37-0.98,0.37l0,0C226.26,243.61,225.84,243.43,225.54,243.09z M52.28,239.49L52.28,239.49
			c-0.61-0.56-0.64-1.51-0.07-2.11l0,0c0.56-0.61,1.51-0.64,2.12-0.07l0,0c0.6,0.56,0.63,1.51,0.07,2.12l0,0
			c-0.3,0.31-0.7,0.47-1.1,0.47l0,0C52.93,239.9,52.56,239.77,52.28,239.49z M232.94,236.36c-0.59-0.58-0.59-1.53-0.01-2.12l0,0
			c0.59-0.59,1.54-0.59,2.13-0.01l0,0c0.58,0.59,0.58,1.54,0,2.13l0,0c-0.29,0.29-0.68,0.44-1.06,0.44l0,0
			C233.61,236.8,233.23,236.65,232.94,236.36z M45.17,232.3L45.17,232.3c-0.56-0.61-0.52-1.56,0.1-2.12l0,0
			c0.61-0.56,1.56-0.51,2.11,0.1l0,0l0,0l0,0c0.56,0.61,0.52,1.56-0.09,2.12l0,0c-0.29,0.26-0.65,0.39-1.01,0.39l0,0
			C45.87,232.79,45.47,232.63,45.17,232.3z M239.8,229.09c-0.63-0.54-0.71-1.48-0.17-2.11l0,0l0,0l0,0
			c0.54-0.63,1.49-0.71,2.12-0.17l0,0c0.63,0.54,0.7,1.48,0.16,2.11v0.01c-0.29,0.34-0.71,0.52-1.14,0.52l0,0
			C240.43,229.45,240.08,229.33,239.8,229.09z M38.64,224.58c-0.52-0.65-0.4-1.59,0.25-2.1l0,0c0.66-0.51,1.6-0.4,2.11,0.25l0,0
			c0.51,0.66,0.39,1.6-0.26,2.11l0,0c-0.27,0.22-0.6,0.32-0.92,0.32l0,0C39.37,225.16,38.93,224.96,38.64,224.58z M246.08,221.32
			c-0.67-0.49-0.82-1.43-0.33-2.1l0,0c0.49-0.67,1.43-0.81,2.1-0.32l0,0c0.67,0.48,0.82,1.42,0.33,2.09l0,0
			c-0.3,0.4-0.75,0.62-1.22,0.62l0,0C246.66,221.61,246.35,221.51,246.08,221.32z M32.71,216.39c-0.46-0.69-0.27-1.63,0.42-2.08l0,0
			c0.69-0.46,1.62-0.28,2.08,0.41l0,0c0.46,0.69,0.27,1.62-0.42,2.08l0,0c-0.25,0.17-0.54,0.25-0.83,0.25l0,0
			C33.48,217.05,33,216.82,32.71,216.39z M251.75,213.09c-0.71-0.44-0.93-1.36-0.49-2.07l0,0c0.44-0.7,1.36-0.92,2.06-0.48l0,0
			c0.71,0.43,0.93,1.36,0.49,2.06l0,0c-0.28,0.46-0.77,0.71-1.28,0.71l0,0C252.27,213.31,251.99,213.24,251.75,213.09z
			 M27.44,207.76c-0.41-0.73-0.15-1.64,0.57-2.05l0,0c0.73-0.4,1.64-0.14,2.04,0.58l0,0c0.41,0.72,0.15,1.64-0.57,2.04l0,0
			c-0.23,0.13-0.48,0.19-0.73,0.19l0,0C28.22,208.52,27.71,208.25,27.44,207.76z M256.77,204.45c-0.74-0.38-1.03-1.28-0.65-2.02l0,0
			l0,0l0,0c0.38-0.74,1.28-1.03,2.02-0.65l0,0c0.74,0.38,1.03,1.29,0.65,2.02v0.01c-0.27,0.51-0.8,0.81-1.34,0.81l0,0
			C257.22,204.62,256.99,204.56,256.77,204.45z M22.84,198.74L22.84,198.74c-0.35-0.75-0.02-1.64,0.73-1.99l0,0
			c0.76-0.35,1.65-0.02,1.99,0.73l0,0l0,0l0,0c0.35,0.75,0.02,1.65-0.73,2l0,0c-0.2,0.09-0.42,0.13-0.63,0.13l0,0
			C23.64,199.61,23.09,199.29,22.84,198.74z M261.1,195.45c-0.76-0.32-1.12-1.2-0.8-1.96l0,0c0.32-0.77,1.2-1.12,1.97-0.8l0,0
			c0.76,0.32,1.12,1.2,0.8,1.96l0,0c-0.25,0.57-0.8,0.92-1.39,0.92l0,0C261.49,195.57,261.29,195.53,261.1,195.45z M18.96,189.4
			c-0.29-0.78,0.1-1.64,0.88-1.93l0,0c0.78-0.29,1.64,0.11,1.93,0.88l0,0c0.29,0.78-0.11,1.64-0.89,1.93l0,0
			c-0.17,0.07-0.34,0.1-0.52,0.1l0,0C19.75,190.38,19.18,190,18.96,189.4z M264.72,186.15c-0.78-0.26-1.21-1.11-0.94-1.9l0,0
			c0.26-0.79,1.11-1.21,1.89-0.95l0,0c0.79,0.26,1.21,1.11,0.95,1.9l0,0c-0.21,0.63-0.79,1.03-1.42,1.02l0,0
			C265.04,186.22,264.88,186.2,264.72,186.15z M15.81,179.79c-0.23-0.8,0.23-1.63,1.03-1.85l0,0c0.8-0.23,1.63,0.23,1.85,1.03l0,0
			c0.23,0.79-0.23,1.62-1.03,1.85l0,0c-0.13,0.04-0.27,0.06-0.41,0.06l0,0C16.6,180.88,16,180.45,15.81,179.79z M267.62,176.58
			c-0.8-0.2-1.29-1.01-1.09-1.81l0,0c0.2-0.81,1.01-1.3,1.81-1.1l0,0c0.81,0.2,1.3,1.01,1.1,1.82l0,0
			c-0.17,0.68-0.79,1.14-1.46,1.14l0,0C267.86,176.63,267.74,176.61,267.62,176.58z M13.42,169.97c-0.17-0.82,0.36-1.61,1.17-1.77
			l0,0c0.81-0.17,1.6,0.36,1.77,1.17l0,0c0.16,0.81-0.36,1.6-1.17,1.77l0,0c-0.11,0.02-0.21,0.03-0.31,0.03l0,0
			C14.19,171.17,13.56,170.68,13.42,169.97z M269.77,166.82c-0.82-0.14-1.37-0.91-1.24-1.73l0,0l0,0l0,0
			c0.14-0.81,0.91-1.37,1.73-1.23l0,0c0.82,0.14,1.37,0.91,1.23,1.73l0,0c-0.12,0.73-0.76,1.25-1.48,1.25l0,0
			C269.93,166.84,269.85,166.83,269.77,166.82z M11.79,159.99c-0.1-0.82,0.49-1.57,1.31-1.68l0,0c0.82-0.1,1.57,0.49,1.67,1.31l0,0
			c0.1,0.82-0.48,1.57-1.3,1.67l0,0c-0.07,0.01-0.13,0.01-0.19,0.01l0,0C12.53,161.3,11.89,160.75,11.79,159.99z M271.15,156.92
			c-0.82-0.07-1.43-0.8-1.36-1.63l0,0c0.07-0.82,0.8-1.43,1.63-1.35l0,0c0.82,0.07,1.43,0.8,1.36,1.62l0,0
			c-0.07,0.78-0.73,1.37-1.49,1.37l0,0C271.24,156.93,271.2,156.93,271.15,156.92z M10.94,149.92c-0.04-0.83,0.6-1.53,1.43-1.57l0,0
			c0.83-0.04,1.53,0.6,1.57,1.43l0,0l0,0l0,0c0.04,0.82-0.6,1.53-1.43,1.57l0,0c-0.02,0-0.05,0-0.07,0l0,0
			C11.64,151.35,10.98,150.72,10.94,149.92z M271.77,146.95c-0.83-0.01-1.49-0.69-1.48-1.52l0,0c0.01-0.83,0.69-1.49,1.52-1.48l0,0
			c0.83,0.01,1.49,0.69,1.48,1.52l0,0c-0.01,0.82-0.68,1.48-1.5,1.48l0,0C271.78,146.95,271.78,146.95,271.77,146.95z M12.31,141.35
			c-0.83-0.02-1.48-0.71-1.45-1.54l0,0c0.02-0.83,0.71-1.48,1.54-1.46l0,0c0.83,0.03,1.48,0.72,1.46,1.55l0,0l0,0l0,0
			c-0.03,0.81-0.7,1.45-1.5,1.45l0,0C12.34,141.35,12.33,141.35,12.31,141.35z M270.04,135.55c-0.05-0.83,0.58-1.54,1.41-1.59l0,0
			c0.82-0.05,1.54,0.58,1.59,1.4l0,0c0.05,0.83-0.58,1.54-1.4,1.6l0,0c-0.04,0-0.07,0-0.1,0l0,0
			C270.75,136.96,270.09,136.35,270.04,135.55z M12.87,131.37c-0.82-0.08-1.42-0.82-1.33-1.65l0,0c0.09-0.82,0.83-1.42,1.65-1.33
			l0,0c0.82,0.09,1.42,0.83,1.33,1.65l0,0c-0.08,0.77-0.73,1.34-1.49,1.34l0,0C12.98,131.38,12.92,131.38,12.87,131.37z
			 M269.05,125.72c-0.12-0.82,0.45-1.57,1.27-1.69l0,0c0.82-0.12,1.58,0.46,1.7,1.28l0,0c0.11,0.82-0.46,1.58-1.28,1.69l0,0
			c-0.07,0.01-0.14,0.02-0.21,0.02l0,0C269.79,127.02,269.15,126.47,269.05,125.72z M14.2,121.47c-0.82-0.15-1.36-0.94-1.21-1.75
			l0,0c0.16-0.81,0.94-1.35,1.75-1.2l0,0c0.82,0.15,1.35,0.93,1.2,1.75l0,0l0,0l0,0c-0.13,0.72-0.76,1.22-1.47,1.22l0,0
			C14.38,121.49,14.29,121.48,14.2,121.47z M267.29,116c-0.18-0.8,0.34-1.61,1.14-1.78l0,0c0.81-0.18,1.61,0.33,1.79,1.14l0,0
			c0.18,0.81-0.33,1.61-1.14,1.79l0,0c-0.11,0.02-0.22,0.03-0.32,0.03l0,0C268.07,117.18,267.45,116.7,267.29,116z M16.28,111.69
			c-0.8-0.21-1.28-1.03-1.06-1.83l0,0c0.21-0.8,1.03-1.28,1.83-1.07l0,0c0.8,0.22,1.28,1.04,1.07,1.84l0,0
			c-0.18,0.67-0.79,1.11-1.45,1.11l0,0C16.54,111.74,16.41,111.73,16.28,111.69z M264.79,106.45c-0.24-0.79,0.21-1.63,1-1.87l0,0
			c0.8-0.25,1.63,0.2,1.87,1l0,0c0.24,0.79-0.2,1.63-1,1.87l0,0c-0.14,0.04-0.29,0.06-0.43,0.06l0,0
			C265.58,107.51,264.99,107.1,264.79,106.45z M19.11,102.11c-0.78-0.28-1.19-1.13-0.91-1.91l0,0c0.27-0.79,1.13-1.2,1.91-0.92l0,0
			c0.78,0.27,1.19,1.13,0.92,1.91l0,0c-0.22,0.62-0.8,1-1.42,1l0,0C19.45,102.19,19.28,102.17,19.11,102.11z M261.56,97.1
			c-0.31-0.77,0.08-1.64,0.85-1.94l0,0c0.77-0.3,1.64,0.08,1.94,0.85l0,0c0.3,0.77-0.08,1.64-0.85,1.95l0,0
			c-0.18,0.07-0.37,0.1-0.55,0.1l0,0C262.35,98.06,261.79,97.7,261.56,97.1z M22.68,92.78c-0.76-0.33-1.1-1.22-0.76-1.97l0,0
			c0.33-0.76,1.21-1.11,1.97-0.77l0,0c0.76,0.33,1.1,1.22,0.77,1.98l0,0c-0.25,0.56-0.8,0.89-1.37,0.89l0,0
			C23.08,92.91,22.88,92.87,22.68,92.78z M257.6,88.04c-0.36-0.74-0.04-1.64,0.7-2l0,0c0.75-0.36,1.65-0.05,2,0.7l0,0
			c0.37,0.74,0.05,1.64-0.69,2l0,0c-0.21,0.1-0.44,0.15-0.66,0.15l0,0C258.4,88.89,257.86,88.58,257.6,88.04z M26.96,83.76
			c-0.73-0.39-1-1.3-0.61-2.03l0,0c0.39-0.73,1.3-1.01,2.03-0.62l0,0c0.73,0.4,1,1.31,0.61,2.04l0,0c-0.27,0.5-0.79,0.79-1.32,0.79
			l0,0C27.43,83.94,27.19,83.88,26.96,83.76z M252.96,79.31c-0.41-0.71-0.17-1.63,0.54-2.05l0,0c0.72-0.42,1.64-0.17,2.06,0.54l0,0
			c0.41,0.72,0.17,1.64-0.55,2.05l0,0c-0.23,0.14-0.49,0.21-0.75,0.21l0,0C253.74,80.06,253.24,79.79,252.96,79.31z M31.92,75.09
			c-0.69-0.45-0.9-1.38-0.45-2.08l0,0c0.45-0.69,1.38-0.9,2.07-0.45l0,0c0.7,0.45,0.91,1.38,0.46,2.07l0,0
			c-0.29,0.45-0.77,0.69-1.27,0.69l0,0C32.46,75.32,32.17,75.25,31.92,75.09z M247.66,70.97c-0.47-0.68-0.3-1.62,0.39-2.09l0,0
			c0.68-0.47,1.61-0.3,2.08,0.39l0,0c0.47,0.68,0.3,1.61-0.38,2.08l0,0c-0.26,0.18-0.56,0.27-0.85,0.27l0,0
			C248.42,71.62,247.96,71.39,247.66,70.97z M37.54,66.82c-0.66-0.5-0.79-1.44-0.29-2.1l0,0c0.5-0.66,1.44-0.79,2.1-0.29l0,0
			c0.66,0.5,0.79,1.44,0.29,2.1l0,0c-0.29,0.39-0.74,0.59-1.2,0.59l0,0C38.13,67.12,37.81,67.03,37.54,66.82z M241.74,63.06
			c-0.52-0.65-0.42-1.59,0.22-2.11l0,0c0.65-0.52,1.59-0.43,2.11,0.22l0,0c0.52,0.64,0.42,1.59-0.22,2.11l0,0
			c-0.28,0.22-0.61,0.33-0.94,0.33l0,0C242.47,63.61,242.04,63.42,241.74,63.06z M43.78,59.01c-0.62-0.55-0.68-1.5-0.13-2.12l0,0
			c0.54-0.62,1.49-0.68,2.11-0.13l0,0c0.62,0.55,0.68,1.5,0.13,2.12l0,0c-0.29,0.34-0.71,0.51-1.12,0.51l0,0
			C44.42,59.39,44.06,59.26,43.78,59.01z M235.23,55.62c-0.57-0.6-0.54-1.55,0.06-2.12l0,0c0.6-0.57,1.55-0.54,2.12,0.06l0,0
			c0.57,0.6,0.54,1.55-0.06,2.12l0,0c-0.29,0.28-0.66,0.41-1.03,0.41l0,0C235.92,56.09,235.52,55.94,235.23,55.62z M50.59,51.7
			c-0.57-0.6-0.56-1.55,0.04-2.12l0,0c0.59-0.58,1.54-0.57,2.12,0.03l0,0c0.57,0.59,0.56,1.54-0.04,2.12l0,0
			c-0.29,0.28-0.66,0.42-1.04,0.42l0,0C51.28,52.15,50.89,52,50.59,51.7z M228.17,48.71c-0.61-0.55-0.66-1.5-0.1-2.12l0,0
			c0.55-0.61,1.5-0.66,2.12-0.1l0,0c0.61,0.56,0.65,1.51,0.1,2.12l0,0c-0.3,0.33-0.7,0.49-1.11,0.49l0,0
			C228.82,49.1,228.46,48.97,228.17,48.71z M57.95,44.93c-0.53-0.64-0.44-1.58,0.19-2.11l0,0c0.64-0.53,1.59-0.45,2.12,0.19l0,0
			c0.52,0.64,0.44,1.58-0.2,2.11l0,0c-0.28,0.24-0.62,0.35-0.96,0.35l0,0C58.67,45.47,58.25,45.29,57.95,44.93z M220.6,42.36
			c-0.65-0.51-0.77-1.45-0.26-2.1l0,0c0.5-0.66,1.45-0.78,2.1-0.27l0,0c0.65,0.51,0.77,1.45,0.27,2.11l0,0
			c-0.3,0.38-0.74,0.58-1.19,0.58l0,0C221.2,42.68,220.88,42.57,220.6,42.36z M65.8,38.74c-0.48-0.67-0.32-1.61,0.36-2.09l0,0
			c0.68-0.48,1.61-0.32,2.09,0.35l0,0c0.48,0.68,0.32,1.62-0.35,2.1l0,0c-0.27,0.18-0.57,0.27-0.87,0.27l0,0
			C66.56,39.37,66.1,39.15,65.8,38.74z M212.57,36.61L212.57,36.61L212.57,36.61c-0.69-0.46-0.88-1.38-0.42-2.08l0,0
			c0.45-0.69,1.38-0.88,2.07-0.42l0,0c0.7,0.45,0.89,1.38,0.43,2.07l0,0c-0.29,0.44-0.77,0.68-1.25,0.68l0,0
			C213.11,36.86,212.83,36.78,212.57,36.61z M74.11,33.17c-0.42-0.71-0.19-1.63,0.52-2.05l0,0c0.71-0.43,1.63-0.2,2.05,0.51l0,0
			c0.43,0.71,0.2,1.63-0.51,2.06l0,0c-0.24,0.14-0.51,0.21-0.77,0.21l0,0C74.89,33.9,74.39,33.64,74.11,33.17z M204.13,31.5
			c-0.73-0.41-0.99-1.32-0.59-2.04l0,0c0.4-0.73,1.31-0.99,2.04-0.59l0,0c0.72,0.4,0.99,1.32,0.58,2.04l0,0
			c-0.27,0.49-0.78,0.77-1.31,0.77l0,0C204.6,31.68,204.36,31.62,204.13,31.5z M82.82,28.26c-0.37-0.74-0.07-1.64,0.68-2.01l0,0
			c0.74-0.37,1.64-0.07,2.01,0.67l0,0c0.37,0.74,0.07,1.65-0.67,2.02l0,0c-0.22,0.1-0.45,0.15-0.67,0.15l0,0
			C83.62,29.09,83.09,28.79,82.82,28.26z M195.31,27.05c-0.75-0.35-1.08-1.24-0.74-1.99l0,0c0.34-0.75,1.23-1.09,1.99-0.74l0,0
			c0.75,0.34,1.08,1.23,0.74,1.99l0,0c-0.25,0.55-0.8,0.87-1.37,0.87l0,0C195.73,27.18,195.51,27.14,195.31,27.05z M91.89,24.04
			c-0.31-0.77,0.06-1.64,0.83-1.95l0,0c0.77-0.32,1.64,0.05,1.95,0.82l0,0c0.31,0.77-0.06,1.64-0.83,1.96l0,0
			c-0.18,0.07-0.37,0.11-0.56,0.11l0,0C92.69,24.98,92.13,24.62,91.89,24.04z M186.18,23.29L186.18,23.29L186.18,23.29
			c-0.77-0.28-1.17-1.14-0.89-1.92l0,0c0.29-0.78,1.15-1.18,1.93-0.89l0,0c0.77,0.28,1.17,1.14,0.89,1.92l0,0
			c-0.23,0.61-0.8,0.99-1.41,0.99l0,0C186.53,23.39,186.35,23.36,186.18,23.29z M101.26,20.53c-0.25-0.79,0.19-1.63,0.98-1.88h-0.01
			c0.79-0.25,1.64,0.18,1.89,0.97l0,0c0.25,0.79-0.19,1.63-0.97,1.88l0,0c-0.16,0.05-0.31,0.08-0.46,0.08l0,0
			C102.05,21.58,101.46,21.17,101.26,20.53z M176.78,20.26C176.78,20.26,176.78,20.26,176.78,20.26L176.78,20.26
			c-0.79-0.23-1.26-1.05-1.03-1.85l0,0c0.22-0.8,1.05-1.27,1.85-1.04l0,0c0.79,0.22,1.26,1.05,1.03,1.85l0,0
			c-0.18,0.66-0.78,1.09-1.44,1.09l0,0C177.06,20.31,176.92,20.29,176.78,20.26z M110.86,17.76c-0.19-0.81,0.32-1.61,1.12-1.8l0,0
			c0.81-0.19,1.62,0.31,1.8,1.12l0,0c0.19,0.8-0.31,1.61-1.11,1.8l0,0c-0.12,0.03-0.23,0.04-0.35,0.04l0,0
			C111.64,18.92,111.03,18.45,110.86,17.76z M167.18,17.96c-0.81-0.16-1.34-0.95-1.18-1.76l0,0c0.16-0.82,0.95-1.35,1.76-1.18l0,0
			c0.82,0.16,1.34,0.95,1.18,1.76l0,0c-0.14,0.71-0.77,1.21-1.47,1.21l0,0C167.37,17.99,167.28,17.98,167.18,17.96z M120.65,15.74
			c-0.12-0.81,0.44-1.58,1.26-1.71l0,0c0.82-0.12,1.58,0.44,1.71,1.26l0,0c0.13,0.82-0.44,1.58-1.26,1.71l0,0
			c-0.07,0.01-0.15,0.02-0.22,0.02l0,0C121.41,17.02,120.77,16.49,120.65,15.74z M157.42,16.41c-0.82-0.1-1.41-0.85-1.31-1.67l0,0
			c0.1-0.82,0.85-1.41,1.67-1.31l0,0c0.82,0.1,1.41,0.84,1.31,1.67l0,0c-0.09,0.76-0.74,1.32-1.49,1.32l0,0
			C157.54,16.42,157.48,16.42,157.42,16.41z M130.57,14.49c-0.06-0.83,0.55-1.55,1.38-1.61l0,0c0.83-0.06,1.55,0.56,1.61,1.38l0,0
			c0.06,0.83-0.56,1.55-1.38,1.61l0,0c-0.04,0.01-0.08,0.01-0.12,0.01l0,0C131.29,15.88,130.63,15.28,130.57,14.49z M147.58,15.62
			c-0.83-0.04-1.47-0.74-1.44-1.57l0,0c0.03-0.82,0.73-1.47,1.56-1.43l0,0c0.83,0.03,1.47,0.73,1.44,1.56l0,0
			c-0.04,0.81-0.7,1.44-1.5,1.44l0,0C147.62,15.62,147.6,15.62,147.58,15.62z M140.55,14c0-0.83,0.67-1.5,1.5-1.5l0,0
			c0.83,0,1.5,0.67,1.5,1.5l0,0c0,0.83-0.67,1.5-1.5,1.5l0,0C141.22,15.5,140.55,14.83,140.55,14z"/>
	</g>
</g>
</svg>
