<?xml version="1.0" encoding="utf-8"?>
<!-- Generator: Adobe Illustrator 27.3.1, SVG Export Plug-In . SVG Version: 6.00 Build 0)  -->
<svg version="1.1" id="Layer_1" xmlns="http://www.w3.org/2000/svg" xmlns:xlink="http://www.w3.org/1999/xlink" x="0px" y="0px"
	 viewBox="0 0 345 348" style="enable-background:new 0 0 345 348;" xml:space="preserve">
<style type="text/css">
	.st0{fill:url(#SVGID_1_);}
</style>
<g>
	<g>
		<linearGradient id="SVGID_1_" gradientUnits="userSpaceOnUse" x1="130.4777" y1="172.5" x2="335.0027" y2="172.5">
			<stop  offset="0" style="stop-color:#44B6E8"/>
			<stop  offset="1" style="stop-color:#28388D;stop-opacity:0"/>
		</linearGradient>
		<path class="st0" d="M170.56,337.55c-1.77-0.03-3.56-0.08-5.32-0.16l0.93-19.98c1.55,0.07,3.12,0.12,4.68,0.14L170.56,337.55z
			 M175.87,337.54l-0.34-20c1.57-0.03,3.14-0.08,4.67-0.15l0.99,19.98C179.44,337.45,177.66,337.51,175.87,337.54z M159.94,337.06
			c-1.75-0.14-3.53-0.31-5.29-0.5l2.2-19.88c1.55,0.17,3.12,0.32,4.66,0.44L159.94,337.06z M186.49,337.02l-1.61-19.94
			c1.55-0.12,3.12-0.28,4.65-0.45l2.26,19.87C190.04,336.71,188.26,336.88,186.49,337.02z M149.36,335.89
			c-1.74-0.25-3.51-0.53-5.25-0.84l3.48-19.7c1.53,0.27,3.09,0.52,4.62,0.74L149.36,335.89z M197.06,335.83l-2.89-19.79
			c1.54-0.22,3.09-0.48,4.61-0.75l3.54,19.69C200.58,335.28,198.81,335.57,197.06,335.83z M138.88,334.04
			c-1.73-0.37-3.48-0.76-5.19-1.18l4.75-19.43c1.5,0.37,3.03,0.71,4.56,1.04L138.88,334.04z M207.54,333.95l-4.16-19.56
			c1.51-0.32,3.04-0.67,4.55-1.05l4.8,19.41C211.01,333.18,209.26,333.58,207.54,333.95z M128.54,331.51
			c-1.72-0.48-3.43-0.99-5.1-1.51l6-19.08c1.47,0.46,2.97,0.91,4.48,1.33L128.54,331.51z M217.87,331.39l-5.43-19.25
			c1.49-0.42,3-0.87,4.47-1.34l6.06,19.06C221.3,330.4,219.58,330.91,217.87,331.39z M118.38,328.32c-1.66-0.58-3.34-1.2-4.99-1.84
			l7.22-18.65c1.45,0.56,2.93,1.11,4.39,1.62L118.38,328.32z M228.04,328.17l-6.66-18.86c1.46-0.52,2.94-1.07,4.39-1.63l7.28,18.63
			C231.39,326.95,229.7,327.58,228.04,328.17z M108.47,324.48c-1.62-0.69-3.26-1.42-4.85-2.15l8.42-18.14
			c1.4,0.65,2.83,1.29,4.26,1.89L108.47,324.48z M237.98,324.28l-7.88-18.38c1.44-0.62,2.88-1.26,4.27-1.92l8.48,18.12
			C241.26,322.84,239.62,323.58,237.98,324.28z M98.84,320.01c-1.58-0.8-3.17-1.63-4.7-2.46l9.57-17.56
			c1.35,0.73,2.74,1.46,4.13,2.17L98.84,320.01z M247.64,319.76l-9.06-17.83c1.38-0.7,2.78-1.44,4.14-2.19l9.63,17.53
			C250.8,318.13,249.22,318.96,247.64,319.76z M89.52,314.93c-1.53-0.9-3.06-1.83-4.54-2.76l10.68-16.91
			c1.3,0.82,2.64,1.64,3.99,2.43L89.52,314.93z M256.98,314.63l-10.19-17.21c1.35-0.8,2.69-1.62,3.98-2.45l10.75,16.87
			C260.05,312.79,258.52,313.72,256.98,314.63z M80.53,309.26c-1.47-1-2.93-2.02-4.35-3.05l11.74-16.19
			c1.25,0.9,2.53,1.81,3.83,2.68L80.53,309.26z M265.98,308.91l-11.28-16.51c1.28-0.88,2.57-1.79,3.83-2.71l11.8,16.15
			C268.89,306.88,267.43,307.91,265.98,308.91z M71.94,303.02c-1.39-1.08-2.79-2.2-4.15-3.32l12.75-15.41
			c1.19,0.99,2.42,1.97,3.65,2.92L71.94,303.02z M274.57,302.63l-12.32-15.76c1.22-0.95,2.45-1.94,3.64-2.94l12.81,15.36
			C277.35,300.42,275.95,301.54,274.57,302.63z M63.75,296.24c-1.32-1.17-2.64-2.37-3.93-3.59l13.72-14.55
			c1.13,1.07,2.29,2.12,3.45,3.15L63.75,296.24z M282.74,295.81l-13.3-14.94c1.16-1.04,2.32-2.1,3.44-3.17l13.78,14.5
			C285.38,293.42,284.06,294.63,282.74,295.81z M56.01,288.95c-1.24-1.25-2.48-2.53-3.69-3.83l14.62-13.65
			c1.06,1.14,2.16,2.27,3.25,3.37L56.01,288.95z M290.45,288.48l-14.23-14.05c1.08-1.1,2.17-2.24,3.24-3.38l14.67,13.6
			C292.92,285.94,291.68,287.23,290.45,288.48z M48.75,281.17c-1.17-1.34-2.33-2.7-3.44-4.06l15.46-12.68
			c0.98,1.19,2,2.39,3.03,3.57L48.75,281.17z M297.68,280.68l-15.1-13.12c1.02-1.18,2.03-2.38,3.01-3.58l15.52,12.62
			C299.99,277.97,298.84,279.34,297.68,280.68z M42,272.94c-1.08-1.4-2.14-2.84-3.17-4.27L55.07,257c0.91,1.26,1.85,2.53,2.79,3.76
			L42,272.94z M304.38,272.44l-15.91-12.12c0.94-1.24,1.88-2.5,2.77-3.76l16.3,11.6C306.52,269.58,305.46,271.02,304.38,272.44z
			 M35.79,264.29c-0.98-1.47-1.96-2.97-2.89-4.47l16.96-10.59c0.82,1.32,1.68,2.64,2.54,3.93L35.79,264.29z M310.55,263.78
			l-16.66-11.07c0.86-1.3,1.71-2.62,2.52-3.93l17.01,10.53C312.5,260.8,311.53,262.3,310.55,263.78z M30.15,255.25
			c-0.89-1.53-1.76-3.09-2.6-4.66l17.61-9.47c0.74,1.37,1.51,2.74,2.28,4.09L30.15,255.25z M316.14,254.75l-17.33-9.98
			c0.78-1.35,1.54-2.72,2.26-4.08l17.65,9.41C317.9,251.64,317.03,253.21,316.14,254.75z M25.1,245.87c-0.78-1.58-1.56-3.2-2.3-4.82
			l18.19-8.31c0.65,1.42,1.33,2.84,2.01,4.22L25.1,245.87z M321.14,245.38l-17.94-8.84c0.68-1.38,1.35-2.8,1.99-4.22l18.21,8.26
			C322.68,242.19,321.92,243.81,321.14,245.38z M20.66,236.16c-0.68-1.63-1.35-3.3-1.98-4.96l18.69-7.12
			c0.55,1.46,1.14,2.92,1.74,4.35L20.66,236.16z M325.52,235.71l-18.48-7.66c0.59-1.43,1.17-2.89,1.72-4.33l18.71,7.06
			C326.86,232.42,326.2,234.08,325.52,235.71z M16.87,226.18c-0.57-1.67-1.13-3.38-1.65-5.08l19.12-5.88
			c0.46,1.49,0.95,2.99,1.45,4.46L16.87,226.18z M329.28,225.77l-18.93-6.45c0.5-1.46,0.98-2.96,1.43-4.45l19.13,5.83
			C330.39,222.39,329.84,224.1,329.28,225.77z M13.73,215.99c-0.47-1.71-0.91-3.45-1.32-5.16l19.46-4.62
			c0.36,1.5,0.74,3.02,1.16,4.53L13.73,215.99z M332.38,215.59l-19.31-5.21c0.4-1.5,0.79-3.02,1.14-4.53l19.47,4.58
			C333.28,212.14,332.84,213.88,332.38,215.59z M11.27,205.64c-0.35-1.73-0.68-3.49-0.98-5.24l19.72-3.36
			c0.26,1.53,0.55,3.08,0.86,4.59L11.27,205.64z M334.82,205.22l-19.61-3.94c0.31-1.52,0.59-3.07,0.85-4.6l19.72,3.31
			C335.49,201.73,335.16,203.49,334.82,205.22z M9.48,195.14c-0.24-1.75-0.45-3.53-0.64-5.28l19.89-2.08
			c0.16,1.54,0.35,3.1,0.56,4.65L9.48,195.14z M336.58,194.73l-19.82-2.67c0.21-1.54,0.39-3.1,0.55-4.64l19.9,2.03
			C337.02,191.2,336.81,192.98,336.58,194.73z M8.37,184.56c-0.13-1.76-0.23-3.55-0.3-5.3l19.98-0.81c0.06,1.55,0.15,3.12,0.26,4.68
			L8.37,184.56z M337.66,184.14l-19.95-1.39c0.11-1.54,0.19-3.12,0.25-4.67l19.99,0.75C337.87,180.6,337.78,182.39,337.66,184.14z
			 M7.95,173.94c0-0.48-0.01-0.96-0.01-1.43c0-1.3,0.02-2.59,0.04-3.88l20,0.46c-0.03,1.14-0.04,2.28-0.04,3.42
			c0,0.42,0,0.84,0.01,1.26L7.95,173.94z M338.06,173.52l-20-0.12l0-0.89c0-1.27-0.02-2.53-0.05-3.79l19.99-0.52
			c0.04,1.43,0.06,2.86,0.06,4.3L338.06,173.52z M28.16,164.41l-19.97-1.1c0.1-1.76,0.22-3.55,0.38-5.3l19.92,1.73
			C28.36,161.29,28.25,162.86,28.16,164.41z M317.82,164.04c-0.09-1.54-0.2-3.11-0.34-4.67l19.92-1.78c0.16,1.77,0.29,3.55,0.39,5.3
			L317.82,164.04z M28.97,155.09l-19.86-2.37c0.21-1.75,0.45-3.53,0.72-5.27l19.77,3.01C29.37,151.99,29.16,153.55,28.97,155.09z
			 M316.98,154.73c-0.19-1.54-0.4-3.09-0.64-4.63l19.76-3.06c0.27,1.75,0.52,3.52,0.73,5.27L316.98,154.73z M30.38,145.85
			l-19.66-3.65c0.32-1.73,0.68-3.49,1.06-5.22l19.54,4.29C30.98,142.79,30.67,144.33,30.38,145.85z M315.55,145.49
			c-0.29-1.52-0.6-3.06-0.94-4.58l19.52-4.34c0.38,1.72,0.74,3.48,1.07,5.21L315.55,145.49z M32.39,136.72L13,131.8
			c0.43-1.71,0.9-3.44,1.39-5.14l19.22,5.54C33.18,133.7,32.77,135.21,32.39,136.72z M313.52,136.36c-0.39-1.51-0.8-3.02-1.23-4.5
			l19.2-5.6c0.49,1.69,0.97,3.42,1.41,5.14L313.52,136.36z M34.98,127.74l-19.03-6.17c0.54-1.68,1.12-3.38,1.72-5.04l18.82,6.78
			C35.97,124.78,35.46,126.26,34.98,127.74z M310.91,127.39c-0.48-1.48-1-2.97-1.53-4.43l18.8-6.83c0.6,1.67,1.19,3.36,1.74,5.05
			L310.91,127.39z M38.15,118.95l-18.58-7.39c0.65-1.64,1.34-3.29,2.04-4.9l18.34,7.99C39.32,116.06,38.72,117.5,38.15,118.95z
			 M307.71,118.58c-0.58-1.45-1.19-2.9-1.81-4.32l18.31-8.04c0.71,1.62,1.41,3.27,2.07,4.92L307.71,118.58z M41.87,110.4
			l-18.07-8.58c0.76-1.6,1.55-3.2,2.35-4.76l17.78,9.15C43.23,107.59,42.53,109,41.87,110.4z M303.94,110
			c-0.67-1.4-1.37-2.81-2.09-4.19l17.75-9.21c0.82,1.57,1.62,3.18,2.38,4.77L303.94,110z M46.14,102.11l-17.48-9.72
			c0.86-1.54,1.75-3.09,2.66-4.6l17.16,10.28C47.67,99.4,46.89,100.76,46.14,102.11z M299.63,101.68c-0.76-1.35-1.55-2.71-2.36-4.05
			l17.12-10.33c0.92,1.52,1.82,3.07,2.68,4.6L299.63,101.68z M50.94,94.1L34.12,83.28c0.95-1.48,1.95-2.97,2.95-4.42l16.46,11.36
			C52.64,91.49,51.77,92.8,50.94,94.1z M294.79,93.67c-0.85-1.3-1.72-2.61-2.61-3.89l16.42-11.42c1.01,1.45,2.01,2.94,2.97,4.42
			L294.79,93.67z M56.24,86.41L40.15,74.53c1.05-1.42,2.13-2.84,3.23-4.22l15.7,12.39C58.12,83.91,57.16,85.16,56.24,86.41z
			 M289.44,85.98c-0.93-1.24-1.89-2.49-2.86-3.71l15.65-12.45c1.1,1.38,2.19,2.8,3.25,4.22L289.44,85.98z M62.03,79.08L46.74,66.19
			c1.14-1.35,2.31-2.7,3.49-4.01L65.1,75.55C64.07,76.7,63.03,77.89,62.03,79.08z M283.61,78.66c-1-1.18-2.04-2.36-3.09-3.52
			l14.82-13.43c1.19,1.31,2.37,2.66,3.51,4L283.61,78.66z M68.29,72.12L53.85,58.28c1.22-1.27,2.48-2.54,3.74-3.78l13.99,14.3
			C70.47,69.88,69.36,71,68.29,72.12z M277.33,71.72c-1.08-1.12-2.19-2.23-3.3-3.31l13.93-14.35c1.26,1.23,2.53,2.49,3.76,3.77
			L277.33,71.72z M74.97,65.58L61.45,50.84c1.3-1.2,2.64-2.38,3.98-3.53l13.04,15.16C77.3,63.48,76.12,64.53,74.97,65.58z
			 M270.62,65.21c-1.15-1.05-2.33-2.09-3.51-3.09l12.98-15.21c1.34,1.14,2.68,2.33,3.99,3.52L270.62,65.21z M82.07,59.48
			L69.52,43.91c1.37-1.11,2.79-2.21,4.2-3.27L85.76,56.6C84.52,57.54,83.28,58.51,82.07,59.48z M263.51,59.14
			c-1.21-0.97-2.45-1.93-3.7-2.86l11.98-16.01c1.41,1.06,2.83,2.15,4.2,3.25L263.51,59.14z M89.54,53.84L78.02,37.5
			c1.44-1.02,2.93-2.03,4.4-3l10.99,16.71C92.12,52.06,90.81,52.95,89.54,53.84z M256.02,53.54c-1.27-0.89-2.57-1.77-3.87-2.61
			l10.93-16.75c1.48,0.96,2.96,1.97,4.4,2.98L256.02,53.54z M97.37,48.7L86.93,31.64c1.51-0.93,3.06-1.84,4.59-2.71l9.89,17.38
			C100.06,47.08,98.7,47.89,97.37,48.7z M248.2,48.44c-1.33-0.81-2.68-1.6-4.03-2.36L254,28.66c1.53,0.86,3.07,1.77,4.58,2.68
			L248.2,48.44z M105.51,44.07l-9.32-17.69c1.56-0.82,3.16-1.63,4.76-2.41l8.74,17.99C108.29,42.64,106.88,43.35,105.51,44.07z
			 M240.07,43.85c-1.37-0.71-2.77-1.42-4.17-2.09l8.69-18.01c1.59,0.77,3.19,1.57,4.74,2.38L240.07,43.85z M113.93,39.98
			l-8.15-18.26c1.62-0.72,3.27-1.43,4.91-2.09l7.55,18.52C116.81,38.72,115.36,39.34,113.93,39.98z M231.68,39.8
			c-1.41-0.62-2.85-1.24-4.29-1.82l7.5-18.54c1.64,0.66,3.28,1.36,4.89,2.07L231.68,39.8z M122.61,36.44l-6.95-18.75
			c1.66-0.62,3.36-1.21,5.04-1.77l6.33,18.97C125.56,35.37,124.07,35.9,122.61,36.44z M223.02,36.3c-1.46-0.54-2.94-1.05-4.41-1.54
			l6.28-18.99c1.68,0.56,3.37,1.15,5.03,1.75L223.02,36.3z M131.49,33.47l-5.71-19.17c1.7-0.51,3.42-0.99,5.12-1.44l5.09,19.34
			C134.5,32.6,132.98,33.03,131.49,33.47z M214.15,33.37c-1.48-0.44-3-0.86-4.51-1.25l5.04-19.35c1.71,0.45,3.44,0.92,5.13,1.42
			L214.15,33.37z M140.53,31.1l-4.45-19.5c1.72-0.39,3.48-0.76,5.21-1.1l3.82,19.63C143.58,30.42,142.04,30.75,140.53,31.1z
			 M205.11,31.01c-1.51-0.34-3.05-0.66-4.58-0.96l3.77-19.64c1.73,0.33,3.49,0.7,5.21,1.09L205.11,31.01z M149.71,29.31l-3.19-19.75
			c1.74-0.28,3.51-0.54,5.27-0.76l2.55,19.84C152.79,28.84,151.23,29.06,149.71,29.31z M195.93,29.25
			c-1.54-0.24-3.09-0.46-4.63-0.66l2.5-19.84c1.75,0.22,3.52,0.47,5.27,0.75L195.93,29.25z M158.98,28.12l-1.91-19.91
			c1.75-0.17,3.54-0.31,5.3-0.42l1.27,19.96C162.09,27.84,160.52,27.97,158.98,28.12z M186.65,28.08c-1.55-0.14-3.12-0.27-4.66-0.36
			l1.21-19.96c1.75,0.11,3.54,0.24,5.31,0.41L186.65,28.08z M168.32,27.52l-0.64-19.99c1.79-0.06,3.61-0.07,5.42-0.08
			c1.57,0,3.19,0.02,4.79,0.07l-0.58,19.99c-1.44-0.04-2.88-0.05-4.3-0.06C171.44,27.45,169.87,27.47,168.32,27.52z"/>
	</g>
</g>
</svg>
